<mxfile host="app.diagrams.net" modified="2023-03-08T18:33:54.272Z" agent="5.0 (Windows NT 10.0; Win64; x64) AppleWebKit/537.36 (KHTML, like Gecko) Chrome/110.0.0.0 Safari/537.36" etag="Oa8uyc2waK50aX3iG-L8" version="21.0.2" type="github" pages="3">
  <diagram name="Automation" id="SjHe49jJVoV8EPsKLjpZ">
    <mxGraphModel dx="2448" dy="1607" grid="1" gridSize="10" guides="1" tooltips="1" connect="1" arrows="1" fold="1" page="1" pageScale="1" pageWidth="827" pageHeight="1169" math="0" shadow="0">
      <root>
        <mxCell id="0" />
        <mxCell id="1" parent="0" />
        <mxCell id="SkUb1cnuTnNj_XQBZiCX-40" value="" style="shape=image;verticalLabelPosition=bottom;labelBackgroundColor=default;verticalAlign=top;aspect=fixed;imageAspect=0;image=data:image/png,iVBORw0KGgoAAAANSUhEUgAAASwAAACoCAMAAABt9SM9AAABGlBMVEX///88Oj7jWhzjVxPneFDiUAA3NTnjWRk2NDjzwbD++vf8/PwyMDUqJyzgTQD87egmIyk3daj/0kIuKzCRkJL/1UXz8/PhSgA3cJ8jICb/zz/09PQgHSNHRUk3dquAf4Hp6emQj5Gurq/429FvbnDT0tPDwsO4uLmIh4j20sXrkXL76eLqjGp2dXcWEhqko6Xi4eJYVlnF1ejkZzP0x7jtn4Xvq5TxtaFjYWTmbj9QT1L//fXslnjzw7PlcUQAAACWtNAlcKv/8cv/5af/6o7/xRn/2m7nf1jjYirupo0PChSRr82tw9jO2+dTibp6nb8XYphdj7r/+N//1DD/210bXpBNeaH/33v/5ZX/8aj/2jj/zUn/7cH/24RFvTeyAAAQSElEQVR4nO1de1/aSBdOSBMiuZBtEERFIpIAXiDUqojWrd11sa1919W9dN999/t/jXeumckFutSw0HaeP/yFyRCGJ+ecec6ZCUqSgICAgICAgICAgICAgICAgICAwGqhXF72CL4Y9I5t+2pv2aP4MvCyViwUlFpv2eP4ElBWAVcANeGKn8a+grgqKJNlj2T1UaoVCGovlz2WlcdLm5JVLJSWPZhVx4lCySqoJ8sezKpjwsgq1A6WPZrVhnGL5kLMmHK17OGsNso2ngkxW/ZaukepfCBiGUYPTYZK6RgZWLGY4OVgbf/WrtkTocEgzlTI0bG0hydFdZ+dKr+8LNZUBbKoJEn8NoEkKdSj+yqO8ThHLPVOzlVbKdLQb4tkCOAK8qGewqwnivF7pxPVViOiBFkEpQLkxIbafQ07onKsAt8rJKAINwQBHNmTjfTVuUKEfBpCrkLgZAfbzZ6doKhIDUw5FoYFcAotS3mGX1yqPFFqrbBPjlWhHCAO0WR4iV+UisQFFdUuTM72pLfYtFRRRUVA7Khn5BWM8UXFVq9O96DfreHqTe3VMke4Iij1LrEp1SLLOa/Vzk96JED1CFenyxrgyqD08lChorMWhe+DVyw6HWClxWv6bxKltQlgigmDzD5YQ9Dg/42ifPYsrjqz+bhCXZTbb1g0lE/P7ThTqn2eVXs/VL910VC6VGMpH2Dq6jSzOvoWC9RvOCU8UGOq065NzqYYjhANpVuFY6p4+HJqOCKiwf6GRcPLaIWweHvZmxG4D7CkUA//vbGtHM6oExbPZ4btEk6gcxQN5RRKC59kw3bTQAdG8+io6yUapepgNB6g0+0K+NsaoR6d9tFRGx1xlmVPpvugVMb9oiTo6biy1QSKx8/21xY607Zdp4oOqo6pW9oWOj5ytz10EGp9WRujo+8hWW0Lkdi0dF1DbyuxKnFBsW/fTl0kxNWHHBeon6WKicWiAiaYq4zFpJzgO3Ldx0f9gdTs+6TRQQdb2nZgGOgweBeAv40h6ttoGAYxPWZaSELVJlM2N5AKs5pbfE+TFd2yp2uTauj7vmckWod6p99CR51+UB1hgxqZQR/53qDfoR0rTisIOlYXvdgeBoFHTpzVlPhY1ZPM6stbsniRl2lNIwvcstrbJ10ZhB7Ngmjsenw7IMXoN9HhrmlafehqwMYqEm4cuVXa88jsv3tXdxGx4bb77nufntm7smPjVpVM4yKFrdyKydPJAvrk8vOva1QsV5MxTGvAnRmbo7aJXWtk7lYCdDQEjTpqHEZkGY2hH/gV7KaAYj/gbLQ3YdZVrO2XpHCUtGApmjjzSnZmkVWoffZEEuquzMFpR2c6TqPRkGUY1Q15SBvrMmhE8btS7xoS4qdah6bWfYfIq2yHUpyNA5rzqMfAByv9UdY48Fyg5FSemUnWZ285DCxNjsFtkjOGXN8yQFQPwXHY3yWNje2qIXVRY1UGxLmw1X8HDXLooC5tQH4jYTvl04INNDxwMr/h6k0pA2RdTM1nW81ssj7zlviWnIRDPDEYwRDUGUHb8UcBbRygRvSy2m0MW7jVh1oLxXej2W63d1MfVFq7BWZldOuabFYyh4L3PuS0dZInS4GIL7fZn2NaW2muZLnvf/qNn4fANKHtRpOoFIZSNGwiM2q5rFVwZCnPDg8PJ8ex4gfcu1PiEX939pkjnQZ206WhS7M60mLg97HpRjejqnWkw1tagifFv1xMiyNLxYWMvVve2A65XCzl/GvsjHLORl8nnlcJq94ARy+3EeYx2ix0sB0T/Q8wtipgzEB8TU732HJFHhUtniwi2st8OnEO94kVI8QTrWdK1omRxt9qTwYv690chjoFFRN/XPTxpt7GFClqTd3vkah1Pusa/xAZZEknzGCKsHZ9yLkqvwGxxKUdbN708OBNGo5DSzcX5YIQ1OnpS+j4ZCMgIowGlBxMK4sstksaZ6E9nhQuNvVYPy4mkKmQBdxBw0t/bugHncDfmjEyA3QJ/DBDasYxRIasEZnVhZ++vVVK7QtRcqhqfYostFWO+2SVq9Dus/faLN0IMFn6UfStk993q9N2tx2QCNW3h61svrzWyKmDLuDPqJPmy+tUKrsAHajRsCFjRx+geAny9JQkKt5+Fj8xZJHFxW1c3+BCPHeDuLvHl0EIWbIzxfequ7qlU0GhuWYr3SVsslwJzKONxJW8I9c1IZxK5PUu0nEtBwf7QLqsJdgqHj+FJowssrgYhT+izOQEt7V1j3mnwmWRIVVZbuYE2IonQrJs4eIeh4plxrvUY+q849LT0NXJx1lQ0JL7BNOF8tlVfK0sj2w6g6wDTiqQmixHH5N3b9WMRuBkkUnoSRagIHfkJPQ4q97YTXVxh8wVB9tRM5xwCUEWuIaPz1iE2vKrQ7VGZ/ZcVg7TZJWOeZ2F7wdnROwOHUfmFp+Xm9TJNLkqxeGNzSQPSVZ9U8voYkZpss+4Qtqqhak1PSkkDnnELlbqXR4DA1MUtZiHhE+K0vJZgTdeGrgZgZHvcwYYV19hPbKZcTx8VxtRsNJByIlY0YdRFz+yPC3WxSKpn9HguKxLsCaGjw0k6HhaCfbODq8mZ7nU/ziy0H7fWizbKarkQ7gQT0U815QoTuxGfmQOYzMZ5Upz5OZgUBk51M4sGuU9+la93ujCLnVKbx37KtHrIJUCUyUsTmAJrA2lRjZXeSI2xRaLCXUSBW5Of1IzuoremVpsGkbOZg655iZptkYkj/O61I5c3GCMsd1oVpPEMa9J2NFxSayNO7i7AQC8DKG/3TYxV5/UZU/AJ+pZUSp4mKSGo89O1nSrzFdMVvYLiHty9YHIUBxcrKlgw9JlrkQxIITCEE5VFXcJclZDn6iPF8nVbLK46ZbbAoxF/Cv2MGT6GQ9Pj9hi8ZYwGJ/7iDLCpTsPB299GAt1JJ9BtXiiqlgZ0OPivayNZ6UET8csslTevdjchw2JM7WMUn3ISlq0SEqMyE3UtUjMQSbRRVRojfgkSghCKQG+rsYCkx+TIsnZN2fMIEs95y2GxXNEDrfSmVlY85lYqmOfweHIHSQ6BvjbmoCsKmalniwTtrFpNSSqqrgScocXZW7wdEJmYSpZxVq8XlaOyEKVCJZcK9l5RBAJCNmENzwk/pIMKgbuZ1Wp7emp+YzYpA4OB26C8UpMuOmLNa0pZCl2IbkkzdJmaErskeRpC75BFE1QeRyLx4xKOQ5ljkctyErVn0MnIgs7qsUsiChgHN8ziM4V6ey8qKiqfZ5WcUzFQ3pYCJu6AjRgccug38pJV+JxicXy6Ewnp4K0Z0VuiCMcdxUS8trEVa2kl+eK2IIF2hhyPDnJ3hdyS/kB2Q2bHGfs6KlQtqCxYE6209MVtglziwRybZjqUWVRnVzPo6eiAk2VapCFla+lrBr8VLAQr5bZsT3jXeR2Q1lkYE6sVJ8q8lY4G6ZmOgqPRfV6IvBtkcxwILUwW1pycTFPZJVopoDV5u296IcBirOe4KNrYkAieTjuOKk+eDqDTEwlC8sDQAhRVZzxkXAGg9iQmGjmYms+mIMsJq3UNSayZi7DkiwXkEX0EFuDocBBx2KVqbRpYL0AVTu+CivC0gINVBtU2m0vTj/MQ1YU4hX2kFpKZIVDrvRJVBCIWVSSJuuiRGbVjSiJTs+GeCKF7fh65m7iFL4HdEIxvTm+/1yYhyz6jGihkC7YEIRHljlmLwfEsjyqh7RxvL9Hvh/8+iRYc3ZD0NXJRchVOMZ3+XWw0aL1w1xk8cut5D0xkVXtOjp2KQJSQxiyBSs3JrRoxg2JiCoK9Zgf+SFph3tssP7gZBZ5SwO9CPHa9OL0w1xk8QuFxAs5kWFU6iRf8UjDiNz3ThR+2Q4RCFoVJd8uUYJAaG1XcaKEbBLbzjaTBziHIuWbyBH7C9IPc5HFL35hd+TXXI1Ismvo2wakhgxncyo4ITNt8lWAy8oxv4mq91bTw1f0R06DNMNZklyFiTXyjigvILdkUfphPrKSz2rHf/OF5WnWuHnUoHu0oFtVuRROd4bdwaA7dGjd1KRfPtL8ptuuDAZN2dEARzjw611wFaKqok8kc0IUxIiSYNvB8sV8ZLEQj8N7XGR5rAKg6VFFy2SlFXbWNKPz/HLFmC0omqCLjGQTXuKGyTPmgpNZPrcOhkDpnrZo+TTMSVY8xCdFVjdj7UZHZfjASp8h52UuwHhacmkHcIT1AiRkWoHGSgYxXMWQjK0tuByem0/OSVYptp6RFFlbcmoZyxyjqgnRQ+lVLnccq6qEbqIL4AjrD5g8k8oFmyIGpAzNrhHycdBv7oaNalV7Aj8xzEmWdMn5YXpFPEzsJdXozlsczrSREz+vO8mSTXKJFWhzoheqVFVxBfhussrMHBHNsJ3Q6A46bSkn8Fus/glZ3HJrViUrHHP+plkNGkxwSm0aQYPf5+CSWS+Ggc6sS3dkoBzgxgZXM+AeebjDYZtJ/CFqcGOFCtyGu3V8A0wUuW0Oe6YqFFk/Z5YGF7SyflrPaMmOa+q66VrWiG1cR3M+0hBB23Us17Ucc9jyMj+h2hrCLpZlaUfwChUEaCiDXXjUZU6HT+3Gciiv2SWAitbohOEid4fNBLdXa9ov64WdSrdbacU2X/EFhX+w8WorhKuCiyxN/SuYN8Zh4KKVucDNkqsI7oGsmZWsBPD2B3OhNd+VwwG/N3eOJ3uwQLIWvFK1WujxKmueX07FUim1IPh14tXk5PTs5NzmuJprGz6uSKXLpF8lzmqKCjQGn+rM9ZO8uOyULsB/lVhLV/3meRYR7yTSGgsb30ohRdZ8T2lvyQ2I3NKO1UaKLPGfIqYjSVZtcc/mf/mIk6XY+f2uxFcInizFvhW/yjgLZzbamgt32NSOv2iz8l7cvX7//vXdh8VtqOxd3RaB0Coeo+cdv1y8+M81ws719Xc/L3DjWwn+ps/iLv+v4A7StLOz8x3ExsYXXwJaJIyd6w+AMMrVxu/LHtAqw7jekaTqNeVq437ZA1plAMt67f28Q7kSZM2CsbNzfX8dcSXImgXjFwJC1m/LHtDKwuAe1Y7Ienh487DEMa0oXu9ggXWPsEHJWn98fFwXdMXxC1RXkb7aiMj6dX19/fnzi2UPb6XwOpMrStbm38se30ohmytM1vPnzzeFaTF8uM7kCih4SNXzzcc3yx7hCuEum6vfXjw8IrI2f1j2CFcI7xlZcC78DWPjTvoDUSXI4vGeUPXd/c93Lyg+SBcfHwVZKbynXL2QHv78keKP9U3C1Y0giwGTtXH/Wvrxv+sRnhOqBFkx3F2j2H5f/TPBlSArjQ/3pNb363qWYW3eiISHwzXSDL+Xsrna/GvZ41sp3N0nyeKo2rz537LHt1r45T5GFm9WNzcflz26FYPxHsjRjYisnzj8LXKdTFxQsi4Ilj2gVcZFIl7dLHtAq4yILEDU4+aNIGsWLrjg/oP05kaQNQMXjKsbEK+EZc3EHyzH+fvh483mssez2vj1kdNXIsv5BP730+bj4w3EXx+FcvgkLh4e3rx58yCYEhAQEBAQEBAQEBAQEBAQEBAQEBAQEBAQEBAQEBAQEPhq8H9aZqRIlu8k9QAAAABJRU5ErkJggg==;" parent="1" vertex="1">
          <mxGeometry x="-870" y="292.79999999999995" width="120" height="67.2" as="geometry" />
        </mxCell>
        <mxCell id="SkUb1cnuTnNj_XQBZiCX-30" value="&lt;font style=&quot;font-size: 50px;&quot;&gt;Short version below&amp;nbsp;&lt;br&gt;Full process on the right&lt;/font&gt;" style="shape=callout;whiteSpace=wrap;html=1;perimeter=calloutPerimeter;rounded=1;shadow=1;" parent="1" vertex="1">
          <mxGeometry x="-890" y="-17.5" width="505" height="250" as="geometry" />
        </mxCell>
        <mxCell id="SkUb1cnuTnNj_XQBZiCX-3" style="edgeStyle=orthogonalEdgeStyle;orthogonalLoop=1;jettySize=auto;html=1;curved=1;" parent="1" source="R17QDRCtGJXxGDcpWK7t-1" target="R17QDRCtGJXxGDcpWK7t-2" edge="1">
          <mxGeometry relative="1" as="geometry" />
        </mxCell>
        <mxCell id="R17QDRCtGJXxGDcpWK7t-1" value="" style="aspect=fixed;html=1;points=[];align=center;image;fontSize=12;image=img/lib/azure2/analytics/Azure_Databricks.svg;" parent="1" vertex="1">
          <mxGeometry x="131.79000000000002" y="179" width="118.21" height="128" as="geometry" />
        </mxCell>
        <mxCell id="SkUb1cnuTnNj_XQBZiCX-4" style="edgeStyle=orthogonalEdgeStyle;rounded=0;orthogonalLoop=1;jettySize=auto;html=1;" parent="1" source="R17QDRCtGJXxGDcpWK7t-2" target="R17QDRCtGJXxGDcpWK7t-4" edge="1">
          <mxGeometry relative="1" as="geometry" />
        </mxCell>
        <mxCell id="R17QDRCtGJXxGDcpWK7t-2" value="" style="shape=image;verticalLabelPosition=bottom;labelBackgroundColor=default;verticalAlign=top;aspect=fixed;imageAspect=0;image=https://upload.wikimedia.org/wikipedia/commons/thumb/c/c3/Python-logo-notext.svg/1869px-Python-logo-notext.svg.png;" parent="1" vertex="1">
          <mxGeometry x="340" y="307" width="137.02" height="150" as="geometry" />
        </mxCell>
        <mxCell id="R17QDRCtGJXxGDcpWK7t-3" value="" style="aspect=fixed;html=1;points=[];align=center;image;fontSize=12;image=img/lib/azure2/analytics/Azure_Databricks.svg;" parent="1" vertex="1">
          <mxGeometry x="760.01" y="767" width="118.21" height="128" as="geometry" />
        </mxCell>
        <mxCell id="SkUb1cnuTnNj_XQBZiCX-6" style="edgeStyle=orthogonalEdgeStyle;rounded=0;orthogonalLoop=1;jettySize=auto;html=1;" parent="1" source="R17QDRCtGJXxGDcpWK7t-4" target="R17QDRCtGJXxGDcpWK7t-9" edge="1">
          <mxGeometry relative="1" as="geometry" />
        </mxCell>
        <mxCell id="R17QDRCtGJXxGDcpWK7t-4" value="CLI" style="sketch=0;outlineConnect=0;fontColor=#232F3E;gradientColor=none;strokeColor=#ffffff;fillColor=#232F3E;dashed=0;verticalLabelPosition=middle;verticalAlign=bottom;align=center;html=1;whiteSpace=wrap;fontSize=10;fontStyle=1;spacing=3;shape=mxgraph.aws4.productIcon;prIcon=mxgraph.aws4.command_line_interface;" parent="1" vertex="1">
          <mxGeometry x="300" y="465" width="80" height="120" as="geometry" />
        </mxCell>
        <mxCell id="R17QDRCtGJXxGDcpWK7t-5" value="" style="html=1;verticalLabelPosition=bottom;align=center;labelBackgroundColor=#ffffff;verticalAlign=top;strokeWidth=2;strokeColor=#0080F0;shadow=0;dashed=0;shape=mxgraph.ios7.icons.clock;" parent="1" vertex="1">
          <mxGeometry x="-295" y="202.5" width="30" height="30" as="geometry" />
        </mxCell>
        <mxCell id="R17QDRCtGJXxGDcpWK7t-6" value="" style="html=1;verticalLabelPosition=bottom;align=center;labelBackgroundColor=#ffffff;verticalAlign=top;strokeWidth=2;strokeColor=#0080F0;shadow=0;dashed=0;shape=mxgraph.ios7.icons.clock;" parent="1" vertex="1">
          <mxGeometry x="310" y="300" width="30" height="30" as="geometry" />
        </mxCell>
        <mxCell id="R17QDRCtGJXxGDcpWK7t-7" value="" style="html=1;verticalLabelPosition=bottom;align=center;labelBackgroundColor=#ffffff;verticalAlign=top;strokeWidth=2;strokeColor=#0080F0;shadow=0;dashed=0;shape=mxgraph.ios7.icons.clock;" parent="1" vertex="1">
          <mxGeometry x="848.22" y="750" width="30" height="30" as="geometry" />
        </mxCell>
        <mxCell id="SkUb1cnuTnNj_XQBZiCX-8" style="edgeStyle=orthogonalEdgeStyle;rounded=0;orthogonalLoop=1;jettySize=auto;html=1;" parent="1" source="R17QDRCtGJXxGDcpWK7t-8" target="R17QDRCtGJXxGDcpWK7t-20" edge="1">
          <mxGeometry relative="1" as="geometry" />
        </mxCell>
        <mxCell id="R17QDRCtGJXxGDcpWK7t-8" value="" style="shape=image;verticalLabelPosition=bottom;labelBackgroundColor=default;verticalAlign=top;aspect=fixed;imageAspect=0;image=data:image/png,iVBORw0KGgoAAAANSUhEUgAAAOEAAADhCAMAAAAJbSJIAAAAulBMVEX///9/NbIyf+99MbF6Ka97LLB9MLF1Gq13Ia58LbB2Ha14JK50FqzG2Pp6KrAUde6BLq78+v3t5fTq4PLh0+zI2vrU4vvk2O718PkZdu7WxOWzj9CidMalecjTv+O4l9OdbMMoe++RVryJR7iuh826mtQshPPy7PeLS7nczOn59fvBpdiDrfR9qPSUXL6FP7XKst6aZsGrgsvHr9xzWchclfGTt/VonPKCcdGpruiOh9qZld7u9P5CiPD1xKwGAAAR+klEQVR4nN1daYPiNhLF40uWHRIDCQzmGo5pjl1o6Gz2Sv7/31pDX4CfVCUhwybvYx/Gj5LqVqnRqB3rdqf/vCjmg/1055XY7WbT/WA+3oxW7XVe/+fXiafV5rDdiVikaRAmke99wI+SMEiFlN5yuOm3Hv2iNuj1i21JLQgjTwvfDwMRy20x+jPR7I3mMyECgtsFojCV3uTlT8GyM55mIvRpUlVxJmk2O/TXj2agQ746JDKwYffBMhRi/9x7NBEFOoemtBLeFaI0noweTaaK1tiX4e3s3pCIdN5+NKUL9Pdx4IzeK8J4+fxoWu9YbyJhoje58FM5fno0uRJPRZDWQO8VgTg82oC0BlmzNn5HhNngkRvyaehQu6iQxINHyXFdxPXzO3HMDg/Zj5vUtfpUIxD393T6Xn36BSDr3Jnf0z524LzwES7vTHAjknvyKwneN1DuzqwWqB+FYfCKZpiYLAEtwZ+//ON3xwTHhgs0apaxvEi95f5QjBclxkVxmEy900+bDKpagj/8+O3rb075tQwEWAZ8MvP2xcuqhVRhr7V6LiazWARamgTBL1++/c0lwZeY64GW7JLJZkWHeuvOZhDJVLWzwxlB0CnDfCJ5wgtkOngx8bZaz8MmjJ1JCTpl2PY4PkxJb7mwMV/dxVKmVyQZBB0yHDFUjN+Mdwt7N7K12cXNs0/hEHTHsMhofiIsbo0EusVntJlwCDpjOBEUv6SMyl1Y5nw0zU56J5lpvNEPgo4Y9maUmx3Gk66LTzqhOyjDFtYSdcWw7RNuWpg5DsZb83iq82Q+CX758v32j+tIvY4J4zsHcBcES4p/f8Nvlg5cP9MSjOLhnQPUHy4Jlgv1DV//afW8Z70SlVN3+4+Hn68JfuIPm+fpCQbJ3dPTFQl+4sefLZ6nJehn87uXOHUEf7B43khHMF3eP9PnmuBKQ9DPxs7fn4Rrgh0NwWD2gFSta4Jtja8dD52/Pg3XBHuRkqAvH1EYck2wMVPG86H3iGKCc4ITpbOdbh/RBuOc4FyZcornrl+eA+cEn2MVwWzj+uU5cE6wrSLoxw/pInBOMPdUavTuNZITnBNsTBRZNT+9dyBxgnuCL4q8qJ8+pOTsnqByE/5VCDZmeBP62V9kiTYKhSWMbZVM3uq/FMP90ktllonE200n8xduV2kNBFUBRWZlJnqjYhlIkQZnHbTH/tlUyOZ23CcrNzUQbCgMRWxh6DvjZSaaSv89CkS2LLQrow6CY7xGRWH6oNUhZbRi+oEMDqt7EmxhQxHuDR9TePxuolB6C5iQrINgYwpDJn9nFE109plhs02QTaqr1XVW7YQRFqE0ydmvprFFr0YST68Way0SzPGrmXjbnSm7En6FKL5ILtciQYWaCfg5md7Qlt8rx8nHfrSUYK5vHejBNerP2AQ3tzYrJvGCJqiR4HqWCR3FA3y/jOuNtpdkGZVGuusQBHUSnCVecNC8IfRm0gWT4CJz0gztZ4U1weVRj2RqtbhHeiZids09TR0I8BXyX98sJXhag8lE9Qc4aGKu0U7grJvvp1+V/AgJvm2yWPXKE/SOAc9b2+irqGYEv1spmTcJemohttAu9D2WM3PgNUvdTJAjQU+5E4dIkcZ9DsGtu4ZhawmeEfRCqE6fkBiiLYNfPnXX8e1CgiWgTSzQayr3rPrhSkRJMwiCNAiaidKqOJFgiQBYuBwpUiztK0xpgkkgxG46LBabEotiOPWEQLrXWoKz63eQ1T96QVspZrSRbMluKSGrjaa91WYixNV7OVqiR4hqrDAF2r7JKMEM9Uomkd5cGcGv5p48k6QtQfQlR9PrP4LWPqNFONY6MkE2UNJ7Izn4iJWtCTbQu1c0yBisNcYu1LZqBMGCcdRlPX49fGOrZBpYSVbWHypo0/5aW2PoQzlmZj7W4yy8QYLY0PnNy79ZgcWmdmA/oKxQeX48NDiq9DSQGoLfyIgeOSvy0lcZANVNp7iHSjUa7AwLAP9WRxNf/kP+Nwr7ksH5X+RAhHRkP1KXiU3r4D9/VfL7/isj2Y4yhOJ8k/QBw5TqJ+mp7IQPjJEemoD3+68/+SmZ+x8BAhdvMQSLNKD2kaqKGnqm7cKadsqSYPnECfWEHGjK5Cx/ltuYir5ijQa67mUIvQSPz6QjnAIcRw4+X2QFtG1MqQqFHk0N0/+0BL1jyp16CNI14tPbAF+A7xGP3OBdmE5MCdISPD6WLHyBqm441/0WhR/nWGNbHxhLkEWwtN/U0t9Ud9qnNXgCEpaEPwOjSS8xPs3KI1h+dVQvK6qZffjVz9UFRxnDHnS4/cj0yDWXYPmVU48GC/HD4AFbQX1lyFHnZQQuwFAyH29E5aXBK33Yi131XaXeY4MJAU+8GBLkS/C4Poid2EWa4fVXyDNP9U+DCYHEVMsYSPD4/VE+FlhW8nUjAo8nIcppsOGG9q0uoZHglypB2k8G0cOb4wbUIuGTdtEiNV2jGgl+/S9MGhE+CFhYb+oE+OVEURuFY76hodAQLCN6tEgoPxLYi7d0b1UgfqJ/FjIVhg1TmnDpGNEjP5LUNcD7jk/UqwyJ6B7FWoZqRifBU8piiwI+wv8GlaW4hd830HuBKNYiHfVLgnoJlliBrU4tU+C4nZzvRfXnUp8CBCMQzHYhKcEGjtqb2qeiZNNJVkDJZlq93wF7xCiq5xCEUbvULxTgX4dHs4eS3doHAaH7kWuCUJ0Ru6dR/Q//mPquRrKRXmuA9dM0aOtjEkRmmnixxh6sbBjo6QvbObDGBnqGSxC6FcRGnFfttFijtHWq9U6Ah2uwSNkEYUBABC/AqynNBVBAersDHhOy06O0mfgEkEiqV2hAO5XmYlR9YX18D/qmKFP8SdCklQu8L9EYgtbjCJpJrbEA3ob+H84IGkiw0ehVlT+hakAcWKrfAqwF7WOq5pPO9b0RNGzGq3yQR9gxYGGCRWMOXDDdQ9bVb/ayBmJFEJbPgC9CJOKr/xAWjUll0ek9MLDWKUNsSRD6k/qqdDXoSg6NraHBR7qX47KZLtESSAnqDW9VR5Rkqk6bPoVh/rG2BJEDTGjt6rou3bZl5Sl664asKt3Q8LtNx+9T1ash0ivAkk2B56B3MsHmyOhi0y9KO6FpQgAFSr27BZyEUqlUHkJkg9H2JwmqGWp7tqsSIZQaKDHtXDAkkqs6hto2krzqWxCZbxCPQIbapwCGhMevYUj0yVQDO8JtQ8UGFzIUtgy/6gmC49ZEPQUyrGoa/fcEGMaWDKmTL+arlMlQr0uBp26pSwkJYl1qoWlmlZ/p7SEoNsZ07wVgSJ9dAqECYQ+BtZgZ+zQgvcrwaaoMGYezQDaBcBCrFr/0afaGfmmnypCIvCFDzukzFLLrawfVVJS/bwxMY4uqK0WWZ6sMWcfrwJYnSkbLqrgGxvFhbhUf/nLpl5JK5gRQPSBqlFUqpVIZg7SL4VM4Mf4fP379BPOA5K4iEd/X/0d1WYdjuBS0XxRIu3LyNL+cgTe/EeVp9Mc/wPHJ0pFF8Z52saO0KzfXZgSgtYncOqiRlloQxeza0hMwiPx8qQlQvlRvDjGXO+e8DVDdhlT1AETnso3qFqG+bgF8P7P6KA+obkHEafOq0ybXjdy/c+2JC4vaE8gbHi1f1Up6eu2P6oeEFreBu/rh/WvALFjUgIF5OfnYKKTV1/HBRjTtpqGB6vjENlTV8YFBtOnFIM43mQL1YlC9aKjIdLTUwFwQjiZaQKzDpgaABygs+2ka1dVLKA50/sSxEGFPVGLeE/Wa6ATNGDZ9bfzhGQy47Wsz9446LnoTddjAVUK4FcCdfEuqIUeT2NPAoeJXgmk8IYJkjKbuLwXSpZoT4WGLxJmygfM5iJJFowFOzbyXG8HpF2JFgED/+I05GmwK16gfEnoGOSLvYgdalkq94OMWbqYOwl1+W68+CDooH0Vx3sJ3cMWdYgK1pNLOuvMWaOQHNdzL1ZmZCnI8gZo8M4OOJH+eRQeqkTz3hE+pN2/WNlt8qjGgRIgink/tCywiqZsVZ9fMj3ZdQjFimz67BqR0FrWik9xk2A5t4q0U9/h7I88KwozA2cEf1FBJZpeUZ0jtx5krx8DYnSE9r9wCd4DOLg1U54B3ltcGtT3FqKmQTKrnoPf8Itgij0IjrK8vSXtHZBfxj1Q3EvnkoWtM4Fzw6ERodTpI5bHuzuOXOCifxpjaCJJNXnqxW9BMBdpD0c1UMJw53Nmpn0UXfpCeuYoe0DEYKsDQTW43nIvRG6qHoXFGpyIBXSebkAEnGgEb1GyTBVOp5mPd5dCMiXjgYFO5ea/+CM2EDOjdpL9KKOLMp8kXkW4OU8a4DAW+/HWSGh4p1OdNTyh0M4b8IBsSm7kzzLTTlAXjPiJ0Fh20TyBtxJkoONDPiQrjnXqcdYccpxxM6DdA5QqU+wO5DM5OpGd9+U0pJy8dNOtLgle7JMhx5EGTJrbmcF4bZ7wuZ15bKqR3Pq9th+e1XX88a4gIzPxd65kjbpi5xxoq6PuMmXsX4E1JgVPKYCwC5yayjobm5FA6KzBdeHTa1EuhEkflCGYqe+9s/OwnxITzydh1VARGcIowHZmdMFc6lbZgXrmUQ1OjGqWH05S8C/I29G3BJvC5Vy5B7aFUkNDq6yYrn6MTOpsjfNS9TMcdT69Wp9HwLGgyinpFb+tsM6ZTboEA+Sm6gBl/I+xU9uaWgfOfMLg5Eg/J1w20RFEIe52WPr6Lkd7pjJ0570KJaAMGFIbwZ5aXeLkeumqKj7n6DOQ43Se0Ac0c2u6U3y7j7m4EGjjFQKRW1ziUyQxa87q33G9hkvvAt/uRBvwZ7yRhci/1auvmjhI9FBeL0anVJRSAwVY8wtE9MzoockQMR1rx1bBC0TMY3hXkj00vL1dUcDgX4mBlw0onXMLFfU/qt1QMNWRpYsUeii16LVh3dtk04mzwSot4LS+o4eqIzKonSHHvWpN77xqEKsXHHYl3UGgJznlfiMu780JvNp0U7LvzAFS3hQuut6BMZRvda1UfVJf7GSh83A1xTLWYarw60FXVqDiZwXeo7niMosdThPMRjzC7xneqUKhR9OiF2lWFLwYXix3RU7kkD7pN9gMqJeNFzPEj9JN84oBcvVBXgsy14Ea13H1ONagmLJQETaKfdwyUvnNs7MA5gvrOJXOf8giVtmEnax0jnyrLXKZxwRvWoIPj/Ymz+1sNZS/KDe10mhp2lDo+fUDiOVZX+j3rlkilQn29wu+OyIeasoG4wUY/a3L16fJ+K7Wr7kUp1ehN5utFQzGyiRitMNZdzHfrQQ9FqPkKub2HD9ed6VoFbAzhJRY6ihG3RGSPfK69WdHuOvRLaCl66a5epdrXNts4kOARalfpCD8zSVMbojPVV15dHbYiqp+JLJydlrlAa0Jkz2/ToucYEZeMBnLs4BjCFZ4OmT5z7jTKWakSBx8c47FbObbmGZFQToyvJNKiHVGViEAc3MXGqwnFzwuWjpfNmm4LCrOtE822ftlJsrIjbjz1gDCg67uR8Ma3CrJzSFX942eoxyvWW403BNlyY78/2uOdrpn2Hb50fjj+Fasmpyzop3K5sJBkvip2jErO8Vv0asuG9dRR9iXJIPbmIxNHoLvZS00J5wLxwPrICgNjdutTKKQ3fOnQCq/VH2+bMuBWxiNZcyJsFRk0WySpjHeT8fOqhYj2Wv2X+T6JBZudd4xKaw9n8oE6nYDgJ0EqpEh32+G8WJQYF/P5cLv0hCx/Gpo1NUSS34tyA0aBTTupHyVhcEIzDBN8TpSCqF+Ar8gPZmJ0hNDVSWoOurMaWmb18ONJPRGMCpu0ls5nJUTNkTbA+mDTFmSJgD4lWwfa+8xJtyWJMC7qtPE6dKzau0z5ycEjC8/dPRnI3YZmdnh01bk9FLXpHD9N549vHGg0nsZS1LEhI5Fu3Kd/LPE85YR1JijDk21NQaAluodUuNM6oQzHj95+AP1J7IKknwibZsX7YD0apCK8xWf1AxkOR4+yfizkq8MuS9X1cR27MM1m40f2srDReh54MjWSZRQIuTsYJT4ejdZovsykCJLq8NBLwZURsojltvhTsXtH3h5tBkvvGMsH4eW50VM8XMb+0l8ONjd0mv5fIF+3V8+bYj6ZznZv1xTsltvJvNiMVt1e/UrlfysHbtIsZSvgAAAAAElFTkSuQmCC;" parent="1" vertex="1">
          <mxGeometry x="300" y="790" width="105" height="105" as="geometry" />
        </mxCell>
        <mxCell id="SkUb1cnuTnNj_XQBZiCX-7" style="edgeStyle=orthogonalEdgeStyle;rounded=0;orthogonalLoop=1;jettySize=auto;html=1;" parent="1" source="R17QDRCtGJXxGDcpWK7t-9" target="R17QDRCtGJXxGDcpWK7t-8" edge="1">
          <mxGeometry relative="1" as="geometry" />
        </mxCell>
        <mxCell id="R17QDRCtGJXxGDcpWK7t-9" value="CMD Batch Script" style="sketch=0;outlineConnect=0;fontColor=#232F3E;gradientColor=none;strokeColor=#ffffff;fillColor=#232F3E;dashed=0;verticalLabelPosition=middle;verticalAlign=bottom;align=center;html=1;whiteSpace=wrap;fontSize=10;fontStyle=1;spacing=3;shape=mxgraph.aws4.productIcon;prIcon=mxgraph.aws4.command_line_interface;" parent="1" vertex="1">
          <mxGeometry x="300" y="630" width="80" height="120" as="geometry" />
        </mxCell>
        <mxCell id="SkUb1cnuTnNj_XQBZiCX-2" style="edgeStyle=orthogonalEdgeStyle;orthogonalLoop=1;jettySize=auto;html=1;curved=1;strokeColor=#000099;" parent="1" source="R17QDRCtGJXxGDcpWK7t-11" target="R17QDRCtGJXxGDcpWK7t-1" edge="1">
          <mxGeometry relative="1" as="geometry" />
        </mxCell>
        <mxCell id="R17QDRCtGJXxGDcpWK7t-11" value="" style="shape=image;verticalLabelPosition=bottom;labelBackgroundColor=default;verticalAlign=top;aspect=fixed;imageAspect=0;image=data:image/png,iVBORw0KGgoAAAANSUhEUgAAAO0AAADVCAMAAACMuod9AAABblBMVEX////97iEAAAD89qD/9yL/9SL/8iL/8yL/9iL/9zv/8CB0bQb89qT//6f//Nn/9i/56gBtZwdOSgpoYgj/+AD//ev/+Yn//eGypwDIwDf//6jt3x/05QD/+87/+Hz/+qL19fXS0tKUixPl5eWIgBKnnQD89ZZBQUH8832/v7/98FH89Y7IvBrXyhzOxjnU1NT88m69shlZVAzczx18fHyioqL98EijmRVDPwmTk5Pw6pjs7Ozm2R5kZGScnJwhISFUVFQ0MQceHATW0YiwsLCCehEyMjJ5dk398V6FhYVra2tUTwsQDwInJhknJQXQy4QxLgYZGRm4sTOooS6no2qOilpvbEa4tHVLSTByb0ibkhSalCpJSUn/+8IeHRM6OCVbWTra0FFFQywAABKUkFOln0d7el6LiF4WFQMdHiNsaDTg1TuAeyVpZR0nJhCupj3f3sV9eDexrGDQyXVNTDxFQx//+re6uKignXXHv2DfQGUSAAAcgklEQVR4nN2d+1/aSLvASUgCjFAjWCumFUTQIhcFFKilrfdaZbX1Ulvt7e32PW1X2z3n7G7POf/9mUsuk2QCiSS42+eHfiqXkG/mmec2TyahkGdZ4XceLT/emnno/av/PFnjdZlf3lq86dMJVB7yVtlZ3pq96bMKSBZtsET2tn5CvZ4hbE8PVxPhzbPTD6YxfvCTaTWGfXcSTmTC4XAmk0hkVs+e/kIRL8/c9Cn6Jxj2FKPqApEh8bufD5jAToVtgohPXum8Lx7/BHMYG6inDFiVmAZ+9E+fwrOI4kPCAVYDfq/xvvlH82YRQrcHqwq8eapP4Js+5QHkCQLYzPTDhbyZs48q78pNn/R15Q06+7Neemwa4Ncq74PsTZ/4dWQPnfrLqbgrWjyDNYV+lr3pc/csD9B5H0SaS6V43CVxInyizd+s6995uDgzszh7w/5rC591R+KADBaW5lwCJzKeeBdXHhkhyvze46KbLwUgRXwCNZFDAoDM7d4PuyLO6Lz99HlmmbfLm5uIykgmkBM4XSAxVmov+vyg1y/s4I/Uc4VauZCro/+/w/N+fuhOm8CmKFhC7HKIE2HNXj12+gWswamyJIgRSYqIAiiP8PzJ1Obp+6E7baLGdZGzCwCg6WIWJ1Y1f1Rk/QCO0XKKIBkHlqJcoT4Ho+/P8K1hDu9jZ1hVp2O7fXU6sakmwo+yth9AV7OuRAE5XgzaQfyfSBTMwS+eDDVGIWZyJOoAq+v0RG+dziQO1fhqy/ID6Gq2BKAda2GutNSUyWFjcRV3ONqcJQMLz6YXLAEGC70ncSZxRnLgN6Ya1jP4SsVk/5bi8RLhBbsa7qNA8Gb2dt6sPMxCzuzszGOttljpC0vOEzSnMz2AdXf0zPhBGKIdKBHTceQmvGr38WDL9xHuaUC4lHc3ZIyLMOmYwHJP4IzmjjR1hsF3m5OsR+HC4fhcDPHKc2jSfw5EmXdYsGljTrkjhsDOKq25oyfIOj+EaVVbsh8e4YbjC/gNdKDEy17u65qyxoLlkw1RcD24OjCcw068arqwM4OMcRuwriXB/RccdLCAjpP56OS9ri0kFl7fTybXv5iB6wVOsKpbH14AjZbTABvpEXNk8feb8XDmDAU08jQ+Shd+2NcKPf75fUEVUelUarnUhjZ5Kx55kZV29MOJ1afksBsNBwOIzPEqfy6oUzezirTfR9hn+FpTOgtgDBcVuMrkSBcPei3qUaGRH3aKtBKrLwlvXmIfVZ6IJ37hK+hNPHUPfbVUeHWny9kVC8WtndZzNBDeeVWbxeTVwquagxnErofTpi72Q75NXVybaDhoKxCFRh6+f1Dzqs8YeGGCNcAZjbeuMGPw3fgmyUXI1E2g6m3WH1gcmRd6xIeSCGpJqM+e5y+naTSL95AsqkyyhlcuTcGrUY6g/+GPww++8YcWDW29T8gkCR04wPWORwesAjdZNjqTIea5zopgYmhwefxf/Fk0dX1JEPCsVfpSAJiIPedHmJrXn5fbZQxwYhPbQL5sv9Ty0hQMvUYE09T1o2SFDHLLFUNEqNT5cwdD2heYMcCZMLHOuajtYoPwFAwaK5IaMIcTMLlf84EW/toXtwCSoOT5yaj36cuRGWwz0QkSPCftAfNCHNqm52jUge51By9VrSBL4X64gMi19iv2sXD3ZbBgDToSm8QXNaxWEponCFjAShdXr8vgMQaMzrvedDMi1nKdaw0vS6Ezq+9V12v9bDxzRgyVOnV/GdxQoZXKc6+WRxIrZYX8t4niYm/A3FLGzEtc77kFFzrdqVd8Dp0bnroZpAUD0i67Msj2UwYqLbe7NL3AyZ6IgQyjaFqbSeS8bcGFASQExAfGUxd9rFep1oW48LX9uGNL4TmPxFChad4E8bw5i46BORhjlPGcicXVGGMg2BlvNsrp3JHxmZve9UAMiGNRZYrgWj/TjB/yBXx2eplqoMF9fD1Ftp878i6Q+P5uzC2xvETjfsZhhsX2wQCS3yYDTspU3cHCZRQ19qygegBGA4xWASd2m7LsgtiEm0CmKm9V5ebU5wN1nqGpi4z0s/5QjjIP/c9A09bEGyMZHiJeaoK+g2zCRdFD23oqcmlTU2+iy92B4scXMJXzixadkl6zgINcWmr2mcg0Lh5c2/GaU79WVPVuIi90MlBez/tLiwdYiw8zU1NTpemFURFKBIok2SpRauUJfxq504o1aJFLn7VoQNZ87vUHl/dRk3VggFP41bPTly9fPn36+fT006d//348WatUFBhpR0UKGvpUfXDfM+IcsLC5r9oVUqTiBzHLqFnmOjlcH16Y4UGNnkK9ny/1Jioi66lcrRPREws1Ww8TE2R3/fLcO5H6ZGKgihzqllGsv+ATMFrSJs2fm2efXn80MY9V9GtsRJAs/wB2/6NDVEGeUGmvH2EssyaLv8CIg0Afnrw0GkDLKi4qHxsBZMdm1KTDGjk/cF8Np65Pu+I6lb8uMLXemcEtr2p5ldfSKOxaNDtlj+vAUi6i02IrdX2jvDhwnNwfGDSX9MmJym/hs1ekpKuKHkNO/aJFTrRI/6ZoTwYrPqLfDUiTDWBgOFY4vNAxbSLTNaZdZWxtw5iF4Q6ltKrJcN4mXg8WTO0FOHEpXlVbM4lDqMjvX552zWFxXI+nnE0mslIolhpkSWiGkWkFQEuW66bO6MZ8fkOzwNrFSLyyJQYUbQlfjvkBYHHs+CVwWqzJWr3ckIJmk9SpC1XZ+cpDfUfT1tq74U22GJmWv4JrUZDl7ORwc/PwjHJDXR0NZFRVtiUGNC2KpbMD0YZYuYd/pChuVtf6Mqok0P01pDhT0wZX9boQx/FQKE4evKYc4OACp445iIwrq+v6ZSZWG6qq86ngGuTAS307MA8KZuYuTN+fKM2F46xO38xq1+QOiBtadZ64sXji48BFR7LGd+5PAcMqAGqyDLjm7v2SbYxx9Z9qPcO6nPjoOKua8VVfuokeUHFcYNDA1viKF+6MD2Fdhqp81+EYC6hU58eaNdTlduBeCAXN5vYTVFilAmOsy6tOExfsTr3zQZFDZFEzH2i0bADThfPMO5M7wL2NL0bYJwKWNv1Z5SO9pLXgR5cAGytBKKWh6rtIl+F4N5j1bTDx2beO1sCnLi0yp2U9iZem4gwKl+Bk7rCuu1zi/WubesTuqgmKN6bpsznricVxpZWxWM9FfFj0MmTe3DEVtMgLYXVVlm7mAUtxVIzj86JNz8TPvnazPgk6rzcLAGqHwTbt6uW5qaeTlfwXu2WOffW1ER3dmWi7XSJIkVEaCGMME1czfnYuiIJStiS6oMH70YlgCPJDDuY/GAHcHDTCJwV6AoGl1TFkpKxDG5kcrEZjl+yw3K4uqHieODeRyXO/saJY8dxPI3VTuEvx+LRseil2wvqgmPMrtjDj5oaOa34FXFYYnhDRDtiG8DfBvW8eXIlJ2/K7Ax3J0EJmXSCui09JNZ8b0InMDh/3/oTc90NSIxBaUnMdLm6p6eJTPL+TDQAXFaoKQ8Xl7veP0IUkz78I4sbrZWoJbjjS7D+40OFuB6PM6FYoH/qK3AvoTwsn7ng7kFtUZ4NY+ZMi4kAXUOCFlu/xFJYH/q6FAUkUpEYhxXKkrkXMixU+gBAjhFeHfMqHJDEqdGr5Ns/bG4S8SQcoG36nBkSKvsxcOKSRSiulLfsMugADlCve/1sYkewM2qEAoPJWzvfpJb1BV06BkoZHeREAbZFepPEsUH07rbpl/XLg1SagVPd9zuk12bmuKoOIwJW3u1ZUT1PD4e5NJX0MD7MXAO3WtVRZEkWllmKQInGz1gQnAOAUhd2QoKSr68HYqZB3qwJRK/kNB1R3hwPKGOLh3yVzFcbb6epFQE7omUdVjgiN/BdHVChjLsY2CqNh/ttxVZEYoQjg0unqRjCDCwOqlusCsyTcba33QuXtvdasw8D44VsasjIvs1JNk8ENYg+MedeqLAmVMRWpXlD2HWhdmAHxir+oNpx6mjuX6eMr5HKDSA62WG2HNsEmuK2i1jghEm050Lq5W+M7UmLHnwJcp3r8jQ9mCwyofH2mGrSgSkHzq+rmOrjOzZJaX1pQuaj2XowCEneJjhVAKrTXO7KFcWHnvK2xXHCaXREdbFWtb3AhVav974zlkC6v+U87g+4VdfjNSBR6m++YYq34hP8cH9XPU8xfl5ZL9/0EvCR4cAMIqGAmpGjbQgjRqIg2vJLwnlfKpGqW5ley2a/fN6emjUFBhvVamgwa7lweGtzBGgCZgrqX20ks+/v11HZuslxpVMq17QNy/niX6EX+aSJjKpKKbNr+VsodrHTZDWZwHewNHtQH5PegWz7LhE01UgdVdu+9+8lFMIMbmlnZe/PCeto79PbuMHs4zajb6GgXn63KvrXKSpcHwQyuKtmHszPFLSjFmUWzZ0c1nZeJsFkFo99ZtC5iKSLIBMLMAAYt9iV6/L6CUqG1wGgdBe+V8Qtto5Dg5UebuImTOXxvfkHdI6c9Msn+TBU5vuzQafF+tHy8aaYFCot2300cKqF9FzRJHrMzP1BFlmHo2z2SHRD5TavCCba6Be+uFiI0ktQ32jBmZl6SKlJl/5f8+oh6Vr9bra1UZg1uf1plm09+o8oe6UsLLVBpj26AdkU9qRGb/RFZlZr+Q8spnWq1y++8Ub9xUTVrTadBPpVOW2izW3uB7/yoYdjva2HaKRcZFQfSVexbyD51VxZacJRst5Mw2zfTFvEWfjvBwq7oHDZjwrRTbmqOkPZLNqRu8MVfXEZMVwh0SM0rT9NuPVGPH0TAYYjBYQ/4hTHeJm6qejAN2ocePUs2GV6/OjKlu5Gj4hbS8i6ixeGFtskmliD39SwaP2O/IU1iZbluxraRzq1ggu7zv/5qJ+tXZWp05f/UL/KLF9nQ7Ja6C2WuolS+8EHGV/SuiN/tgYOQ5G3iYmkJdNLrfCp/nL7swGgKiFE6nJIqWeOpPUZAm5dEKcIhMx3ECiAR07OCGHeSspxQqu/2RdLR1XH1UgESYOwIo4xtZdXdGA2pNwRU0UgrKHgOzCut0D/JmJLCcwbuutI7fASdo2rHeeebSEdLr5L57e1cLpcvKEIEKJcXV5LyLUjaNyYKu45Gagxanj+XetkqCcYTbFRJAREhGhW4MqLiy1yF7D3JKZfVi1/HoqCD8sCgJm7WDMHwpVF2fapbYFXGtaF1aoAXkRloj7UqkhDloL0XxUL3+PLysnp08Q1v1wQuEW1QT90qmhkY6RxuO2VKTnHa3tWpeiFAP1snFZNWVMI/JzY24KVDejWJNm+TcKYQEKzq/g1hdes50cJ8aPKu4KENI9ric5wgSOWRLp/kakSVpGjlfDtf6KhXLn3l7wamJrFuQVywj5ZYcMaFdqblJpLEIlXwrtVR1al1tUUMCe0boh5ESe8Hs9iJhf9kPvkNhvFh5gaGsNM5lhx04LUUoKrWlE6ldcDaTKBTPQhuT/hZfs5y7zCjpOg8c5FY9wpzFDGPwkc4wPucCIAkbDCyKXCJgsmgEvwinziznD3DmkY3etC6ZIV5Ho6VRX4E7xQKw5Ztu9MmCX5AsKHHyUTCMriMdQUHn+v08V4Szalxp7DP2iEXpPMBJkHL/5XA91jSwvCVgvOiridWmEKuk6sD0w3GQitpQAli0R7L2qcM2YGdEsZZsEs2SMa8tTkIKdUVQ8/LWFACjSofYAr09b/Rff1W5bQTsFIhLN7aiaRyWd3RpMPsFSeVqqBgQ78iWpsu2/t8mXmud0XmCuqRhTozbVRQbBGYtw3xf6CxVfedNMS+sC6w+4k89utoJkEqJ1nGDSry+qBbYfSnxRt+0dK1b5bLrKS7XTiwSYqZQYF0oIoc0p7Ot2qhOLDhRpkrfozNhlyImGO+DDrI/6wFT5vZtGA8t+FyLNrez+FxEKnMzpGkarCKrNOGS9YAYsPyXBh2cnCt7l2Fnf0CJWBFpmjHbR1DDYuWRlk1m+t0jDo0F8GhDdQi07SykLOSWHZ+Zq5e+7dZDBzaQEMLRHuo0+JUzDIrJRMLywvZ79KQolEx4vColZ60VdQOGESTti6/nqm0czKksY3ugWkfc6YXsob20XJ9LNeqNbxuuAgNcvVLwI87+3pC0XKCfZGrRT/IIWq7HDy/brbKIrR2f11dHNdYnbo9JY1mbbAr9W9OExQtJ9jtbpJ+xoTEqGKY4l00/BeXCvCsylIVL28G+2i3R0+1x+GS3iGBkexQ21YwE91JClfc5qucpDi3dDoI0mM0tEGVVoksf1Sf2B3XuhsZ4T9lrJi9CZTtjrYVkZNqB553GEljXxvMY+x0WeFfkomrd8FJXNuG06UecMeqpVO3gt6V8DLoN2+jC/W4mgx8aFHx/P0q4o3HtF8G0W3G5NTW6KQOg9aaq/Jo8nrABY00rkcFPLTk+fObcO7S3UMCY3YeaI/vEpk1KjrIIO0Lx5eutVm/0SDgoVWXgQ4T4fgudW6iYtdmPqfOXrtX5i1laPLSUZ+ObIq2SkxUkEEjEXJmZ4n4En1qgOGK+A119goMTafWQvXmhaO0u82fpMs0LtAMoStOXZk/nbLcBS6y7qIY4TATIwgxSjYRw4cd2fqkmLANqMeoozKI+xgt8kA9s9cly4YGQKgxQolJfM+BUNmwvaPWlcFd6rXjan9thslAuorWcgONkFXRVzRf2XfQATk7bruBQklJOrddChIYm4uTF9V0H1eEYdGSbaDJjyZG28V3+7O+osqInXcMdyHY8yG8HmTNo66qjqv0BiyetMN5HPAT49TsO5sBQWE5X05U3e489W10A13EFngmYfzrPLxSJ53G8XGgJQtK6IfEsx5DJig5O+857sLHj9bLzs4Ui4t4o1DRUrvqHh9AR30Eh9dh9iIDlU5voM8OqW/X1IrQZjy5DohgkhFM8maPgWy7tbpxRHS0DnkbDF7AoRv60rjBPbClH4tY2kxarAcxRoROjmGg6S1J0EWD8SP99pUaNKA7GNOQ15wEAoAGtnqEj7s2JFi8S6BpeJlPeEWP4cxZF/pMK4/ohQoMPL5ptbpuVTW2KnlabRbD+7lKHFZi9QPDcD6qPLYw8NscsyQuiYJS2zYRr1gPo8DBzR8TJwSdLW700njTSG8bHQVK57KKUKtHZIY8CWLfGgeZtavoOXBYAoDEXKWQT2lpH32a+IUONMrrUD+Pj+E/aJSLoaz24PBvkD+tShXKsRqtBR8e0/LECot4OccnE0qRaJSly6SFsFXZriePIMsRZsFPJVjU++2SVxdHR+mjo+OLKy0wfTGMqIKSBzxL8orjg2PRBmBq7ykd26oh98jF8cXFN/VOSPWtReaD4ZEEuA7CFoYqY0mVRXbnl4girBnyIXpk5q1HWDPey67Y3kW3hQ4ZFcnOBwfejfOOELEDCxvwvUU15qSn7p756xYnmi0+o1pI558Vs8OE1GXlIPPZSdOSLcUOjN4ohh4SZaYLDhBIG8InD5iWNju7ODMzs5gdDhnzDPjDqVWn8YUeuNURzK3j6FXkfchMtarjw8WZxZvE6SePPiTCic1Xjrz8Qb4ChIhWiMOVKWxtSQP5cNIX32SRX8UPhunBC8PdViOCiUW89rlGvkoM+tAt60Cy8xotGWSmKk6bXKiSasExVgs12nfJDR8G720upgt3pzRq/NUM3aLeW4jTH/yBv7sbo14KNWNMGZi2iAY3HI7vCg3GDUCWaZwjiTyVoxWXd2BI9IAY2dvjYyOqjMl3Jsr6X61I6JY8ov8Ve3s3pX+wUsIHEs/1Vwqx0GhrxC45cWDa0FeyHjQnS8x8liWWhzdlNRN8e9z4DKQ1+l9To5DW+Ct22/iDP9/F3x3f0F8pTIdGWV1LbWFw2hl1cBcATHcijHyWIQ6Hckk7NhoaN2pYI6Poq9TbfCMeGmXpWdIH2tC8NrjI6sJ81mGzC1ocTJN72qbxI+1x9NW31HK4fC9A2lljcJEAUSz3m8EO3f/uaan3+PHb8KsZo6x1APGDow0tfyAruXrcJAlcrTfwMnPdxj3tD2oF7e49+NXpAv12kLRqw4lpQ28pCsr5gx68Lx7Ygd3TWqZpiFbtwlKwtEWeLOSatwpAe/ZMjm04Az95Vlycffjw4exi0SttaNyohExOwK9Sa+GVTLC0oeXfiC5bUx4QiQpKOVfvuX8aDK4WPdPGjOI8ckG3x42fuPs2YNrQ10/ELjOSWoB2JuUa5VZ+bH/9YGNDO61ne4/W1tb2lh8b6ZsH2iXzPKXe7SKrFSxtlj/NwLkbLzkWaaQIhMaiVhYZZRYPtBmj/rwObTBlteqIiUm77hctqmKchBM9cC1ZH/OWfg+09+7SHw3NGQ4Ix1Y6bZ27a4jsFy3eLP10NRGf67sQKahTzl5r8UBrmaiUYpdLNG1KuHXPEN9oyTrJ682pTLPv/vTkROz37nigDUWNSLgSD8WMFTblrZnWP0KTkPz8/cnqdJ9uNq3bxLZc5YV212gTnrwfGjfyzfE7Q6HVV8E+nO2yKnCULpNzs3X9mGhvl3rSUjM1txAa19eakjhstmryrQBxef63giKIjkOsdbRme9CKAtWNxKCl0oDU6C3DZuWbJlpipeSlAGhJD5UqB/maIjj0Gwtk2KyLkTRtPZUykkcGLfXZg/G44YBwZGX1QK3pIGjNm0Kgc87VKgr0s1FRE+R0uU55A7/9rGgKlmlakzBoQ+NGrAh2DTXo/GDQFoKhtWyUoF38ZGokn8+h/Rq2U/uW1c0XRi3cE20zZxCOG/+Xbw2T1nY7fS/ZMVf9PdFOGOO5biRA69hIDY/WuldCL0mZ/b0n2h/MJlFStxkibSjL0ma2KLs0ryfaOzLrk4WlYdMyFu2dpFseH18o/bh3687t25j2YL2drKfGRka287lWYbJWrpQ7SmdSstOGxlkFP5TcDps2NMtYhLRKjpztWKvcUGQikiBAl8UpHbT76WQrP1KvFzrlFHNs6WjRkLv3boA2ZNsoyCKpGic47E1LSb5BOnKYtNOM/Ra+4JLc8GlD2T37yRDZz5U5tHrPbFc2ZLuiaDupM2njjPsYtLB46LRQnSlr1d143k6mtnOFsmJsN+p4kzm0reVmrGfkCFNchplq7Vpo1/NIykOghc7oyWl4LhaRIhFRFHBEZQokAfNWVYhTVlry7d45EJRxe02zPGehTY0vIJkbBi3k/fopPhGTHfIDkTH1IOpksn/GByVqL8egCpyZNjocTp13/nR1ounAa92kKFXmaiT+dUG7ZO/pV43UMPJbJ1nc+20zsQQHmNF1Qq/FpSY5/akHbmgzNqNeHw/dOC3ac/HPT6tz001gJTaK3qlJOZbxULuA8pZuzccC83ob7S0od4jcHhrw4vLH08N4aXoXIsuAiKTd+zdWk0cnbnmq1IRYgWZtwkpbl1DUMo5F9K/m6EJmnv361+nZZjxTmpiYnp6emPgDdx+NlOXd+B3r6bugpVNcIiS5DTnUk/1YrfYkZG/Nd+///PDnn6hJsp2r7Cb0opFX2gXr/Ta4AudI69tagReZ/Z///XS1vZ37/f/+iL81TSWvtCXLvQhtzUj9jWidxSvtD8v96dt608zPSHvHYqYm9QDxZ6Slm02Q4HVrLD8lbdPc0SLrhZCfkva+Kc4+0I3Uz0lrrsSNGRnAT0l7y5TiFoz1D2Yv3N+OVn06TzLZRn2O+l95RKv91c7rtKHxVFKXtlqBQzKabydtMuZDn6OPclvWn7wkyHdKEf0PkYO09F+axKIC9RWjWsuJgl1E7v8BRdOhw5T0kVAAAAAASUVORK5CYII=;" parent="1" vertex="1">
          <mxGeometry x="-104.61" y="202.5" width="114.61" height="103" as="geometry" />
        </mxCell>
        <mxCell id="SkUb1cnuTnNj_XQBZiCX-1" style="edgeStyle=orthogonalEdgeStyle;rounded=1;orthogonalLoop=1;jettySize=auto;html=1;strokeColor=#0000CC;" parent="1" source="R17QDRCtGJXxGDcpWK7t-12" target="R17QDRCtGJXxGDcpWK7t-11" edge="1">
          <mxGeometry relative="1" as="geometry" />
        </mxCell>
        <mxCell id="R17QDRCtGJXxGDcpWK7t-12" value="" style="shape=mxgraph.cisco.people.androgenous_person;html=1;pointerEvents=1;dashed=0;fillColor=#036897;strokeColor=#ffffff;strokeWidth=2;verticalLabelPosition=bottom;verticalAlign=top;align=center;outlineConnect=0;glass=1;" parent="1" vertex="1">
          <mxGeometry x="-250" y="202.5" width="69" height="82" as="geometry" />
        </mxCell>
        <mxCell id="R17QDRCtGJXxGDcpWK7t-13" value="&lt;font color=&quot;#ffffff&quot; size=&quot;1&quot;&gt;&lt;b style=&quot;font-size: 17px;&quot;&gt;On a Hive Table on Azure&lt;/b&gt;&lt;/font&gt;" style="rounded=1;whiteSpace=wrap;html=1;fillColor=#660066;gradientColor=#7ea6e0;strokeColor=#6c8ebf;glass=1;" parent="1" vertex="1">
          <mxGeometry x="-127.31" y="110" width="160" height="70" as="geometry" />
        </mxCell>
        <mxCell id="R17QDRCtGJXxGDcpWK7t-14" value="" style="html=1;verticalLabelPosition=bottom;align=center;labelBackgroundColor=#ffffff;verticalAlign=top;strokeWidth=2;strokeColor=#0080F0;shadow=0;dashed=0;shape=mxgraph.ios7.icons.clock;" parent="1" vertex="1">
          <mxGeometry x="90" y="60" width="30" height="30" as="geometry" />
        </mxCell>
        <mxCell id="R17QDRCtGJXxGDcpWK7t-15" value="&lt;font color=&quot;#ffffff&quot;&gt;&lt;span style=&quot;font-size: 17px;&quot;&gt;&lt;b&gt;Pyspark script to pick up the data - format it&lt;/b&gt;&lt;/span&gt;&lt;/font&gt;" style="rounded=1;whiteSpace=wrap;html=1;fillColor=#660066;gradientColor=#7ea6e0;strokeColor=#6c8ebf;glass=1;" parent="1" vertex="1">
          <mxGeometry x="140" y="90" width="180" height="80" as="geometry" />
        </mxCell>
        <mxCell id="R17QDRCtGJXxGDcpWK7t-16" value="&lt;span style=&quot;font-size: 17px;&quot;&gt;&lt;b style=&quot;&quot;&gt;&lt;ul&gt;&lt;li&gt;&lt;span style=&quot;font-size: 17px;&quot;&gt;&lt;b style=&quot;&quot;&gt;&lt;b style=&quot;border-color: var(--border-color);&quot;&gt;JSON to tabluar form&lt;br style=&quot;border-color: var(--border-color);&quot;&gt;&lt;/b&gt;&lt;ul style=&quot;border-color: var(--border-color);&quot;&gt;&lt;b style=&quot;border-color: var(--border-color);&quot;&gt;&lt;/b&gt;&lt;/ul&gt;&lt;/b&gt;&lt;/span&gt;&lt;/li&gt;&lt;li&gt;&lt;span style=&quot;font-size: 17px;&quot;&gt;&lt;b style=&quot;&quot;&gt;&lt;b style=&quot;border-color: var(--border-color);&quot;&gt;Create CSVs&lt;/b&gt;&lt;/b&gt;&lt;/span&gt;&lt;/li&gt;&lt;li&gt;&lt;span style=&quot;font-size: 17px;&quot;&gt;&lt;b style=&quot;&quot;&gt;&lt;b style=&quot;border-color: var(--border-color);&quot;&gt;Zip them up for...&lt;/b&gt;&lt;/b&gt;&lt;/span&gt;&lt;/li&gt;&lt;/ul&gt;&lt;/b&gt;&lt;/span&gt;" style="rounded=1;whiteSpace=wrap;html=1;fillColor=#66FF66;gradientColor=#7ea6e0;strokeColor=#6c8ebf;glass=1;align=left;" parent="1" vertex="1">
          <mxGeometry x="310" y="179" width="240" height="71" as="geometry" />
        </mxCell>
        <mxCell id="R17QDRCtGJXxGDcpWK7t-17" value="&lt;font color=&quot;#ffffff&quot;&gt;&lt;span style=&quot;font-size: 17px;&quot;&gt;&lt;b&gt;Python to pick up via CLI (command to speak on DataBricks with your local machine&lt;/b&gt;&lt;/span&gt;&lt;/font&gt;" style="rounded=1;whiteSpace=wrap;html=1;fillColor=#660066;gradientColor=#7ea6e0;strokeColor=#6c8ebf;glass=1;" parent="1" vertex="1">
          <mxGeometry x="500" y="280" width="220" height="127" as="geometry" />
        </mxCell>
        <mxCell id="R17QDRCtGJXxGDcpWK7t-18" value="&lt;div style=&quot;text-align: left;&quot;&gt;&lt;b style=&quot;font-size: 17px; color: rgb(255, 255, 255); background-color: initial;&quot;&gt;Schedulded job to download the zip files&lt;/b&gt;&lt;/div&gt;" style="rounded=1;whiteSpace=wrap;html=1;fillColor=#660066;gradientColor=#7ea6e0;strokeColor=#6c8ebf;glass=1;" parent="1" vertex="1">
          <mxGeometry x="90" y="465" width="200" height="72" as="geometry" />
        </mxCell>
        <mxCell id="R17QDRCtGJXxGDcpWK7t-19" value="&lt;div style=&quot;text-align: left;&quot;&gt;&lt;font color=&quot;#ffffff&quot;&gt;&lt;span style=&quot;font-size: 17px;&quot;&gt;&lt;b&gt;call a .bat file to run data through radar&lt;/b&gt;&lt;/span&gt;&lt;/font&gt;&lt;/div&gt;" style="rounded=1;whiteSpace=wrap;html=1;fillColor=#660066;gradientColor=#7ea6e0;strokeColor=#6c8ebf;glass=1;" parent="1" vertex="1">
          <mxGeometry x="405" y="585" width="200" height="72" as="geometry" />
        </mxCell>
        <mxCell id="SkUb1cnuTnNj_XQBZiCX-9" style="edgeStyle=orthogonalEdgeStyle;rounded=0;orthogonalLoop=1;jettySize=auto;html=1;" parent="1" source="R17QDRCtGJXxGDcpWK7t-20" target="R17QDRCtGJXxGDcpWK7t-21" edge="1">
          <mxGeometry relative="1" as="geometry" />
        </mxCell>
        <mxCell id="R17QDRCtGJXxGDcpWK7t-20" value="" style="sketch=0;pointerEvents=1;shadow=0;dashed=0;html=1;strokeColor=none;fillColor=#505050;labelPosition=center;verticalLabelPosition=bottom;verticalAlign=top;outlineConnect=0;align=center;shape=mxgraph.office.services.excel_services;glass=1;fontSize=17;fontColor=#000000;" parent="1" vertex="1">
          <mxGeometry x="460" y="803" width="90" height="79" as="geometry" />
        </mxCell>
        <mxCell id="SkUb1cnuTnNj_XQBZiCX-10" style="edgeStyle=orthogonalEdgeStyle;rounded=0;orthogonalLoop=1;jettySize=auto;html=1;" parent="1" source="R17QDRCtGJXxGDcpWK7t-21" target="R17QDRCtGJXxGDcpWK7t-3" edge="1">
          <mxGeometry relative="1" as="geometry" />
        </mxCell>
        <mxCell id="R17QDRCtGJXxGDcpWK7t-21" value="CLI" style="sketch=0;outlineConnect=0;fontColor=#232F3E;gradientColor=none;strokeColor=#ffffff;fillColor=#232F3E;dashed=0;verticalLabelPosition=middle;verticalAlign=bottom;align=center;html=1;whiteSpace=wrap;fontSize=10;fontStyle=1;spacing=3;shape=mxgraph.aws4.productIcon;prIcon=mxgraph.aws4.command_line_interface;" parent="1" vertex="1">
          <mxGeometry x="605" y="790" width="80" height="120" as="geometry" />
        </mxCell>
        <mxCell id="R17QDRCtGJXxGDcpWK7t-22" value="&lt;div style=&quot;text-align: left;&quot;&gt;&lt;font color=&quot;#ffffff&quot;&gt;&lt;span style=&quot;font-size: 17px;&quot;&gt;&lt;b&gt;Radar to process scored data etc&lt;/b&gt;&lt;/span&gt;&lt;/font&gt;&lt;/div&gt;" style="rounded=1;whiteSpace=wrap;html=1;fillColor=#660066;gradientColor=#7ea6e0;strokeColor=#6c8ebf;glass=1;" parent="1" vertex="1">
          <mxGeometry x="70" y="810" width="200" height="72" as="geometry" />
        </mxCell>
        <mxCell id="R17QDRCtGJXxGDcpWK7t-23" value="&lt;div style=&quot;text-align: left;&quot;&gt;&lt;font color=&quot;#ffffff&quot;&gt;&lt;span style=&quot;font-size: 17px;&quot;&gt;&lt;b&gt;Radar outputs flat files&lt;/b&gt;&lt;/span&gt;&lt;/font&gt;&lt;/div&gt;&lt;div style=&quot;text-align: left;&quot;&gt;&lt;font color=&quot;#ffffff&quot;&gt;&lt;span style=&quot;font-size: 17px;&quot;&gt;&lt;b&gt;(CSVs)&lt;/b&gt;&lt;/span&gt;&lt;/font&gt;&lt;/div&gt;" style="rounded=1;whiteSpace=wrap;html=1;fillColor=#660066;gradientColor=#7ea6e0;strokeColor=#6c8ebf;glass=1;" parent="1" vertex="1">
          <mxGeometry x="420" y="731" width="200" height="72" as="geometry" />
        </mxCell>
        <mxCell id="R17QDRCtGJXxGDcpWK7t-24" value="&lt;div style=&quot;text-align: left;&quot;&gt;&lt;font color=&quot;#ffffff&quot;&gt;&lt;span style=&quot;font-size: 17px;&quot;&gt;&lt;b&gt;Use the CLI to push data back up &amp;amp; append to a hive table&lt;/b&gt;&lt;/span&gt;&lt;/font&gt;&lt;/div&gt;" style="rounded=1;whiteSpace=wrap;html=1;fillColor=#660066;gradientColor=#7ea6e0;strokeColor=#6c8ebf;glass=1;" parent="1" vertex="1">
          <mxGeometry x="490" y="913.19" width="213" height="92" as="geometry" />
        </mxCell>
        <mxCell id="R17QDRCtGJXxGDcpWK7t-25" value="&lt;div style=&quot;text-align: left;&quot;&gt;&lt;font color=&quot;#ffffff&quot;&gt;&lt;span style=&quot;font-size: 17px;&quot;&gt;&lt;b&gt;Use Pyspark to do final formatting - such as setting the schema before its appended to the datatable&lt;/b&gt;&lt;/span&gt;&lt;/font&gt;&lt;/div&gt;" style="rounded=1;whiteSpace=wrap;html=1;fillColor=#660066;gradientColor=#7ea6e0;strokeColor=#6c8ebf;glass=1;" parent="1" vertex="1">
          <mxGeometry x="910" y="762" width="213" height="123" as="geometry" />
        </mxCell>
        <mxCell id="R17QDRCtGJXxGDcpWK7t-26" value="&lt;span style=&quot;margin: 0px; padding: 0px; user-select: text; -webkit-user-drag: none; -webkit-tap-highlight-color: transparent; position: relative; cursor: move; left: 0px; top: 2px; display: inline-block; text-indent: 0px; color: rgb(0, 0, 0); font-family: &amp;quot;Segoe UI&amp;quot;, &amp;quot;Segoe UI Web&amp;quot;, Arial, Verdana, sans-serif; font-size: 12px; font-style: normal; font-variant-ligatures: normal; font-variant-caps: normal; font-weight: 400; letter-spacing: normal; orphans: 2; text-align: left; text-transform: none; widows: 2; word-spacing: 0px; -webkit-text-stroke-width: 0px; background-color: rgb(255, 255, 255); text-decoration-thickness: initial; text-decoration-style: initial; text-decoration-color: initial; width: 129px; height: 107px; transform: rotate(0deg);&quot; role=&quot;presentation&quot; class=&quot;WACImageContainer NoPadding DragDrop BlobObject SCXW127128787 BCX0&quot;&gt;&lt;img style=&quot;margin: 0px; padding: 0px; user-select: text; -webkit-user-drag: none; -webkit-tap-highlight-color: transparent; border: none; vertical-align: baseline; width: 123px; height: 101px;&quot; src=&quot;data:image/png;base64,iVBORw0KGgoAAAANSUhEUgAAAooAAAIUCAIAAAASeproAAAAAXNSR0IArs4c6QAAAARnQU1BAACxjwv8YQUAAAAJcEhZcwAADsMAAA7DAcdvqGQAAP+lSURBVHhe7P0HmCXZdd8Jhns+bfmqrmrvGw3TcARAEgC9GYoSSZEEZajZ0cqs5puZ/bQzO/p2NeJoJX0raaTR7MiRFEkRogUJgLBEA+gG0AC60abae1fepH3+vfCx53/OjXgvqy3QWVWRmeeXkRE37r0RcU3E+d97I16EnWWZpSiKoihKmXDMUlEURVGU0qDyrCiKoiilQ+VZURRFUUqHyrOiKIqilA6VZ0VRFEUpHSrPiqIoilI6VJ4VRVEUpXSoPCuKoihK6VB5VhRFUZTSofKsKIqiKKVD5VlRFEVRSofKs6IoiqKUDpVnRVEURSkdKs+KoiiKUjpUnhVFURSldKg8K4qiKErpUHlWFEVRlNKh8qwoiqIopUPlWVEURVFKh8qzoiiKopQOlWdFURRFKR0qz4qiKIpSOlSeFUVRFKV0qDwriqIoSulQeVYURVGU0qHyrCiKoiilQ+VZURRFUUqHyrOiKIqilA6VZ0VRFEUpHSrPiqIoilI6VJ4VRVEUpXSoPCuKoihK6VB5VhRFUZTSofKsKIqiKKVD5VlRFEVRSofKs6IoiqKUDpVnRVEURSkdKs+KoiiKUjpUnhVFURSldNhZlhmnoiiXE74SMxsXJa+TC3484wD2Y8jn+DB6cRg+PwxPDaNxkoo/hbcqzvWt6jvn69e1qvOuY9kURLvAzi4E+80yG8eQYLIGNjkVRSkBKs+KUgoy/oM4Qy9BviRtJcnEiohoL05OjeJ710YPdMYPd/3ne+EgTiSe5VjzNecds/UP72l9YFfj7XP1XVW77tp25hTyLnvFmhySJuwXEk6rKs+KUhJUnhWlHPCVCCXmKxIiSR1f1k/bnr4JlR3tjP/Dy51vrI5OjcM4TdLMyyzqIlNk6itDXl0rqzjO2xfqf+eaxY/uaV3VqLA2Y78k/in9834ovpFiWogdUG1WlNKg8qwolx9oMMsnLknRUbjhoL4tTbQKDbXSu1f9z5/rf+ZMbymMRwlJMlQWcbEBxeedwO0sVtybZmr/zVULP7yvdU2rgiAe4pZmAP2n3BlH3HxOvtJBVxTlsqOPhilKKWBVZnGdIOpJE/yDND0bxHetDO9cHh4bhqMYfetcWCnKlKyysx0m31kffW6pf1+b4nI7HMPliCcajH/sAZ7YAEy7FUW5nKg8K0pJQEeYxZEFFHeC7YzENKOrlFaybpQ90A6+vTp8pjtGFERnKWXRNW5c0S4kGKupZSefXe5+9nxvECdxlkoLAIF2JrejHRwDMm0wO1EU5fKj8qwolx+IMGYOzViW2deoLxQ1SK0XhtG/PdF7ehCxJ0WiyLkS26nlpizSCMQ24spcK7WfH0S/dap71jeD2YWaQ5d5jWScJjy1DYMwpdaKolw+VJ4V5bIDwYR2QqVFnGViOeUYp8fR0c7oofXRekDyjCCmcLC+Y8kbQtdpO766U/vUMP7cucGLw3AY8++vZGgbcGQ5BDaRrRRFKQUqz4pSIjKLh6DRlZ0Idmplj/VH31zt+0GUpgnrKF25IsMkqRSJJrmWyYc0OIEnnveG4q4GyYNr4yd6/rlQpJ32z094o9vNXWb5OZVMiqKUA5VnRbnsUJ8X95dZUemSpFXuDXNXOM6y1Sj9djv4+rofkVJDQikyhbCcUpzCgW2xeR6Bf21FUm2lUZp94fzwvrWAQ8Ufh5OuesG0W1GUy4vKs6KUBsgjay3E0zi6UXrX8uDRtr/qp3isK4/AS9ZTI7LsaRRW3ITxTLL0yY7/wPr42UE45leYIGZxDDDlVBSlBKg8K0qZIHk1d44hllFqnfPjPzvbe64XoBuMEWzyRySjzYhMXWFC/Bny5Cgmvm2ldnrej462/btWR50Ig9omppD3ozf6KopyOVF5VpTLjAis/JAKSsmdWihtli4H8RPd8OF2QA5+vBoRZSuzRFy5ikWkmWLcmiZC7kzb1hPD4ONn+qf8KILSSxhtng+ki4eiKOVA5VlRLjMQWFJGftKLu73GM7Ptx3r+Z5d6pM1RugnaOYySE4PxfWvDY6OQVukQLPJGmOl/SvwVRbnMqDwryuWHlZJnZmDaSrJsJUge7PhfWx3i5Z2bQZamwyC+e2XwZG8cphgWF+9clLX7rCglQuVZUUoAbhDn+myRcqajKPv66uCh9fHqOE02TTadYWx/5fzogfXxWhRRC4CPSV13h98lZrl5GhRFueyoPCvK5Scf04ZG0z9+TBUmn10aPtIL0k0ccebx83GaPdgNPr80Gsak+3gXN+4787H1AzmKUh5UnhWlFBhh5F8/r4fpE73gwY5/ZswvEoFkbwrmIM/2w68uD8/4iY+OuUyKopQLlWdFKQMY3SaRxO3fzHmuH33mXL89TowX5HkzFBq7QYf5/Dh6pD1+vButhWgO8CEwmfdxK4pSAlSeFeXyQ9IMlbTx7PR5Pz3a9e9a6fcilmcgL/J864gM4ztV54Po351Yfag7Ir/MDGpLI4AmRVEuPyrPilIiSJAf7I6+0x6dGId825lFG+K5KfIsuwKDOL1/fXR/e/zCiH+0tSm7VxRl81B5VpQSwC8JIZkcJennl7v3tQd4iAs9XQozXWuJ+FYx7x3D7qMwu3/d/+rqOEqpCUBHEZVWoVaUUqDyrCglAN+nys4F0VdXRk+0g5VxCh2FVpIj3bR7zwQ3A9iFa/+x7vjra8NekkYZf+4ZR9mkAymK8tZQeVaUS0LeKZ10To0LIkyLOLVeGESfODd4eRjzA9UEi6UJF5+3TrEfONbD5Jmef/fq8HwQv/YhCv9N/I2XoihvgMqzolx8SNRY1/j3zeLKHQa7G6VP9MJPLg2XQ3kQjLSQ5FnGoqW/+9aRg0r/mEfOU+v8KP79091n+0F+C5qmCbxCacWUOxRFuRSoPCvKxYd1lhWOnLQCaeTBZAmD4/7O8IH2IA35XV4mFo9sI7LE3Ayw29zBtMP028vjhzrBiXFipdIaYFiRpw5MToeSxd15RVEuOirPinKxIT3DRPo2JX2YyzLKsk6U3rM6fnB9nKUxe0ILIYV4Oozjbg6cBCRCDk2uLE6Tdhjftz58sD1iD55M5MkKO7GloiiXBpVnRbnIQOBE5Eje0PnkTmmufJnVj9Ine/796/5z/QjDzaLHeMTabLGpTPWPDdRBTx/pjO5dG61FSWg+jcVplMQqinI5UHlWlIsLv4trShTRfaV+MQaKpXN8chz9xon1l4c+jye7RpiNeGMQnFc3BdtKi8FpVl500Olw2Xk/eawb3LUyJIXm9gGpNKWGko5PTBMUMbXhw7qtKMpFR+VZUS4JIoo0hwM6DGdmLfnJk93w26uj1ZB0kWSQQtJcOFkNN1MOaYesvlB9D4dAYugIbpxazw+C3zrdeWEY8rcmcXgcnB2cUhF2HeBWlEuEyrOiXGxEA3O415qTPdEPvrE2Oj6IR4kIsXRQIYQXbrgJyD6LH1Lz/iG4sAPLQUy950e743N+DB8ESgK4B0+JIpfsQFGUi4/Ks6JcZNBVTiFwIszoFWPQGCpsZ59b6f/BuV6aOtw7dagjy/1VUtCIRZFFlGabA4ku7Z8c1Iem5kD+Ku+MHHhEPIvSr62O7u/6iMKthMxOOZ0E2QqH1Vn1WVEuBSrPinJxgbShAwp1zuwMKsyd0LUw/fy58TOdYIxhbWghtA/3fFmnzbXJ/hDpTZFoVnrsHAueSwuAD8eJe3AteGgtoLRF0Gs0I+iPP5mBiYe8NyUliqK8ASrPinKxgZ7l/wbqri6F8afPD1/sR1kqT2vLxDeeoZoiopsO7Z12+8o9w4caAmfG4cOd8bfWRj3o8yQaBJpTpijKpUHlWVEuMiJqNkauMaEHawdpdsqPPrvcPzYOJZQjZZYjD06jp110ankXEuEtU+yMdisHork5Oh2NJDl+ojf89RPrZ4MI/WYKkj6z0e/NSoeiKG+AyrOiXFwgr6RtEDrSNtzNpfX726M/O9f1Q34JiUgmoGiuuCCIF0MNaX+ix9g9UpYfgufwcbuh9UwveKDtnxiFlKBCvMlFwfBRFOXio/KsKBcXVjgsWdiyOM2Wg4TE75sr4yDmoewNeieSKVwkISx2O30sAfpLPfulcfLF5dEjvWBjCl4ZX1GUi4XKs6JcAkShaWYHif1UL3pwPaB5dJH0963AfeVxnH12efDttj9K+LEwalnIWDjrN8dTFOXiovKsKBcZUjYeRmaJtntJ+vml/tP9gB/SpguwbGqX8M+67CRKnmr7Xzg36sUJP3JugkvYolCUbYnKs6JcbEjRTMdzJYgf6/r3rw/PjiIOwq+X2FEaqMWAFKVZmj3TD76wPDg7TgLcLkcY/WvfWVEuDSrPinJxyTvP6C2/MAy/vDJ4vud3owRe6JOWUJ5pQqpOjKNvrI+e6kfrUYLuM03kX7L0Ksp2ReVZUS4yrM/U//TT5Dud8e+f6bdj/qEz3sHF0i3qXRIoLfgVFfehU6sXJJ9b6j7VH5Mwy+C8iaYoykVG5VlRLi7yk2Hqfz7cCZ7oBCvjKE5Z5OSZKwkuEZQqmcAoTu9dHT/S9s+O45SaGCrQinKpUHlWlItOYmX9KPn66vDJrs9PhE0pYNkED40GnnjgPUjSl/rhA+vBw90g4hFvRVEuDSrPinJxIU0bJ+npIPrS+f7jJM8GuvQcPCNdtru5ePWItBiKhkP6rc74E0uDUSofgVYU5VKg8qwoFxeSuGcG4X8+1T0+TkKIG/+C2DxpJVHKpc88md4zkmbb7SB+puPfvTw8M45FsRVFudioPCvKW+QCcWVVm6IdJo91gy+cH6yHCWuzeHOcCzYtBZy+ok8PkbaCJD01jD59bvDCMExevf9cxpwoypZG5VlR3gokS1N6Ra58ABgBHPZsP3ykPX6pF4zxfg/5srJAPVSbhXCyg8uP6TTnz5Ojl08LZzlM/+hs/4leEFAG89zlDszklrrxUhTlLaPyrChvAZYx7mEayCO1obfykylS488uD+5aG4vKGW8RNayxt9zuLQnSVkCSJJGSD/inSXp/e/y1tSG3LziUh8B5QIA/as3RzLc/FEV5a6g8K8pbRJQsB8Jm5LYTJY/2xvd3xi8NwzwOBclFx9HgN4lfJvJBeCO1vMishzvjb6yO1oMkSiev+STIKRqerymK8lZReVaUt4Boa95fZF0ifXbIj3qRJ0fxH53pnuiHccJj2kbwSMjouuMJGxR3o8uBNC/MeLu4zZL+n+0E9y4Pnx9EA7yTlNON8Mw8gI5otG5iK4ryVlB5VpS3BMsyaxSLEqsT/Hpx+lQ//NNzg3NBxOIl3qRhMf+eiu9DQwtlF6XBJCbPDeGkaFuQBGMg2zkxTn/9RPulkQ9VljyRr5FkXpdMKYry1lB5VpTvHdEymsMhK4bs6X5wf2d8YhCNY0iW8S62gNRN+5cM6UMbN6WTk40udbYexfesjp7qhcsBvzac49nYgOMjsqIom4DKs6K8JXhQV5RMlMlOM8tP0nvXR/eujawk5a9SsX4VyiUOuvhsvgCpY1oi8sQhT5RmnkSCWZ5HcXp8ENzf9p/ph5McSQFgHbEVRXnrqDwryvcOSRHGdVm3bIwAg36SPtNP7l8bP9P1c7Xi8WGouMsXHU8pTaxvRt3LAbq/1KTIrJRvKEOV0Y7gIJpTOwPj859f6X9+ZTBK0hRtCzRAEFdRlM1D5VlR3iKswOhksnRZ1pIf/8nZ7pN9fxAn0qFkYRORk1VZyvg2NikRkhxkSdI2WeclZyRzzo+iJ7r+fe1RJyJt5mxTCXCM0uVIUbYmKs+K8lZgrS3U17YGSfrCIPzUuc7JcYhwo2sUJNcaSRc/wm2EuXxKhsaGjY9dSmsDkwkxINV2nGTH+sHnzg3OjRP+ABdNtCVnrHx5UpStiMqzorwVRJlkQVLmPNHzv7Y6ODOKxxH58UcvIN4EORJWO9eCnrlwmF9YSYSSIOkhjaU5TfzMtkguHjiXUXqMZh8fxZ88M3huEA1iWqWoJiZeUKIoyltG5VlR3hj0GAvXhmVBlmaZn6T3tf0vr4zGCZQKkVL5cXO+C+phTo9pF47yIElCoiRhrLUiuOY+OjlgN6I0XQuir6wMjnbH5IVcGWEuWY4UZWui8qwob5bXlx0/TV8cBg+1x0/0ggTPfIkMc6d6WuqA+ExP5UESUySV0j/lNpCDpixOs3vWhg+0R70owc/HVKEVZfNQeVaU14W6hVnRbSTZMcIDH3LyxF52O0r/7Fz/2Z6PH1MVONtRqKjBgWEAN7Gc5/vhwx3/mX4QxEa0uZNdFJiiKN8jKs+K8ppAWtEdnIgNbqxeILj8QFQ3Sp7rh19ZGp0YxZP4tNyG6kxZSqHQGBVIkzR9qBP8xsnBUhjhV2WIgDvTHFNRlO8dlWdFeT2gM1NqayjUB15YeXkYfnN1+HQvaIckTuTLor094dwBKYXs1Cj6+srwqV6wFpn3iCmK8tZReVaUN4BUiCajtlgRDx7flfUse6g7/tPz3ckPnRFGczPwvb3AsPYkm5aVpHHHD+5eGTw3CDicrMq2bZsoyiVD5VlRXhPzUFdx75nc5HJEmOFPsyC1Hu8Hj3aCE/0oksFdCpTfUIHtJ1SULx4hIBnG1zLIwxnE1meX/QfbgR8npgwURXlrqDwryutB6mrGqaE69J/3iHmWZlYnSr+0PHqo4/fjNIU00cQbQdPlsWfefFtRlIDkzo5S69ggfKgzPtr1/XTqyThFUb5XVJ4V5bUx6iNSJP+iTJmNLrXtJ9npcfypc4NHe755Wooi038mrxzhbWWT7QSej+OhexFiyWMaP9IZf2Zp0I1jbqYoivKWUHlWlNdkIjIQaekKO/zbXrhT23pxFH1pebg0CqOY5IokmSaKLQ8208VFMhZvQ3lGBilzPIYPpFHiHB/G966Mnx/EPX6PmKIobwWVZ0V5TSA6UxQyS3JE+jNM4qf64y8uD9b5N0UIRgzZiMILibpgN9sAshvc+DAYxyjOjg+jLy4NXxpF4qMoyveMyrOivC4iumZQmxy0hBolVnZqHB7tju5tD/sJdyIRgySZQh3zbmp4bctLrHg6Lgcj/Vi0w+Sz5/uPdYNhLB/LVBTle0TlWVFek4nAsPpgsu2M7zHHmfX5pfG3VwOLXPjEBV1M5E8O2ogc053L7Qd/FQP5EwPCowlouGRBmhzrB/evj452fRZoniblaNbzu9aKorwmKs+K8jpMCYsoC6vuIE5fHPj3r41e7Icboux4SHX9JP3W2ugLS4N+ksT8HjHuaeelly85uqIor4nKs6K8LtATYGQFLvucH391ZfhU118LYvFTpnm6H3xjdfjyMBzgQxlGiU3pmXFwlWdFeQNUnhXlNTFCgp8RiczwDVfberwf/vOXu8fwem3l1Uiz1XH0hXOD06MYtwLIBz1o7kTj7gD7KIryuqg8K8prk/f4cE+ZH/UifXmsOz7aHq+O40gffnptloPk02eH1I3uJ/jyNRelCHXuVhTldVF5VpQ3oHi0Kc2yOMu+tT6+b32c4N0bKjOvST9OH+v697ZHz/R99si/BK3arChvDpVnRXlteDiW9YS0xUkte5RkX13171nzrTThB5hNRGUjosHJF8/3P3O+T6VkTx5l52e2My04RXkDVJ4V5fWAsuB+KX5OdWoU/aeT7Zf6fkbaLJ1B7Qe+OlI42dlR/Ew3fKrn9yMMcVNLx87w2jVVZ0V5Q1SeFeV1MPJLixF+TBX+2dne2VEoOpN3B5VXQiWDB8CGcfpMP/zjc4Oz5hF3KTQtN0V5Y1SeFeU14f4eBrZT2z4fJE91w/tW/bUgZe0hf3StTVRlA1QsDgtx9vwo/N+Od54bRjE/tS1PcOe/VlMU5TVReVaU1wEXCGkKLb6xPvzCSh93m0WRyU+kRnkVqAUjD2xbWZpGfvi1lcH97RG1dkyRabEpyhuh8qwoJCMX9OawKl7Uzxsn6QuD4IH26Imenz/FXczFobySvPwyK0mye1bH964H/SRLpMwuLLZXel0YQ1F2GirPys4mV4GJGhiXWVB3eS1Mv7IyeKQ9Xh5FGO2exJ12K68AI/+YqIwe7ob3dfxj48iHPhsuLD5Z3xCuKDsXlWdlh8L3lVMz0prZ+EIkiwP3j8U3tbI0ypLjfvSfTvWfGsaW4/DXLxy+68w/ENJR2leHf4lWmBfcCEhe7PufOjNYDUifs9RO+UMicm8AMkwbyLp48ULLVtnRqDwrOxkSAHSH0cHDN5ewgnvL7IXJto+Nogfao+N9fxDyVyNxxbCC4340TSohrwqVId+bJ9DaIS1OzwyDu5b7z/TDdsS/rEIhFyAmvKR1ZDwUZUej8qzsUKC9+DEzwTPcJKV5/uQX+0ap9Xg3/MbyKIhi6mnDC6G0YJcslVeBCme6fKC762H8eG9877p/bBhJGaPEMZla4G2wpdlIUXY2Ks/KDsamCyD/aVTmFk7R4CTNOmF8/9ro7pWRT31B9qReIMcgjLaYNWUDPBqB8X8uIow0UPE548T95Pn+dzojHq4gH7SJKAZc2Ege7C6qQVF2NCrPyk6G1CFhCZnAKxCVTpz8ydn+Ax1/QEJNEVlOMC96d0ZVlNeCiovKTSYUVpxkJwfBYx3/0V7oJ/gZNHmjRFHitIIXimmJKoqg8qzsYKCzorUkCqwRZrJIPE6P48+fHz7TD40nvFk7VEHeDCgzKShTpHBl2SCKH+v6X14ediJq9VBh5kGYacEqygSVZ2UHg3FUD6/TRueYBDjlnjGUYiVMn+xGz/aC9SCGp0gyORDBsfCBh2JVeQ1QPlRu1EHmUW4qKipGJ324N/ovp7rn/CzKSKDxwB2VvUNlDBdimReaKMrORuVZ2emQRhOswLgc5H7pAx3/t053VsNIVMV0BBGLo0CVKbpjOeyvvBLociG5UoBcVpkbJ9aaH//5Uu+5foRb/lyWHEQuTJPH8xRlB6PyrOxcSArMDPBdUMtOMuvYMLq/Pb53fTRM8jvTUBcSG3IbJckdKiSvDcqmKK5iopndi5IvLw0e6/rDpNBkDprIuKLsdFSelZ0K1JYkIaFOG0ZhpUds22FsfWVleHR9HIak1LlYyBIyQpcMFpileHOJ8hpQc4fKSp77ooLMH+S2Eyr3YWzdszJ6qDM+E0RUAVykFDcvbazlnoqyU1F5VnYqGHolYYYesCzAMUrSU0H0pdXR43gijKXFwHqMWLSQ6NicV5VXRRo8VERUWqzTmMjD4ZIkf/u+df9TZ/vjBKPZFMZFzGEcUVF2OCrPyk4m14ycc0H0rfXB093xKr5PPB1UyPC0o3Arr0pRRBeWswS9NIi+vTp+cRj2Y+pYI4K2dxSlQOVZ2bFAM2wbjwyTJNBKkmYv9MPPnO2tjiNa4c6fcvHAe8Se7QffXBudHUcY/85HJFAf1IPWTrSys1F5VnY6/HIMSPGJYfjQ+vi+1bAX8VC3zS/ZVi4SVORZds6Pf+Nk52gv8FP8nEq+oS3qzN1pRdm5qDwrOxRogFnyIrO+uT7+9vp4PUhivLmTFFqvjosJbjdb4yR5vh8c7YyeHQSoCfShBai3cSrKjkQNkLJzwSPb6Krh0xftKLl7dfRgx+ehbnkgW6+OiwqGKKj4ozh5qD369vowTDN84FNeus31oig7GTVAyg6FdADvFOEf8ywH8V0rg+d6QTdM0WkmT5KHydcvlIsBCzDaQs7DneiuVX8pSIIU3wVDm4nrhaMpyg5F5VnZ0diZHabpc8Pgt0/1jo2imIQhk5FthJlIykWBR69Jhm1rECfP94M/Pds/7Ufw4P4zNZFMREXZkag8KzsXMf9LQfxoz79zZbgSxuyX3/TUzttFBV1k46Im0blR+Kdnes8Pw1GigxaKAlSelR1Kan7Gk9277n9zxbfk7VWARIPf5ak/7Lm4UPFSifMP2DK7G2dHO+NHu/7JcQxvvgltIirKjkTlWdmhkO2P06wdpvevjx5qj4wveZMqTL/lSrlIYACb5/yEfJpmYZJ8dWV4z9oIuqzFr+x4VJ6VbY/pFL+CrBsl97XHj7T906MoV4NCGUooDtOpMm7Xtg83KrfP19+/2HzPYuO6mepi1X21z2i9itflhuql6CLLPHusE9y3Pj4+isbJK2sNfWrjVJQdAH/pVlG2H2ZwmmbimugT1vEikvThrv8Pnll7rD1a9mO8C9o8C0YxS3j7s8gCvywlc9mdNT37Fw7PfXBX85pGdZha3+lQ73Pw8JofmhzI+D3HN2P54l8GUv6+CJc2P0OPT4zY2XsW63/j6sW/cGDmSKNionHGMwpGPXKPYlJTirJtUXlWti04tdmiiyaxi/6NZT8xir68NPj/PLu6EsQBfkOF2BxkhL1kxp9TwzkqsvD2+frPHpz96N7W1c1Ky3PjLFsLkyd6/sdPdR9r++fR5qBY6STT5cpS3mwyWkuQw1mseTfN1/7FLXvfv9ioYugbeeAYRa1IfH6yu1QZUpRNRQe3lW0LTDcs+ZQJp1UShQx3nY92/a+uot8cpIWZF7tfTjjpWFJSSbSsXTX3joXGzx+ae+9i4+pWdV/NPVT3bp+rfXRP6+cOzV0zU0WeJj9QKvJYGvKMTBLGHu0oeazjf6c9fnkYGd8865OYxmF8FWVbovKsbGfQ+SI1RieMbT/suU1y3I+Tr60NP7c8iPArZ1bslN9GArPvWvKZjHINLIlGURYwUUJvnKm/d1fzHQv1ljd9FWf7as7Hrlh420K9Sv7ItXhz9jl7ZQFJyjNFhkjqiPr6WRLFyRfPD+5tj/EAPVcC1SIqj1awKrkgL9lcUbYnKs/KdoUkFnbdjIyyR0rSbKfdOPny8vi5bhSGtFoIg/TSjIRjKtc7tykxfHccTQfbcZyf2j/74d0N0itOa4Ht2HbDSX9sd+Nn9rUcDAyIN21FDRFzR7oUSOmi8ZT/jI2mFOWfZMlj7fHD6+OTfhQiAkXmnCMK3imGiuI8Kco2RuVZ2ZZIPws2PBcvrJIEh6l1Zpx8YXn4wiBIi1iTyMwFklceoEj2YtV972LjvYu1q5ue8TcgJ9Ss8GzrjoX6D+5pLdScinmMm8WvbJl6lRTBiwS5HcaP98Z3rQy70es0KZBfRdmuqDwr2xAy2/KsF4GHw0iF0T1L6XRvh+lT/eiuteEJP+SHhykWR4Qo5OoAJSNKZf05ndzJP9Ko/PyhmRtmKi3S4Tz5TLHiXNOqvXuxfvNCbbbCeYE3979LBFcRCpxSRRnhSsI6p9POnhsEnzrbP0MdaDSjUC0cioEO2b5YKsq2pFSXq6JsDmLjYdBZarnfSCLgWJnzUGf8p+fa/TC0EgqjeDGLNMWkUBEMGwPIpYMzk1pVz7l6tvoXDs4eqLmcWGp+UJC0RpBVo3FZdmXD/dtXzV3bqpodIA5N5QG1grrBgHah00i5xQ/rUUPq6U7wzZWReUYMGeW8Qp9pQbFY1xVlm6LyrGxLpI8ltptlOLPizDrrR490/IfWfT+CfUcEBLGVJ8OP6LQuUsdblQuk7b0LtR/a07yyUWm4uHhxHxaJFcGSBgn3Qi1rd8X7wV2t98w3jjSqKA8OQUBJQHJYnoun80zzyNRblKYrQfTZlcHDPT/kL1mJv2QCsZApRdm2qDwr2xUR6Fy4LMtPsqPdMcnzyWEc490eHAHv9zAxeSuay1ugZaMS4dp203U+sqf5w3uaNRuPgInociqRgaklpZ4iu1c3ah/c3bp9oVHSK52SSUWNZ9ak8Al4cb5Qb+M0vqc9erAzPu/HsfT8MTogkVWclW2OyrOyvSEbDiEj+nH6R+e7D3RHkAR5YIqkDQOq3G+jCTLhTAS7VEPcmdN0KzcstN612Lgev2k22oQxe3Jj2JdSn8rwryyg2471/XuaH9jdRH5F88oDFa+TWA6VvMtZkMKnAPqnvCD1WebEfvpUx//a2nCE/jNPkndycI9aUbYrKs/K9oTsdm66sTztR/esDZ7qBGt+ko8Bi1oVo6kiYFPk218qOB3o7Uvy5PDiQMIO1NxfvmL2lplqDW0LCSWMg5MOf9tKHTyibthf8945X/uRfc1d1enHvCm82AnUHUscutju4oNjcjKKY1IyxI0gcssie6rn33l+eGacjEW1BWw6ta2ibDtUnpXtDUx8kmXPDoPPnR+cGcaB+dYCzYuJgLFnByE+lwtOBhRaMKlaqLo3z1V/el/rcF0exS4oepAsrpwPs+CAhmPdPFP9+UOzB+uegz60RGY27Ei2lA0vDXIsmorMiuPCNJwdxw+sj7/THp8P4o1BxYaKsg1ReVa2J9wTg/mm5SjNHu2Ff3J+sBbxQ9p4VJjO/A0acPmRB6Pw1hFacazU5csTT5uT/21z1Y/ubV3XrM64MgLMmRNpRnz6l9eL8yYmZ4iT2tlVTe8vH5w7MlP1XPKhozDYUhZUJrwBNjV91nJAiTGpXQ7j3zy5/nDX5yF7gudIanlSqyibDF2RirLdgOaQEsGU21GafXV5+J3VYRjF0CaMiLImlc6yi+JyqpBwSV6Ku7OO/e5dzR/e26q6mc3tDg5EV5idpq8twkVkyDkmqLNlebY1U3F+8dDcR3e3Jvd3KcC0UWgfbAdw971Ud3MxTs/Js/0kfb7nP90LToypPimI08n1K1EVZfuh8qxsX+wsTNP1MLl7efhYx4ciCxC3EqlQDitN0buFfGLZdJ3b5+vvWWjcNMs3nRmjTYiUexmmswYHB9sV2/rI7sYHFpsL1Ur+OWgKZREXpzAZVC8BJi2UwizOsvUg+U57fM/6OJ60IS7Iu6JsK1SelW0ImW3pD/bj5MVBeP/66MVBhG9dwKxLx5Efzy4PpIuUHEyURHYhdej97q1U/vqRhXcv1Gp4rwqSTTH41dRFbvIHwSBbpF0JfhCMzrPD3WKUhGNn1zS9W+er181V65V89JuPAzJ+6zV8zJ5KAWVUhgZQOBiBv3N19Pvnen6CRoT2nJVtj8qzsl0hA26/MIx/62T3jE/azF0uY9BF/MoEdJEFEoPPor349ddszbtmtvbhPY0jDQ9ixVJFQHUz/H5Ker8GZIu6xiTh2N54mtwi3rvna3/7yvn9FfnlGB2Fo9G8UGXZe1mgVElLgu/E23YaJ2f640+c6xwbhRBuiaUo2xSVZ2XbcsaPH+7431gdtSO8hWRKschRtnvPrKCTLqHocHr9TOUje1rXNiszHsl2nmD0mCXiKzUKfWte0j+csjte2ofqle/f3Xj3YuMgXgiab7mhxzztLgGSRprzLfMstc6P40+eG7w0jOI8+YqyXVF5VrYn1K98pDv+9vrwWD8ciy3PlQvKtOFNVSUAPWYoqOkvcue26uAVnj+7f27GFTXl7zxzJMkPTehA8w4AxFrWOAoGhHmNgMOuu87BRuUn9rduna3mN7n5SOLARAZBVksApRmJxKgBryCFa2F255L/TD/qRUlpEqooFwWVZ2UbEmfZMEm/sDq+a32EV1MVfWWj0GTYS3bvGe/PYh0ymmrXPPfdC6334h1hruvIQ+gcE3GwllJUUmfzSjTkj18cRrAH9J7CUvNSbvjRIm261kf2Nm9eaFgVz1z9tBFePYbQcrVaKEkok0Kh2UHLOLl7ZfjllZGJpijbFJVnZRvSCZP71odPd8fL45jlRs5zNu6mn1oaEZogIiQdZLtZ8T66b+ad8/UZz8lfesm6azB6PfHCtrzEjPfDU76KUDqAZ9tX1CrvXah/aFejgUe4eSuzKTFxlQBKXmGgOB+AUpg+2hl9c214chSNzUtmFGUbovKsbDfIYp/2oz872z3dD7OYJJlOcppYiiaiRma9TJbdtBgkSVndc65o1D66t3XjLD4HSb1lTEaBKSaBd2tj3WQCC34ujBofWDXv3DaZZR9227ZTc5z3zdd/7sDM7opDas17mRoGLxHckLqgHUL5cLITo+Boe3T/ut8xTxUUlDEbivK9ofKsbD1IZjMMddIkq7SOW7Bim/tx8mw//NMzg9PUdSZEfgAP4dop5sbolwYMQdNEDgzh3tCs/IW9M9c1qy2X0yyti0mKaWluUedeExcvodNTIfSPnrJMtMNrWtUf2NO6db6xgBdx53GhhaUyCFJxItKSdMKx0grNT/rx75/rnfG5ig1ySqAcpbmRl6mibElUnpWtidFXCBo0F0Ycbgo52vG/tjJcDZOQ3y+1NTA/UIYEVTzntrnazx5o7q06rtGkzSWru/bheuUn9s9c2yKpk2ITpFRLA9LCowSYuKMvk2W3w/Roe/hQe3xiGPFZQNMk8YiC86Fk2VGU7waVZ2ULQiYac5qRCTbQSpLiPST3rY++uTaCcd4yiIpAnh3bvqpZe9di/b27ajOeA5WhoM3MC4tWZs17zo/sad0+V5uvoGMNsOADlgi0u0yqTLqof4wBbT/Ozg6jr68OH+5SD1pGTygKDBqXJvIIKccmirIlUXlWth4Yi+VJxIR7TSmtjtPsmV7wSDt4sb+1fhZLieWnpm2r6no/d3D2w7ub/E1IEZdNzApKizXLbrj2zTOV9+9uvH2R+tIsZZKMEkHp5Je0SDkUHzIxj5fbaep9bnl059pgmMYJlx7D8TETaVeUrYrKs7J1MboFIwwjbp3z4/94qvtIz4/Mj3q3EGhrUHf52pna+xcb17cqtI4OY5bZmzpEL/ui0rJtu+LaH1xs/MS+mUrFM2KGNkF5oMRSCSBZsFRIGjvgQ0FUxekoip/rBV86P1oP0exAG0MgB+JLNEXZkqg8K1sRmF4hd9krQfJYz79zeXByHG5Ro3yo7v3YvtZts7XdeO+mSA0rzkR23jqmwHiw2L6+Vf3gruatc/V5z530U0tEXo8oAXFTCsVqkRyn5PdyP/rc2f5ZP8anMkwAt2x4vokFpyiXGJVnZQsC20vdy7yvR6u29WjX/9LSsOvHSZKw15aCBZiE+X+4duGqZgX9QHlFGF48QhcpMiwR3xrYJ4aB8cMrvLGk4jp0uL92aPa6Zm3qF2glgXON5JDOJpYdy11nVL3tWFQssF72qVH05eX+sUE0MDc0WMXRkaY8ovjYU1G2HnruKlsQMtk8ST8ptbJxkj7cC+5eG/kJWWe5SbmlyLLv29X4gT3NfTXXc1haKIN8R5iFWzK8OaBhgzkdAU464k/vb109V/WqVGib0gjYLDjXKAjOO1SZHSge/mFdgveQEyTMf3i29831EUXhkuN4WFGULYzKs7IV4X4VTSw1ozR9uDt+uDM+PgzxscGtaJdt+/27m6TQDdcxD1JDKFlGsbLZOcL+WPctq+U6189UP7ir8fb5qinVEsFNCUCWSobfCfGazMPUundt9EB7fM6PI/KgU4DDgMmlomw9VJ6VrQh1nfBRfjtz0sxZDdNPnO081hlZMXWkqe+0+XJ2USFBrle99+1qvHO+njcukAdyQ2gKhdokuGtJO0dBmXKy7Z/Z2/i5fU3PSaWDWiJwR5kS6sJYQXq5MJB8mvhpbdtOUvvMMH6s7VMTbcxfg0axoReNuIqyRVF5VrYidN46Nu4tZqth/ETXv3clOD1MYI7lme3SiczrcXWj8veuWrh1plZzSFMo6aTQIkKcC3zXGctNA8rMk/xOib0ON6pvn2++a1drHk+llQn57XeW4MYzflJFa3kJiVQjP6TTyYP90W+f7a7zl6y2VP0ryquj8qyUEzbKmC6AfNhGs77Q/8uj8O6V0YlhPJS7znj9FsV65YblYVo67LmKe8tc7ecOzl7ZqBRfnxIoMxDrDfE3CVboHJRVw3VvmK3+3KHWgZpXeE5BqzRdhJS8KSQxPJ80VSQxsopSWvHRgb6/PT4bRLl/Aa1e4KMoZUflWSkl/MgPhnYLeIXXob2Y7Gycpk/0gjuXh308rc2IPE9vWC54xHWSOvtIs3LHYv39u5q7qkW3FWKDmbhJoY17U6HypC4olzKK0raONLxfvmLmhplqAy/6phicDMSUzrxI+sVIypsk7+sXCo22i7jxY+g0sdrj+PPn+0/2fH4EgUOmQEbzqXDBrSilROVZKR1sMTGmKd1k9sDoJY9pkm2W7z1kQZI+2PYfaPvHh2GIrjPba+k3U8RSAYXL2w2UQsiKaW68b7H5kT0z+Xs1LzooHToWTzim9M6zjIq77jh7a/Uf2td692IDqZWbu7wF65/LZSurpcF2uUFmktpP0i+tDI92g7Z5MQ3yQAtJN7LKEW2pAiZfKkrpUHlWSgkUeNI5YsSQotNH1jXOrG6cfW5peN/6eByTLWYhQWy2w9i0bBTJkzTazYp9y3zlfYu1W/mrkZeGSblQGiQ95tOTJL923Xa+f3fzPYv1aoVLkBNrFiLkZQO54JwgD3acZqtB/MC6f8/qKEgh0JJik3STXxZuM2pgfBWlhKg8KyWFLCePsYr1LHqfbGepnxSlLw7ir64Mn+4HiMO+RdzSyTN6bZy4oltvWws190f2N+9YqB+oXZwPU70OUlB4OQmvSNqg0NZts9V3L9avnalgiBvFLuXJ0UDJCtZ06DmVSCB+D/1Yx7/z/GAtjCM83S/xCM6DVAQaeGazyVJRSobKs1I2SMG4f8MGF/+wnxiKNXaU+8YvDYNPnu2ujkN+nxTFcYx+4yUlPJUHiJ8IgBE6HmC1DjSqv3pk1y2zdeN5aaCigjZJWniMgo9OBYxXbFlZzbHvmK//zSOLB2oVLnaqDQqjTVLL4R8ylcpoSDuMB6wxkR6n9ulRdLQ7fqIXtCM+N/g3eAij3OTniZ2ZT3hy7i5h+SvKm6ZMV5qiAOiGyIhxGwUxARQyiLJn+tGdS4P1iH/oLEjwJbuL+10xSRRlCo2J22YbP7Jn5sqG17q0PWeUFsmwHJPmSA7WTSJwRwGfgv7I7ubNs7XFKr8JhIyEBEPJaIH/MoEssQwj/eSkTjMp9B+d6T03CLi4TeaKhEPJi6zkWVeUsqHyrJQQtpjGbE5bT3LDDD87CB5qj5/uByM8r82GFkaWFjSxmEgHsSxw/0xShBxYjuO+a77x43tbc64jD0lfekwBycFRckamSN/mKu4NM7UP7G5cO8M3xUX5kIWikEuDpAUJk7xIJizqN395efBo118J5BRh3ebEm9RTpvI6yTdSlHKh8qyUD1hNMpmwqNQ7NjbUDFHSIvvkue6dKz0Lz/5wIM1goFmVJXqpukRIHqeQJcG2nUrVuX2x8gO7q1XzE6ZLCpcUJi4pWWHxoiXSiTKse/ZfOjT3fbtqlp2YeIhGQSLSpQFJwoA2JywvatsOU2vZj+5dG9+/7pvBfHgjKmoCg/QcFZmSQEUpHSrPStnA0KNxsKaJQ1SBekUPdoPHusEZdJz5LY8SXzaxN/5gtyxwJhx5YNjaXXH/L0fmPrDYqHDPmfN26UC5QIBljZf0f0Fp2ZZn20ca7nsW6x/a02h5eTAtZSoVlB78Co9dOBNMoy1N7fvW/S+vDIdJlsADYdQ2QmWg9SbZKNMzCoqyEZVnpcywWRUn29czfvyp84Pn+8XXA2lOVpdmsiqwZ9ngbLQ859pW5S/sn7llppbn7LKmFkq98eicKJrNec475+s/um9mFq/5JA9uShQtoXJxQZIkkc6JUfRwx3+kG3SoN21gbUaoFL6ilBeVZ6VsQAGMk40o21pYVZq/MIj+/YnO8VHMUpHKI9DoWJuni0Vr2FEekBxKHmXBOdiovnux+ba5+p6qRxmQrF5qoeChbCkgPjqOb4oMzjxFmX3LTOOnD8zP1yo2dfSnC7lEcGqLFMHBNo3SSf1kas+Noj8+3TvpR3xm0IwnOPLzrFS5UZQpVJ6V8iF3CNnyZvgghPw817q3PfzGSt8fx2nKP6SBXeaJcMTWCmyyLxGUALqIxMbTQfleOQSAoDk7pBkBz/Sd87VfvGJuoSKb5Bm7dKmdYMrILIqlQdJVcewDNe8XDs3cjhenUAlzFCRctikkTmqBp8JxiUBqTMIIOKSjTCnBSbQcRF8433+sw8+IUdq4aULwu21ooQZQKS96diplg4woW06ehMSyBkn6zfXRt9ZHSTr9solLJgOvQyEPlCpx5KmCvyOhnmPfNFN7z2KdFLqx4ddf0+4ygIKXEqZkLladn9w3886FWou0GqFFaslB1kNWRaS5Uorwyw70Nxsn6YlR+K210WNd3/gDSaVJNKdbUUqHyrNSNsjWT14VYVO/2LbHaXZ6nNy7HjzcDUzPrixQYvLfXkMPMIKdqzVnAm+/wLzheT+0b+b9i82FiotvX2CTIpelAq/24IeboVwt1/7gYvPdi43DzQp+oY2yp4X0UDe+iFveBsNbGZ+SkFl3rw2/vjYMM2rZESh57kdzM6SENaAojMqzUjbsLMO3nHnclP8ya8mP/+hM79gggHaUC+44mt4mObjnvyGNJFroOs/XvA/vbeL12hQX+UMsZBJSt2GDywsVPnebYRk4K3iv2AcWmz9/cK7hcTpZ3jhf8pUwxOfMcEOkhHKXOedG8ZOd4KF22Iuo5Ud55JxRWnF+KUpJUXlWyob0PUm0uDdmZetR/Ew/+PLS4MyYnwjj/9Ig5p3mZOn5akKzokihyIB1Rd376N7GLbNVvIdrIgkSrWQCQcUvbYcJ2bWtygd2N26Yrc7irjkhaaZI0o0mONeoupJlh7BTP8me7oe/f6Z30o8j8wUQhMi9//KlWFGAyrNSPtCpIbuJgUjqar48ir6zPnqkPWrjDVAltKWst0izpI1USkRLFMCqOs6ts7W/fKh1Rc3zOA4CTIdbxLxsmYJscaqoe09Sne2qOjfPVj+0t3Ww6XFiEYQJ7SeZKDM8sk0Z5HyXBlMdx0bRH5/rPjkIujGtIvGmehSlrKg8K6UDJlOGWG3Hzpxvr/ufOT/E14fEmOK7SpCIciAqxWmjmdh8ArqFINtyrmhW7lisf3h3a94zd29TbAA95zehmS1Kg1FZTiQSx0m19te8v35k8Zb5hkWZMIEmE0AyBk/aHBln3zLAvwezszTLRkHyzZXx4/z4gpQ6Eopk84qilAyVZ6V0wNSj22YPkuyBzuhoe3R8GJB55UCShLIZVJYiJE9SRWrtWHgjGPxJHD68u/n9u1qzruviFi1UDXlDZMhbIXClgZKGGsBP1SixlDxufjRc+8ZW9fsW6u+Yq5pES7oRmTJGloS/n4F8SUBpQAZIkLMoSe5Z6d3fHnaiVH44bxJcsvQqiqDyrJQU0uO1MPnC0uDxrj+I+LWMQtFDLQnoa4okccLI4sPo09yqu/aBhvORPc13zdcRhFDM6KozilBCYUDikSnOg4DWhGvZc57zwcX6D+xueK4DhSYw4zeWAGmRSPupfGQWnUNP98YPtkdP9cNRfkJx2kuZYGXHo/KslA/oXRZn2Rk/+sTZwdP9CDogN3TJmqYTdSsBxXAuOSnd8ssiSiTW9zfcn7hi7vYFb0+NohjBk3CaaL2EssBvgaG0k9aiGjhjgLOYvn+x+cN7ZxtVx3FcFmYJo1xThnmirSYDCSWAko3zhZtQ3MV/shf+wZnOepCg+FEpFFDkUlFKhMqzUjpYHqxn++FdK6MVP4rwZSqxrWJLy2T9Adl5DFobKy8pJDWznSub1Y8dmruyUXXt/K1mCEV8SJjZoFxI2ydPHSSM3TTDSHfNdW6Yqf7Xh+evaXjwBlw7RVak8soDJ5xTRTWCLJwbxw+sjZ/u+6sR/zCsTIlVlGlUnpXLRWEXL3SQdA2S7JGO/9Wl4Sjip5DgK8JBM9GDksB2X1KODqakELNDjco75hofWGwuVvB6beNLmChTPmViKk2Fs0gq5odq3i8dnLtpttoUgUZriaDaEQcp+tQ+yoBos8mCNYiylwbhV1aHzw1CObHYm3ilQ1EuJyrPyiWHrB8MoCxeOVlxmp3xw/vXR99cGY4TEmO2rTRDIDkxJsmuckBpMaO71Dnjx6OoPWFnP7i7/iN7m03XcXlcmMWBM4IlssOuEoLEcZIZk1Ke2HOx6n7f7sbti9UDos9oNjnchOJKwdZ5Q6oUFM0FMw5AdKP0P53q3rM+ogB++TYmfnWs5EImhp35iqJcUlSelUtMYfswcMqT6C0LAGtbP0k+ea7/UNfPDSPNWfxEldPiWaTSgN96uSxL6NlXXGdP0/3AnsZ7F+slS+jmQJn6r/bN/cTeGW6IkAdXlPzgzfwSWiquDMjJlfBEDtwdp/T5YfxUN7hnNRhjhJvPPapBzkyZEq/saFSelcsLLCNsu9hE2xrE2bFhdM/q+KVBaKylITf65dJmaTQgF7lVz3ZV3I/uab1rvn6oTv1L47utyKzbZ2sfWGzeMFtr4rfcXADlhU6ujV3gzErS7PFu8OfLQ+pJp3gYTipRUUqEyrNyiWElE3vJTlZbsY8JeZ714/vX/Oe6UTuUt3fkZhN9HjGxhVcZYHl2KGEsAJnj2NaVTfdvHt51U7PO6eWg7QQylM157s1z9R87MLu7RjaEvPDtEq4ZMwZeMviX2Rh3kbsPdC7ZT/SCLywNzvpRIM8eGij1rrS5CjasKMqlQuVZueTwbVr+nRGBoW3+waydZa6fZPd1x//xTHs5DGH0yRs6DkHA0HHxUusSCR5bfJj3FMOnVnqkWX3XYvNtc9WFKiVY4mwvWIMzO72m6X3sirkD9Spnk9pSqEwzlSrnkh6cPzjLeCIfnFerfvSHpztP9QKOk4OTS84xvEGmbLlRdg4qz8qlBx2sDQKLFZv6zs/1o4c7/jO9YJzIczo0y6PCpAobNi0XjvWOhfpH97b2VN0qvo9cTNsJKn+0R+YreJf4D+xu3jRT21Ap01JXBkznV7rEeTq52dcN468uDeiUWw5jDuNBHVNhxq0olwuVZ+WSw10SzLBiTHmaWX6a4bP560ESZRh9NOSDpWw+ywfZcGpJUBJt13Fma5UP7G7+0J6W5xgpIE0wEbcRGPGg/NrOjOf8zP4ZUugq3iOGkPLlmNKD0RpW28lZxVWWjZL0sU7wQHv87DCIcT4W6UdHG2scT1EuCyrPyqUFJg9GkMyfEV4eDR2n6ekgunO590hniAg4MTkA8Tkub4X4+CVPmZAhd8taqNg/uR9PhC16DnuRGODrwtsO284/yO3Z9h0Ljffubl4zV6+7Rb2wHJYF/iQGTiG+OSJnFJSYPM1PAKj3fPfKyMfwvAzRiIrj/ORV7UUrl4eSWTpl21P0SYz0mpVT4/Dz5/rP98MevvdXIBZSYpKDFqUy/Qyny3GcPY3aXzw4e+tsteKYhgdTstRuCiZ3VIXpnGffPlv/0T0zc5Wy3ms3bTs+c6hNgUSS3RNPmuwTo/ihdf/xjt8JKQ75UyQe2jEbsp+iXHJUnpVLCsyhUKxblp9kz/WDT53pLgViHwUKI92DuWQtL+25inTuqnm3zjc+vKt5BD+mEiQjnMPtRvHMFHJ3bbPyE3tbVzYqDfmRVekoKqKQ5zydWLXbYfJ0N/ji0uDkOEpxphXxsQG7FeUyoPKsXFK4I8yGj+0euVIrOzmKH+8Ej3b9fpRwuHRuaCZv9JR3cmF9aioNlEAn+9B89Vf3t2a8LM2/4cwdf0eG6bcdMrhN4kY95nRP1X7HfO1De5pXNasSWq4KwimGGkFTD2cX6sv4IKl0aiWng+A/nlx/rOf7KQSa644aIOwEEllRLikqz8rlQewkK639hZXBF1eG4zgjZQMYXMSCJ+MlHTV2kiN3X3QkAdN9etEemYjMs7NDjco7Fxvv2dWo42fPkxbIJUznpYWyhX6nqBfeWrqr6vzswZl3LtbxoWuT60kR8fyygoRwvUiSSJslaQYnSq11P3644z/RD0wI+tVSlRuiKsolQ+VZuaTIPT1xE3gibBx9fXX4UMefGlScNuiF+5WOUlB3nfcvNu9YbFzRrFRInJCLHWDQuRJoxg/h23XPft9C4475BrVUPBiVqcepLqguOgMudQXmNfIqxyWvPCi1jrbH962P/CSjLjSH5qhCK5cDlWfl0mJ6JPyOKdtaCuLPnuueHAQxfnfqcj9VxrHLAX40RdeIvJuTTbgdYy6vMEMP0p7zan/18OIHF5vswf1JW8a3adqmQi2KllFBpCnqk7KdNRznnXP1H93TauIRbnlJC0oA1cwLsxmGjSlEPEsCn3WZc//6+GtLoyU/DSDPkniaqAVSpnNS2TGoPCuXFFhlmDxYvTBNXxpGHz/dPzFiU+5EbLvLdE5CWshMi3Umt2veCilD3Jl9pFn58P76DbMVfm6Ze5Is0vzoG02kYWzltxWUJ+ld4vYzmll8H5pq7va56k8eaMw2XBtD3FJEpN0Ul9w0Zx3nDblsyoNUVhKn2bPD8N+dXDs+jsiXU0yTNCgU5VJTJlOo7CDQvTw2ih7sjI+2/XZEnS2ykGwJy3VOFroibkoeJZKXhG1fN1P9yf2tg3WvuiHVHG17w4VAf0VhEAdq7h0LtR/Y3bqiUZ0oMSYpw6JMylY4RSKts3702XO9p/tBh85JwCmfZFFRLh0qz8olhQ0zLDX1NL+1Nr5zeZiaQVCygA47OEpJgMawaSaHpC3jwW2MdqaOa988W//Z/bMLFf4chDzMzDN+7ZnkavtZdsqTeS0JxBlg2AAlZNsHqpX//srd759vIogKwXb4p3FxXhh55W54gddlh1KITJFrECYvdsOj7eDlUcyJpbMzLdUpqewcVJ6VSwz6UMPEenYQfmdt/ERbPurMd3NhBNlQlofipqN8LRhG3MM8s6q285f2z/7InmbTJZmGGJvuIrJBOsWDvnCJ57ajqCg4MPwrHg3PuWm2cvNc9YqmB12m0qAioEJDFF4VcmEvDWhccA6sNLM/uTS4c3VIa7bl2mQky5ZYZWeg8qxccjKrEyV3rQ4f7/lrAfedZdgTMyga3OWikBaa4Ko49q5a5Yf3tu6Yb3i5ODFF+slD/EqYnbeOZPOCrGGVdHix6nzfrsYP7p4x7zbdELMollJByZN2GDlsOhlf7IcPtcePdv0B3mFXwgQrOwKVZ+WSQkqWZNY5P/70+e7LoxCmj8yhGEBo3LQpLwGUNkkOUihpQ2NituJcP199z2LjmkaFI9B1xKm3pQsGE4+xX+RMttpOYCR7kik4UUyYcr8P7Wr9xYPz85WKh3IjhcPoAgJQSNxPLaKWAmojxhgpQV6QwDROX+gFnzzXWw5Jn8uVVmXnoPKsXGpeHEbfWhs/2w26YQxziA8VyLcK+Nc4pfoRCzrGxmnAzVT3xpnaf3Nk7mDdyZz8tWCw7JQH6DRHy6dtCJUJZRPZRuOFs2nyjOKCc7Zi3zTr/twVjataLsIy15SFKB2ilcryUHoohTQRlEK0J6jt+Jnl4QujeJCgyaUol55SXSTKNocsX5haD3TGn1vqr4VxJD/P4RmT63SJyBOD94zSRKvp4YZ3x0LjB3c1d1XEoBdckHLKGE3kWaocbRLIHPLF/WaCnxSDg5A3qbk/c3D+qpm641ApSR1TOJWhFEupkBvP7DBkwzg90Q/vXRu9OAiNn6JcWlSelUtHnGZLQXxve3T32oDf/FDYajbt0GaRwNKAtFF6eBILbmfvXKh/cFfz2lat6bqm3wh/jmJWhCJj25Y8+5x5YpL/dKHi/MCe2Zvnm7vwjRAZETF9a463saguM5J4qitOoTjSLAjSry0NHumMx8mFrxFTlEuAyrNyEcH7K/iRbLn32I/Tu5cHL/QC3OzL1Q4O/p0SJod/AF0e8PA1A5PNaXPcH94/85F9TXi+IqmSJZrYQRcXP7y8LUEuZWkkl7XNuCzLdS2n5aQ/tqvxo7taKApUN9U1/9SKIkiXuyRQWnASYoFVkwsrzLKH2/79a6MXBn6QSgtDYhjyDTb6KsomofKsbDpitWjCd/DJ2tGCHH6anfbjLy4NnuuHxljDGy/bYgdP6D2XE0qktbvqfnRP822z1b1VV1oXymuCN6fZ75qv/cDuxuFWlT+ziTLEXGq7REhqJHm0hlvqWNjWMMmOdv3PLg2mPkPOoXlchlc2+CjKJqDyrGwieNsIG6pimnSuzvvxAx18cuDMOMb6xEBzNJyKNM/HkMsHdYQPN71fPDh7bbNSyTOlvBZUqdRTPtKo3LFY/+Ce5i68Vo38aMYnRqnKj887Th6ncCMvDKIvL41OjKJRImNAF0TDqui5omwuKs/KJpLZGKZ28pdIuehCifBm1oPt8e+c6KyH/Bom/IhFzr0MA9qQZH7qmT3KBxoZlYpzzWz1Y4cXrmxU4VOq4dmyQfqbS/B1zerfuWrhqmaFR7/Jj3+pVKpGmNQkvgWapwqpN33oQWQdG8T3rI2PjyKKigBkhBwpznKe0R8tZVNF2SxUnpVNhKybQ1ZK7Bx/5wc2K87SE+PwyZ7/bG/s4x2ePIgNS0ihfDMSpi3vmpTLzIm9xu3zj+5q/uz+uVnP4feQUA7FfpcqtaWBzgA5FSyLSuy22dodi82rW5X8XZ4oP3aUA5xy3GIwlUknJJqU7Ekk62H4x2e6D3bGgSSfT1NoMjkg1nw+mBBF2TRUnpVNJDdTxlaZh7ODNPvm+vihjk9dZwwQmmCxhcVoNptI41kekDbPsear7vfvbn54V0N6zSaVZUtsqWCFpqnm2Huq3g/sab1zoWEab+Wk6NDjFwRYYMLzgOkoTR5qjx9s+y8No0QqfVL12Gqq360om4bKs7LJGDtFC7Z3ZMdGSfo7pwZ3rfoY7k5pYuHGQ7wUwcEDZDB25MY205avFGRZ3XGuna/fOl+7ukU9Z4zMIok8yjmx6coUXERUQKZWycr81L6ZD+9tWa7HlVyyWubETh5LhJtzQN1jOkXlHSxp9kjH/9LKaJwkcucGnWfJILIiLkXZTFSelU1FDB3sm23buJv38jD61Jn+mWEQxwkk2Ylxs5nOO3w4mTdAB4WtW9msNkFJcuyDzcrfvnrh9rm6dAgnXSW1ya9JUTRcp7bVcO23z1R/+UBrb7VSsleG5WCsmshPQmk7QojNr8Ke64+/ttx/cRD36ExGZGQQTUubG5zYRlE2E5VnZVPJbTKWme0n6dP94M+WBst+lKK7LBaQKDSOouaekGfyFP+yIN8w/uju5hW1iiQP/5LkSXaUN8C17Rta1b90YPbKZqXmUhGWqejQ4qIFKaykSk5fWk6PjthrQfJ0z79rZXTa558eTM5gbFXEU5TNQuVZ2WTIThmzlWVrQfRYz//S6qgdJRxG9o46zdwdQTwRafJM87Hu/OXMJcHO3j5f/fG9jUM1t+GgpwRk5NNQJpkpI1K/cB1uVH9k3+xN85WFGtV7mcoNDydSOvGuHF7lOc1owsmI28/scpb99A/PdJ/pR3GGJwPpNMa5YKXSv1aUzUXlWdlM2LAJ+KnJ19b876z7VvHVH5rhO8hs62DdZAPuQMO8ySM5pcG23Kr7tsXmD+6Zrbn8qDkJjaSQfzvGLjXLrwKVEzQ5r0083kyettXw7J87OPd9i83Jjd4ygNYhpTVPEieWqzthf84NMpONk+TFQfBwe/RcL6B1PDVhk7arOisXBZVn5XsjN70Alosm+hcrRY5Rkp4a48tUT3YD8wQ34HDud3D0aX+2gEbzLhnTVrVwG0fLxXeL75hvHG7IhxEFaUnI+sRXeXVQn5OKrjr2exca715oXNHwKnjhqQSRQyZZ5cg8u0zk1YrRHeMEmZWkVj9Mvrnuf3Vt7KdZfl5zpMuZYGV7ovKsvFleYX/gQf+ks/y2MDPSB0/bWovS+9fHD66PTgyLD/6gQ2Um+p8osZhmYhJ8KaBUTg4lPaR8sjPqLe+teb+wf/bd87WaQ3bapI3HNBGfO4TKq1OMh/CKlC3KzbXtKxuVd83X71isNzz5vTtNFEqGSEa8uXgx1CxbXUr4oFjmycBq4aY1k6p7O/4XV0bngiRI+VcHefjr8+ZiKcoElWflzVLYKmgx2zKz4F6GneI3rfwqEnJlx4bRb57onRyHbKjF8k4/GlYCkDBasDBQtvKXqHAOncVq5db5+of3NK9qyAeXOKNiitEc4VdGIbbyunCx0QnA54wUWPaOhdovHl5YqHv8lWU6N/gj31QdeChBHk3AJtiwXEirI0vj+Mxg/JlznbN+QJ44KSSbr0vpcqOUHpVn5buEzBG6EQBqyyYX4mbUDobq+Ch6tOM/1vHxExS2tXyvsWwGSlJfTDnQCevmmdpPH5g90vAaeMyYJx4hMHEuec9ua4E+JpUVt2e40NgNhQZ7q9475msfWmweqVdhguA/Vf4EPF7heZmRCkeSstQ6N44/dX7w/CAexeSD60BRNh2VZ+W7IbewIHdiiTc1iEG1k9Q+2vW/tT5aDZIwIeMsdk1ErmQYu8pzk7qM2h5zHj619BP7ZuY8aVXQnHLHGTWxCVXo16coW5ZqIEu77tiHa95P7WvdMltz5PWZeZlOwcpeUuz1MPvWmn+0E5waJ3oaKBcJlWflTUK2MuVRbO47550bc/Mty5wMP09JM6ufpn++0v/Sap9Hs3n0Mk0wgIlopTJllHR5uzLB4ss6UrWtd+5q3LHYOFJ3K46IB+DhVurqUUaRazMGizJQXh0qNJwv6B87Nk0yLoEys1ue+0P7mrfO1xqeIyeUEWOMwfBXUkpXslzZlFLOEBKZJF9dGXxtbUiekgG+CaIom4bKs/ImgWXiaWI5+cdF6G7CwvLrLleD+M7z/Wd7YR9fpuLXhBFQNd4Q93fLAxtcqAJdBfmF4Nj1qvNTB2beu1CtOPK6USMyIhyIn1tpkXSzobIBlBaqm0tIKh/wSUJl6NnWnor7od2NH9vfrOP2QUG+AZ9Rxq8USGKkxvln+qn9bC84yi/iHuEmDlGqBCtbHpVn5c0DeRIgVaxduUGiZRak6clR+JmzvZODyHQkIGa8kZHnYgclgU0tMPmYq7g3zdW+f3fz+pmqpJu9KZSlGfmGxOS5Ln79rGwgLxRp0bBj4kZxkvJWHOcO3EFo7a15VRmlIBCRHGW1S0hefkrb9oqfPN4Zf2VluGa+lFFkAUtFeYuoPCvfBbkswYSSCaKZqHSWUUczXY+ip3r+n58fnBnHeP+XXTGD2xRDekKlMlswo5R4ugQoefIIm3VTq/qxg7NXNSo1h/p0lHj0+1mZkVH0pqf1GHkqikS5EBkFNg0bKUS+P0KeckJc3ai+b6Fx02x9vkpnC5cl7jXwVlDBMo21mCQ7+KZLJg+cU/LSJ/r+v3x59ThOeGRswtRpoijfGyrPypskIw1mowkri0fB2ERh3Tic+9r+55eHI/O6BvonzSt+TEVztm7lghNJM3mw3M6ann2gTp055IuzisySJEOVITHoOVM8WOJ8zFt2pEwj5wbKDtXPDjlfAKkaVqg8Hds6WK/81cMLN89UsY5zhG882zHvQuKXAz4dOOGUPGQBPpYdJtbqOL53dfx0P2RfzqVMivLWUHlW3jwwPrBRxQxGCIsws8776YPt4P62H5PZgm2SCAKUjR3lM1qSolw82lHyVD86MYrXwsRPUr53ajAxpmGVUV4HSJg4qPDgzp/vN57WfNX56J7muxZqBye3oDkGKGXxSqJM0uw0s8dRdvfq8GhnTGe+UWhF2QxUnpU3jenN4KkYXkGPEiO/djZIsqOd4LF2eGYQo+uMiNJhQnxMcJNDnqApDZQJx+OEUY7wJPbj3eD/PNb5ytLomW64jNdCZQnZXO4+c65IXCh/LDrIOT/Rrbw6GHLASUBFxMMPfAqgxPnM4ROEX/N5pOl9cFfrvQstnF/YAk96c2mXCaln88Z4/HMC4YhS68urg/vagzCO6WyZOiHISeeVonyP0EUzdTopymvDGkv2CKPc/GMY2CfyDbPs6UHwa8+v3b86Pj+Kckv2qlAQb1UeKCPmEkDWaOG5zvXNyq6K26jYzZp3pOZdU3evbFauadaONCr7ai7fi+b4EBtTKCDPHIJ56DtfhTDRLIUH3GTjzSYct3RlsmnkJYIiLrKcQ+XCSyrP46Po0+cG/+NTyxiwQPtONjTb8pzXqPDMNvSf+19mOJF29sHdzb9yZP7nDs3tr1GDT3y5L525sLIcSfKjKG8S99d+7deMU1HeAGNfMC9MjW2dHsf3ro//4FTv/Dh6o9beFjBQaZathsmpcUSa8eI4Pj0KT48w3H1sFL3EPmfHcTtMxmlasW3PcdAZFDnhzG3IP/tNSopdMss9iSnndqPI2qsqExcahzVdJ7as4348jNJRLD1O2WJqO44rTiynQspAmGajNHvnfH1X1a3gJe2EZNDUOzlKlmSl7Kg8K28WDOay+uAbeugE4jEpErP7O/5nzw0eb499+XXJNiJLsn6UnPHjZ/vxA+vjr68Nv7w+emkQng/iQRxXbZfsMJVJkjdK5J0tmMibjXE+g41mv4mbwfgvFryyo8DQd14S1MghSdtbdZ7vh9T6mZxG071uOLhUMcmiRAzjtBulb5uvH6h5C55LZwUuE+QPoZzcciVYKT8qz8qbhgwMDCpZGTI9sDYkS+th+mfnB398pt8Np6zqtoJNa563JMk6QXxsGB3thF9ZGn19dfRYz18K4tjKGq5dtx3+LjTLCJYk03jLGHvxohjdxs4gUabBI+s7CVMc/EfFVHOsK+ruI73wxDga4/6+Cc2hYqKpWOdQFGm5TrphZu2ve7fM1ooalZzIbCo7ivLGqDwrbx7YR1EqsTPDJLt7dfTnS4NHOuM3GNXe6qA5gqxnWRZkWT9Gu+S8H1M3+pwfnx5HLw+jZ/vBc8NoJUjCNKs6tmtjQkEZy0yLXJaxwh5wT5w7FRSLZ+MD22tRSgX78iBAiWwolGLFlJqZb4hzmaFLoJek+2re1U1v1nOp9vmSmUojnw6K8iZReVbePNLVIyODRZxaS37ymyfb31kfUdcZT9tuY+MjhpVmNDns5v5QmKbrUXxsFD/aCb6zPn6kHywHyThJqfsXZfy778xyHVveK42OFAsKtjT/WJi1HQadQ8g1FtTmQVHYtjNbcUdx+mB7xK/NJKRgqNTyEkL83BP+fEaWA0rwIE7rrj1fca9rVWt8nphuND+4Xq7WhFJ6VJ6VN425WwizSIvlMH246//hyc7xYZTA9pTIUG4ayBc3OzJ5rVgxKg2DywtoBEcj65yNk+T0OH647X9pqfdoPzgZxEGS7a66sx4PcWMTii2/GqK+OPbALvztPJB3Pp24bLgQZjwnyLJzQbwe8rcai7e1SxTEJzdvhYnLv1TYVie2+on9/bsaJNLUMkOTFmcNnUWSAUV5s6g8K28W3CiFdaR/PLEDbT7Tfbg96lM/EU/BlM9WvnWMAFCu5U4nOy6EfFi27SxNLdLjfpy2o6QdpWfH8Uv96LFe8Nww7ERp1XGqjo1vVCIuNsC+sJTFzoJvFSDzor9SBh4/T0UF9eQgXMFXVRBBygnky4lP+YjQ68+ONDxqlu2qyus/aZqkXVHeJCrPypvHCDCZ1fUw+fLK4OOnu+0g4VeNkPHZvvKMGWWQdbUws1jSf7HKCk0xjXLYozhdHicv9KOHuv4Lg7ATJ3FqjZPUz1JSJJfvtk7JTOHYWVCpyXOGyD93NeuOu7fqHe3h8Xg/SfNbCZhNCmlSbuVBGnB4OiGz0iTNrmxWrm5W+Q60CZ7KgKK8MSrPypvFdHMsK86yr62M/3xp8GB7lCRkYPnbB9sSjGwXz2LzS6KxwuWAJZlj9qcV2zUjsRxoQBySnGwQJS8Mxl9fHXyrPX5hGM9VnPmKM0v9aFYmjrcDgTBTgcmbuExh2ZbrWA3XGcTJehAfl2fEJLBQ6DJqM8HvQ+NzIUizl4fRjTP1W+fqTcoPUk6ZTHZwXSvfCyrPypuCLAxLj01y3I2S3zzZ+/rquB1EMDfGdG5L0yM5Yg02zjyPWBZuaZ6IVBPkL0aZnbgtbUWZ7SfWMLJWg+SlQfid7vixQZCmeCPHjIx37zSofKTFx00UaC6fSiRxjp3NV9zlMHuwG6XmETFEzIu3gD1LBaeQ/uPM9hy74ti3zVU9vus8yaSivDlUnhVgpAQWk12vAZmXtTB+pOv/7qn+M/3AInkRZcKG29ruSOZQTOzakFcxuxQ2JeFFadASEy8ym9SGGjfUtXpqGLw0CsM4GySWz3cryZTTJBsxb1QZWx8qFc6hyWaRWyqG3VWvH1vHxkkniEKcZuQt4VwsUjblPeWQuH6S2nb2fbsaddf2TAPOZPgCprKkKBNUnhVAtoH+c3mmBVzwzD1gb2Bbskd7418/sf5kOxiECaI4+dgdpEW22JagADDJ8tWZimOKrPAnD9YYCeIHevth+kh7/NW14PF+POdl+6uVhQp/9phj83NTsiF7MLkXPKUbb1a3Ikg6/UvLpciIOOlksmdd+2DVfrDtr/PTVvm9f4nK0Rzyz7crC1RbfEMks4ZJUrGtt83VdlW8GY8yZK4nqTiuTPLB+7gRQN68KF2GlMuHyrMiyE9yJ9aB5IVNIJsQm6QFT2uvBOk9a+PfP9VdD9JYohibw3PldUBx5g7ILIqayjTJsmEUvzgIvt0ZPzsMSZ/nPKfhQoqg8OY7TyL2xS7YBzuhHVAIvNmxrag4tufaj/bDtSgZ40XcKAnKMp9yeV7l9CsJqANKGFcIt8aCzH7Zz26aqV7bqiIC32uXlhUygBqULbABbyaVqShA5VkBbBiMmTAeEF9jKrDCy3vXx19aGt6zOo7ljiABk7TRobwBRTHBNpOxHsfJOT95eRTTfBAlK1E6SFLqgtUdB50ujkj/vNlUEZMzrysJmgrbDpA8Vx27l2TLfnxqFE2dYOKSqWSgEmjiZoSF2xang+TGmcqRhrdQ8aRlQUyeNeAcYIbmsWyuKAaVZ2UKvHgES1pwLwWGXwwGddPizPpPJ9p/vtTvhMbKMOhYswPPIbNDeQ0wAAFJzrtPNm4NSJmldpriqbGj3fHda+PT42jOtQ/UvDo+ukFb5DelpXoI87QRasqy0VRih4RtHyqOc02zStr8UHuE3yvhDi63Fc0pVzJQH6y8lLp84D1N05pnzVXct8/V+cViVE8Yukcs1BnFpysts1MnH79SFIPKs8LA7ouFZwdMC//oB8OnKa2vBum32+NPn+0/3fdjvEIrR+LKdsqrwsXDqowGD/vkhSUqg1B20RwfAUvbQfzMIHhyGPTiZMa1ybibn88iJk35itlP4SWr2wjbqjn2IE77cXbWjyMqQHgiv/lUQiiRUtGSPLudZE3P/aHdTfz2jvVbrrKpFhU5CVyE+VaKovKsCBAGLMwaTexkg5HFmf3cMPrd052H1n3q4Uk4gg28anRaeSVSXJBemG4pJPETh5CvUldqnKSrQXw+SFaCZDVMhklWdfD7K7doDE0BlTYeG/y3Bx46mzadgQ90glHCTyNOxobLll+uHcym68gZJWndsa9oeHhGzMXTf0aWMeNNKL7RZqLYUNnpqDwr08A00P/GhdON0nvb4391bH3NT1KMpE6PY/N4IyBDQxT+Ss50p2iDQtNCCo3Iy42WPISbZtkgzl4aRI/3wnNB3HTdxYrrsFbJBzYMiD9ZbDMkS3MVx3Ptb6z73SiOU2rl8PPtpctu3sBF5VAN0sSVS7WfpXTZrEfZLTO1A3WPUj8lxcUJIDeWjHArCqHyrABjJDDExg7MyY8NRmbf1xnfudR/YIW6AWw+7BTfp4IpEQPEE7aUjZUL4JIpyoYKCsVl1nLYrJNnYbkJLt44tVaC+GgveLjnp1m6u0qdMPnafx4p39uFu9wGcD6pOeLaNnWjV8PojM/fRkMJUoZzRyngK0IqAXcxuFaQupRqNkiz8+P4plnI80LVoWtKhrJ5RAUbcH2yk2eKQqg8KwA2ge3JlIzAdiSZ1YuzT53rfXFpsDRO+PEcisdRCZFnsTBqVl4LMbzT5YMSu6C8ZFX8pVTpHw76J+PejtLVMFkNovUoHafprOdW+JPSiMe1MF1x2wjSMChZxbZ3VZzTfnJ8FPOPrLiIzLw8ILGyNKB+SKRxHflZWnHtXVX3trmaiUYB5jOsaBZDqosNFUXlWTHk/ebCypOxoLVBnD7RC//odPfbayN4TD7CyxFJGGgzmZTXQUqs4ILiIpUhH9EaCaGCNT1Ds07/JEvHhuHxcbQWpk3XIW2mbljdSLSJs73gc5Cw8SOrfdXKcpieDeIzo5DPQj4bEaFMGd+QHkm/a1ao9x8lC1Xv+xablB1+Fp/+eeI6lFMA3orCqDwrDBsLSC5bCFEKMinHx+G/ebn90LrfJZPIPRkWEmNQOGpuT9SuvCEoK1JdKqu8gIEUKf8+jSaMT+RFmblc4GaNcYZJenwYfWN1TI45z7m2WUEME2eb1QFlB0PAnCsUTQsvJ7e/uTqK+AkI8zur8kBpQcVy5Zp6tK2UWlqs06kTpNms5+yreftrHj6VwblDzsTFa7wXRQEqz8oEsRO0IFNBtmU9SB7p+P/lZPfsOMZ7FdmOABgQ+ufV8hsTGMoinUVy87x81xmgDaVRUogiwasXTq9AtPbCEFqfkmTjyOdFmecJTjObWkqDOOnEyWk/OunHdZdsPXWjKfDCXQuy5auHlR4qa6k/Kouai1HiF4bRMMYIP+dJpoIir1J0F4ReQooKJeDEf5bZfpqtx8k75mt7qp47GcwuniQgpjZUdjYqzwozZcLNzLYe6QZ/vjT82spgGHPw1rUblHKZijxIp2za51UwMVA407FEm4nCU7pxF0T7rsl3a+AUToPVIk66FiUnxjFplefg40jUG6s7GPHmUAOqzdQsXgP6KvvcMiBjVRcPrkeZdXIcLuEHfvCfmhNTq5jRfxF0mTDJMI5+ki6F8Tvn6gfq3qxnxr3JP0/l5U6tUiZUnhWGjDf6G9Sep4Ux4r9zuvfvT3SGMfVYqKcy1cPbWiDZJJ88yfAhsjo1LkpLmQqwCXeRxTEdJKsyCfK43CQOyWDKUs1e0g7YBPiQmPHhcAAnTq1OGN3fD86HSctxrm5VGm5xUEoWTdgGOeFV7EVStUXgRxGRZ/rP7JTmLde+daZ6fyd8ehDndwQo3OVaoLzyB1rE09R1meDCp9RVHHtvzbtxpia+CDAnm6JMUHlWpmDrQf/9KLlnbfiF8/0numN8cJcNCMfYopAYs6IZaw6hYmSYmn/GXfgVLv4QiLh4ziC+yGThTTun3UoLgMjDZFsTZ7NgEaI00L6x54w6xXGW9cPk9Cg66+OrlPtqeMUYjD1H4K0oMlt/9jc+WwDKrBQ3QQLGpWzbNddZjZJelJwahXlgnk0C2caGJqhcIElpZnfj9GC9cvt8vWrn7cQSJla53Kg8K0JhHvBCjKUg/t1T3fvWxyt+zJZOhGdLQxkUqy2Ig3PNOgYPcZBnYdtlvgHZhCfsI1/FP3Xd6BB5sDnWphYdfvLLiAjBgb76MM7O+8m5IBlnKSnYYsWt4LfCkhBJjLhovrUwVZLnBBmhxofHb/q8t+ObLvJEjAsHUThKBcYxSJ5nKs7+hnew5tbkfepofpQ0xcrlYhuYXWVTEC2BfQjTbMmP/3x5/Fw/MuaPAjGyuHVBBibajKyIVLO/mSSUrggeA6f8Zq7pK09TdKmxtYwfM3Anlp3wrgjeCrNX7OF7A/unPVGSOLXkYF/uSVOCHT+1numP/t2J9f/l+dUnemGX+tT5sSFrRXa3EkXCucSRE+SWnHfM19+3u1mru45om5ylklsqH1MmnFsOKQ2SGtTEQ53x757qrEcxn2Kk2fxwACdZUQTtPSsMGQnuqJCZONoJPnG2/0B7NML7HwgydmxWymXp3pAiuWKmTQYZNt+IQJ60ynaRHGTQJ1GKII5o9DuPgAKhVQdj2hRTlIDCis3hlvgS8y2D9HJrAIfgxLNd50OIJ/0nlMxRZD3RGY3TtOm5++seQhDIaTMrWwNuj6D9IQnHGSp5IG9y2daeinN6FK4FEdpMEkRIdMShquHCEf/ygOQ4UWqlaXb9THWx4s5VXM5aUY+KAlSeFYatWJpZa2Hy1ZXRn5zpnfepYU+eeWgJzdzrQUmV1OZZoFV4TK3ms5x8E9j3yRojeedJ7hVKUBEBhSMOCp1CNtoUJvthF/rQ4iU2XUA6gzg7PQ4HSeZTdVr2jGfLz4VNlK1GnklyScVwXfCXrA7U3Kf7wfkg8RP2BDRnR7E2tSgNlFqHkhxmWeJYVzQq17Wq8C5papXLxkZrouxosijLnu9HD62PH+/44zhhDZAeW8odlC0FrBysutFOygXkisXMGEDJmqyTxedJRraxCYeaiNQbc/MplzrEl5LJ92lEWkLJTVtt3vWFFEkKZf9cI3JodKPZpzi07Xxn3f/t491///L6Y91gEKdFVrYQnFsqQOQcmUIWJtmY9ZxbWvX37GpeO1ObvL8FpcFzlH+KGpxsURpMRrJOnPzx0uDBrj9OUr53JBlQFIP2nhWGTf8wyf7Lqc431oZLeCKMLIVolcTYcraDmhc051xgWWgbrcqwJ/mIfE7lC1Hof6NRp1jw5FAKMdGn48h+WAzkKGb/fA8bUvHWQSLMnPZXHAh5yYPgIJEm2YYHniEIoueG0SjO3j6Hz105koutA+7IcmbkkXNJPXmxXKMs5j23Gyb3tQfc9uICR5NLJopLUahYeLPyILUgjaokWag4rYpzdaPi4T765HpTFDySYJzKzmY9jJ/qB//0udUH1sdt81ZjOTdgNdixhaAEU+eJO1WW5blWw3NaruNkVt2Fo+XB4rMhTOddj3wqaIogm/jxN2/PeRYjCrfoBFn9YZKMkmScJGz9rSjNVsI0zLI4S3txEiV2gn4shRKbKM84ukkUgV+7iRqxJzSJfCUCB+UJn614b5+v//TBmR/fN3NDq0qdTvbfGphsCVSMnCmqJikFJ7MHSfr58/3//cXVZ3pRP+bhBFQVh5sSKCVSa+y6bq72Ywdm/+frd++vedUt14BSLiYqzzsZWDJxUd/j0e74k2e7v3eyd3IUsz+JjJwbZNDFmpTyVIFs4uMQVdsmiaWEVhx8fJDUlj8TTF3GtFZ1FmrenornWdm86+6uunvq/Fl85C05VKtRUNN1EgcdbhfyjJFiCKsRBLpI2NeiGO5aFK2FUSeMbcsj+fDT9NlBMExTfDQwiEZhFsRZmJFGp3FGbryHMsoy6svS6vd+tYnYiPBIbYiLkoXXW+byLOYd6ZWYvOrYjarzP1+/56f2zdwyU224W6YbTXlAQiWz5GJHhsoBdkYCbT3Z8z9zrv/bJ3rHhyHen2O2kYaRnMMlyyxqh84+nGKW5Vqu/baF+r+8de8d8/V9Va9siVUuIyrPOwPT8QBmSfWOR8EgveQzTtI/ON37fz2zsh5Q/w9BZhtsxqafYokbkwBf48Tecn+4WdERne//4QhsUs1OXhWWFrMPOYpMLh+FEsOdQsBmF2kjNSa5tGued3W9cnWjcqDm1L3sinptb6XScLNDjeruqtOE3jouaTbJFO3OzuSHs7xb+sfHClnFed9vjE0qm/CENJAKZNY4TTG2alkURFo5SJITfjCOnWU/eX4wXouSM358chyvjCPzJkoMvHNRUI42lBvtnnYr7SGKwEEoFg5CaeRzWpVoZmsuf+ww35tAFYGdpI6T7WvUf2rf7N84MvfOhdosf4+B95kj2037bAUo1dRpfn4Q/N+eXHm4PUriGIVgoDyWTJ5Ra+yQRGGVzuFsX9354b0zf/vqXR/e0+RggmLQRNXHcaVaM363GAcrOwGV551CYeoZWcOFz6vWN9dHv3eq95vH2uhzADL3hYSwByBXcbaIr/iI52RvuaOIXPBq/q80OUjdtNKQG93h3RVnf9U9WK+0PJsEZs5zD9Tdmoc+8i7PW6y4sx51oLN5z225btWx5tAnps60JIzfmwhYyWC7Nw2YUAgoK6SNzzOvx0mc2MM4XQ6jUZL1oqQdJYMobUfpepR0wuS8H58P4pUo7YdJwKPhZl+0NJekSK+4TRYQRAdBXJh1DsQGeRwi34+Bd4JNaLKva1a/f1fz56+YeddC4wq8sYoiUDDZAAz0w5Xfjd9CUDuJSvU/HO9+9mzvofUBl4cUwqsWyOWFE4N0mecDuI2V1V1rf73692/Y/fNXzB2sedTkQyyuFHHwvRI6gblySpUh5WKi8rxTkIqGEuLyllqHeUizjOTkX7289ukz/UfWfXgas8b9XcRBtNxNDprEM/cn0y8OzMgzRyLCIQct9pzHB6If4jaeZJYajtP0qOPr1OysRnPPrVScIzXnmoZ3fau2WHUXK87eqntdq9ai7jD/mT3hBjJSLg/94kgcZoJ5FbNNlGdoMvfmeYV1jsWQveDgZJGT7Cxp81kSZj95eRi8NA5P+MnaOO6GCUl4MY3jGF1zgXPA5cOP6dGaI1pO8kwOHBs751icY4ppStMgPghCscxX3J87NPszB2c/uLu1u+p6JmEY7eZ9QBE2bl9ukDv8QumpXvg7J9q/daLtJ9TYQacTQxTISqlyw2cd6rSQZ/xL0F+7auFXrpz70b0tl59zI+VGZZhgPOiAWpS4pcqTctFQed4RQBmoqtkkcNscDrrUyTiM8Amd5O89fOau5VFU2HqKgk6nbMwbwX7TnCUBsDnHLvh+L3uIAHBMjiOvuMLmsslGMO7KDhOBdsXq4DjVikP9vJtnqje3qlc3KkealUMNb3/NrdgW9Sw8G6+KItNFps5zWHxpa0otDkr5JMXhvRWpKA6EiByEA+bJ3gykQUD75S4t9sulyAeiHE3AGLgMjPMIuRXj1172Wpg80w+eGQRP9cOne9FLA78fsd6b0qY9efmOKS9cpPSPPXOuNxyCMbmjII6AnBsfKrSG6/7Y/ubHjsz++L7ZOf5JtFS74RU7KzWc7NS24iT5+OnO//7y+svd2De6TAXFlfDK8rn8sE4jcTxRAjP7ypnqzx6a/de37ZPKpkyhbjgPnAFkCbnhLZWdgMrzjmFix1lEzdWePtULfv90/09P914chGwmxGSYCFiaDdlQsAf7s3LQEnE5FG7eliKbc8oEbwBxKEQ2QQeh4rlX170rG97hhnu4Xt1V8+Yq7nzF2VVBF3nWs2c9t+W5TbxCWvbG2WCndFtZXCRtpF1ObtTYgyNJEPuwvaYl72NTwG7lKsJxTN7ZpNIfrwhTTjy0JOnlVPhpuh4m7TBdi8iRdsP4zDg+NopO+ZjO+XE3IF2n7Wlisw43ZZQ25rYWOciHk5AfUay/JI4d8piBSZx9uOG9faH2o/uprzZz21w1o2Iz7QiJvXUw2oVqfbg7/tT5/m+93F7yX7tReNkxqc2fqJCLEedv1vC879vV/J9u2PWu+cb+mpeftvg3bpAvlR2AyvOOAQZLFvzPa50ovnNp+GvPrJ8eR4OYOh0UwhOFoaNFCzL9+TNZ5JAGPSBPURjeglzYRFY2ujdAXdlsznUXKrhzPFuxZyruTNW7sVm5vlW5uklTbV/VnfGguPmm2FGxH16BSZb1FH0M3FSGP7wy6oySWpFzcmzjwonOS/bcTHk2h5/YU/bK+818gZmiMoqBmLk8U1z24BVM8DjnJ88NwmPj8OVRdHwcL41C0u9ulPbitBclfsL9QuxftuM2AWqH3FJ37E+gCyb7JH85ONaImYpz+0LrY1fM/eT+1jUtPConyTf73CJwVjCjzLXj5NGu/4+eXn68G1JZIUTCSwVKl6rPYzfXi4Ec9pFm9cf2z/ytq+bfvdDA03ucM4ShbiTmVqod5S2i8rwjyK9sWpJFcFDnsOPZ0Y7/idOD/+35dR6eFSNO1z+b8lTexEQb8VaYXgsoCnqtYm5oT9jJK8Hj0V7Nvn2m/r7ZxjvmqrfN1a9rVffhx57Qsnwj7MLhdgCSKX6EWaFQcUl0HAwT/OifNuUdkR/F4xiYUYhxbXRvAkiPeWaH4OPiHyPstMKJ5CNKYjiJFlWAiDeuPjgosEgubw8PKU3Lz6zlIHm4GxztjB/vjx9ZH54dRWgnIT71iVOUFh2LNzT5or4ydst1R9HgpH9RLI4jcW3nfYuNv3Rw7r+7fpE/FE2+NPGGWwbOCYoCJ/D5IPnN4+0/Ozd8uBNy3vms5qIuDZRgShXJM5e2wzeacRpQhSY0syveb7/zwM8fnG25km6pDj7P0ejbSnWjvEVUnncCUsViv2HJ4MFX+T97ce0PTnWfWg9NoInJcEQDQmUbFh2iECT4F1sZXTTQHlx7T829rlm9cQad40NNb1fV213xdnkOOtAVt+U6dRYXRM/tKCQlt0OTXbOBYk9JicQzviZvOCT9YYX+Ja10ipt98Uyg0z7v3b5lcAXRrqAGlBDsFBcVG9xJjvjg8AUmuSZB7EYMXs2ylDNFaZZRAVoJ0qwTJesROtBLfnRiFD4/iKh7/dIwODkKUBdyFeOI2AXPBdqnBHELBtAi97SyxYpLjaSfvWL+p/fP3DxbJR9TVlsOLoFRmj3bD/71S+3fP92z8N6YUkK1isuHEpzy8xnshAdXimP9X69e/OUr5n5ob0ti8xynNoK3avUo3wsqzzsBU8WFtNJiEKcvj6J/9OzKF873o4ha8WzZZYCUohVbYKImfe4PyIcchVsQB35e3PCsvVV3X9XbW/FaNfdA3bumWbmhVbmyWTlY9+Y9F0PXGzA7KeQZyEEkjMNNmqa3RRyjS0bvCLiwwpmVjUSz2c+A037z5NksJvKMFXGbQ1AUk36UvSQSi2JjGN88hOUZKRZ5Rhj2Cif9h6m1EsQvDqMXh+Fzg+D5vr/qZ6f98EwQpSl1y4sdskNGtrFK/3wAck3SgHu081XvlrnG/3D9rh/b11rAp5O2LDxwE6Tpfzje/o3jnZd6fpwXRsmQSikSh2ac6R+D9B3z9V+4Yv6/vXZ3y5Mf6HOAtO1UnncSKs87A9hkuf6xcDLrpWH4u6c6nzrTe7rnI9jmm2GFPGPiG5zkIANBDnOeiCmR3dBW5O845rUemWs7Lc/Z13Q+sFD/wGLzfQvNK/EWSdogRQ8W0irPD3834LD8n0vaBgPFNouC8v3SutwppzRPRYMTEaHKnAVaTAW/JWi/eL/Lhem6YP8oQfahGZYmMyhk+HB64Icd5WGMbMiNJ0SQHXNcG22ss+PooXb0hZXBV9b64zCNkizB68nkAFxBqCNy0gFkj3lCCAQhHgX9P2/a8ytH5t8+V+eArQMnn0uPHSi+9Nvro0+e7f/W8V4/jLidJKVXEvjMdLhnj3TTCUDJ4wfy82qhbPzkgdl/fOuBG2Yqc/jZPr8dTSjiKDsAlecdAdWxGH3M+Aq/b330tx4/d2IQDqg7ZsybmPJCJmjBYiwWBJ5kU8xbrNlNgWRonCN176ZW5Za52q2ztaublVl+4nqeH/5quA4pt+niIj5bSxwsN6gMBZs1uCTyVLBJkHHylrzFdBQJRx9ULBlm5txGRIkq+2A37+BigZ3LsQgjpUgOlq9x1Dw92AyNJFrJe+IGDoEDO6QQymeSZUGS9qJsNUrOBtFL/eDRrv9w13+iS0rNMoA+mWxCR6at88O8go9dOf+xw/M/c2DmtSKUGpy2KBsp3k6U3Ls++p+ePn+sH48iOZNLwgVlK49KcHs544srP3mvm6n+6P7Wf3ftrltma0h9xvFwQkheLtiPsj3RL1btFLhTxgbftrpR8kg3+PjJ7oCM1+SyZ6tvrnzyFENATnJw75QcFJM6yp59uFG5ea727sXGR/bM/NCe1g/uaXxwd/N9i83b50ihq/tqHmlzlT+RxLvDxrxjWZcjTpisSGju2gj5YJoEbNwJGy7Zcx4gSxxZPBDEDgZOzr4hz+90nNdhetPpbTf4E/nBkZrX3XMRWMR/leh5GIIRo+LY1B7aX/OubFQO1N2D+H1ahapgd63iunaPBNwkjWJLymSSGftAue1rW5UbZ2tUfSZ0y2EKF7M6NwrX43jZz1bxcRdp7hDTdVO4aV54XmxemQxON64sdmPCVRbhaYP0ptna3qrLn+vGJnxCyLaIrWx7VJ53BOZqxnUNmT7tx0c7/l1LQ7ICYg74skdoEc+MpxowfF3HqzS9hZq7r+l9cFfrR/fN/KWDM796eP5H97XesVC7qlmbhyJMNAVWP3dhMouJ92tzQQRsZTY2aiJR0C3feIzJugH5zX2mpJP9kOU8lDbkEjD7AUXkV4HCioEAE42jI3GyQgtMvPYmyOPxZjDEr9jS7G2yELe48C5xe77iXNeqvXuh+YO7Zvfzhy/aiVWl8MyKTG6K4jNrXBDwecdC/V0L9ZtnttrgNsOlLvkxkKIdqLkvDuKXh1GMjqmczRgnRvYRt6juDSf6pcYkOU88dBo1RY2KXpjtqrl7a+5VzQqnGAnnWswjK9sdlecdwYar2s4GSUpm68skzxhHJZsFT44oEcySb+WRG0PcC1X3bQv1/+rg7K9eufD3rl788X2NO+ZrVzar1LQ3lu+VgvIWkNRQArjTv2FYmM2XSeLkkCb5iG7ML1oecJm4HJOH2eHiDaFV5OAnitjPRDXAZaJPIT5mU3ES5jC5OiOR3C6g2NJ1E++LC7dWkBDXsfZXvXfN139m/8wNMxUSoJd8/lwWJQcvg6OJZ3LXk7bJsl8+gleULFbkO15bB8qFlDk7ZEl4dMZWvKUgXQ7jc+MYXqgE/HPGySEbIO+yYTngJPHjYHRZnovTXVX3fQvUMDZnG59hJUquclFRed4RmAsapgsPR9G1fj5IvrAyClO+hWxgAwDExFl7apXrZxrvXmx8dF/rJ/dTd7n1oV3Nd87Xb2hVdlXcGc+tuXgujLcz/5uJsZvYMy8wR8pYn81yGvjxXPwlYbl3HjcPhq+JIG6sXJgDlvp8dxOHxILWiXMymyw3LGieB19U8oNQpdRde7HiHKh5VFNX8IvKryAj79jreJ83xaOsUfqR5T019yN7mz97aO5tczVS50uU1M1FGmVSsXhoEXmoOshhP8ke6PpogZrTKa9EzrtxlgtKECUSbalhki5U3CP1yu6aV+Nn6lmllZ2CyvOOAXaJ/8l2O84wyR7sB4M45V+f0DUvlz1sVtOzd1edKxqVdy20fmDPzI/vb/3sodmfONB693z9cL0y68kNZUzYRrbjLY1rU2Bjyvsks8vH4X40B/A6a8zkoMY4m3XJkqzkMdiTVrAulppmWNCc/E1oIf7woKlANpMgmnEQqwI2Zl+A7j4tZCfk4sSz1yVBimiSIFpQh/jGVu2Du5sHahXPtYdpRrVPVdxy7RnP2VuvvGux8devmn/3Yn13jcR5qki3DFQLaCtxyuGmhY0XfFhzFSfMrHs7QZRkMUZTGFRHPl26qnmTcKoy/tEEnfAZv/zTsW+Zrc1V3Kk3uyk7ApwBxqlsW6iKuZbZcMkFvhbGRzvjf/5i5+6VoWVe50mBtuW6t89VfmhP40d2z1w/U9tT9/ibURaJsoNPL+e7IszDsrQ72u/U67o2B/xWCXunY2CfrMpIP0FHKwLl9LUd/HSLrZeJTwFGacwCLhNEmL2zm/ZLqadd8W1JvI2LN6HYvG84eRdYo52mYv9xJDhohrnsavKkdOFxaaE00R8SJ0nLh9bJz09S6o2thvE3V4enRkk/yhI7u3Wm9o75+q1zNfzEljOyxeAq4voxlUULyQY50ix5uh/89sne588M8Ep5Kg3INoenXFPlzDFuORGU1Kzq2tc2a//mHQfev9hY8LbarQflraHyvEMwMsbOlAxUmGa9KP36un+07Z8cBP04pbb5XNW9plm7fqaCl3w1qgsVR4bU2NaRgybejREmwvjAKMrOjf9bhzs7uMELMWb7mx8Kx+Tjw86KUE+sMqLIDHPyMp1ugOhYigdvRm4TzHniPRr7zX48Ix+E4UhwckPAgATmznwuHjyfHOmSYQ6J+kaqN6bHsqI0PTWOulGK39NZ1p6qu6eGD5BwSVAcKeitBDKMOptqGHGmZdaJ8Pby/+XZ1a8tDyO8q9xE4QvCuHjD0kApIih5SCBSuFh1//rVC3/50NyHFhv8vgFJtrL9UXneIUiDnC53uuzZauPKd8Zpdt6Pn+35nSh1HHt31bt1pkomm9rsYq0ZLGEr2IsNvwljzWIrIifR5hkN3i1mJH98PNJBflU4vDAjJsoo60ASMlnFv6xJXN4vLaBC7FP86NvYc944j2uyR07IMB9Z4mFJQWYfedQcKVws82K6hBTJQEXRkTkJF6RjQ1JpznmSrGJMeAshOaGc8o1m45ZqQe2In539g2dX/uR076VegGD4wHPqs1Fm21IgFUJQ/97GswDURL5hrvq3rl741SPzMy7llJ/mU3YAKs87AWOAYLggHYXC0DJLsyyRdyPwRS+/jOJ4MgBsniIFsHzsBxALJ89EI/OQTSV/cQNSlEJxMsdKbHxRAEfnxJrcMRQt10wRRySZE8mZhk3mWPmMPWVJDRgxfNM7K6KhTWM2k/BcDjZuMXFx7x+bTBXQRSY/OCWV+1j8MhncgpARB04/jwMkHGrje1+ZuaEp216ypG4eSDgqOM+8+YgZV4V4Uo6/tTb6w9Pd//DyOmdcolIR8YPrKBBy59uXAVQXpx6P1qP6XDv9G1cv/r3rdt86U6uZn0oo2x+V550BJEpqmgyZGGGYa/jIUG1hmOV0QFCuiwL7m9vNcPIu2YRgweHsn8ffDLBPTjVSbw7NSyQZSaSsIAFkZfl7gu0oDRNnNQw7URzFlAG3nyQrYeCnfLM5czC4SZKOs172JuO/9IeljZvrWLQcPFHFL6BOK7Y747r7ah6ZyBnPOdzED4k595IObI9iYNBgEJfxkVB2XnyoyvhgdGyWKMoJgRkSY5KIdRPAGad1iQEXeXLQFsKUL/KObKFK2ZNqmFuWnKG1MPnMuf4/fW71/Dge41MZFLm4j5sXTEkwGSJoIWNe+L9xrvbjB1r/7xv27qvy+3eVHYDK884A17yp6Sl5Js1C74Evf/YjEEtEZ2LdDfiYEiLTxKcN3KxScPFmcGK2GXBqjSjTUdDRs6wwsbpRNkyScZr5SdZP0n6cjpKU5Hk9ikmeg9heYXkOYtrY7SXJMslzkiWZ7fBrx5FASq28JRFg55JZh1SeM95y7d14NSnJc1axnVnP219zXSubrThHSJ5tu+Zas65Vddy6azcdZ67izHh203XkG5xmr7woyuUSIJlCvXJZ5YctDo8kcbK4xtk9OSnykEuV2E2G8s5L/NCPmylSpVQeNCeX/WBn/NsnOp8/Ozg9Cji7HtcRv+kaWS9NvpFYyQs1FvmZTWQBH5u5bb76f7ztwDvm6/h5urIDUHneKVA1iwXK65uWMZsAdDKMdc4NNyjiscnHOmw5hU/i5FE4wmTLtwp2xr0hEmcSGlplg5tQj2clSJ/sBS+PgtNBvBSkLw6iF4bB6XEoT5IBdJM3JgWpZp/CAXeeYJz/MlpIlpqyKk7eGyLz6CJNZDEheRzTtffWvJubld11e3/Nu6JRuXWmduNM9cpmpUEKb6M8SSP4UHDKLi8FsOpIOfUbuV3AueA0sIMQT8kvO7lqKbHQMlm7dMndVFDvKPRXZIHWIdWDJD02Dv/Ow+fvWxuylnPv2VRreUCazAvtL/ihhGUdalT++lULv3Bo7t0LW/Llbsp3i8rzTkaq/s3bY4qPyMUZI6Zwei/klki8yj2YooMGD9E/eMCaMhye66IAj2wQp6thcmIYnQni0358bBSujuNOmPaTbJQkfpIGKd7bQBO5eZcXFU6kpNLGKy9mXKfqWDXHrrvUdXZoteE51ap7uF65pu5d3fSu4ddf769XaFMWP1FAgouMV3iJpHPDAY0CPORkAifBXM5FtCJkCgkUv0kAfC+I+MpNtzuUX2Q5zqxeHP/L59c/f773ZNefaqOY5mdpoNrh9OQ3ntkT1F338Gz1H1y/61eumKvhV9ASz0Qx11bux3Nla6PyrHw35IZAYNkwboE8xC+3FLSkM8zE4/jw4TCJYu4lU9c4zLJ2mKyHyVoYnwmSNZ7OjMOlIDkfJKTQ7SDyE7NPbFsyqOfmeO6BmnuYutR153DdO1Cv7KGp6uyqersr7q4qPuTVcuVxJFMIRp7R2U7Jm3xYN1A4kknjuiA+/LkAhSJQeRW4tPhHZV9bHf2XU53fO9VFFYjpM7LG7lKBy4xTNalVvK/1b1+98F9fOX8Hv+nTeOPJCYx/8LpkZLKNsnVReVa+G+RsKZ6ThaoUNsLYBIqyUSYogCZ0BbgbORlLpHMvyfA6p8iifnC2HsfP9oJne/4T/eCbnWB5lERxysOPFJeMKW3Ku0qRANlDWeF0UiHZju16b5+rvG22fttM4+bZynUt71DdqzqOZ2cV2/IcF0ZVSgh5ogWPsfPG4jedVfZBMaIk84eup4KUV6EoGSq1UZL+5snOP3x2dRylCd5oSwUpJyTFKh+UYmJKhumMeudi8y8cnP2/X78wy886oO3LZ4o5kQg9D7YLKs/KmwU2wDin7EDhO+XgHjGisBjTKZayg4NhQ0hgKYrrZ9n5IH6y6z/VD56EMIcjfs6LpLoXJWFKG/JxWK54fyRdxWFKA4wmJ6lwEORA4slmUncZb9BsOU6j4sxWnP0N94752k2t6o2t6u3ztYqTv6eMM0sOaX9gB5xn2ReWxRvLTBnkx8Kqiclz5RVwXVDZpVl6X3v8R6e7f3pqsBRQs3DrMeM537er8Y9u2X/LbHV3lX9rUJwnehZsL1SelTfL9LUPaycLYdoiGHkGEB2sw0GrpDtRli4H8Vk/PjOOT2GKTozCk6Po9Dg6O5YnYnImOzdHY6/CXT6QtDxttDRXVpFarLqO06o41zW9K+rUja5c1aoexi1qWq0eqnmz1Kem+NhPJs844Z/3JfsRQ1zsMcds8iohipA3faiAloL4aHv8z55bf7zr9/E62y1Hdk2r+stX7vqlK2bfge9z8zmRnx+5S9kOqDwrb5bpE8VYAPKi84dWiuFuAj4Ip//CM0oz6hZ343QtiJ/pR492/Ud646c6wXk/gq6gT7gRbCyeOAYm280Fr8QUGXFESSnZtCBP5Id9SCKoE8e/56F+s+3ePue9e6F2x1zz7Qv1I43KDD5J4tTczMMeqG80uXsg8F5kRwb8Oo5W5TjKqyGFxsWD4RxqIP7T59e/dH7wfN8vTtctxEzFvXqm/g9v3P3T+1t4lGHqVDDombAtUHlW3jQwciwMZM7krJkagGXtzGUZ0CqdXFhJMuu0H97f9r++Nn6g46+OIz9KR1nmxwm+I0QbYYe0JxYt/JtdYB+OBPFRird6QYvY5/JTpCdHVAAlUSQSMXhiBy3xPQbOte3UHbvpWA03bTaqN87WfmCu8YFdjRtnK/tqHqIi47RHMcFUnnKznw8qwB/IMZRXMikqU0ZoKX57ffybL3f+5HQvv9m/FcDJgDPBse2q7fzda3f94uHZ9y/ih/gIxB85cNbombA9UHlWvnvMKSPiC6PA5oBm+blk20mWhVl6chg/N4ie6genRsHLw+ilUXzKj4I4kdurHJ+mKWMiO5AgI8lTu5WnePDShqlNLj9TKTRI8shTpvy+u4nG8cWJvpwEpbbr7qp619YrVzUrh1veVc3qO+Zq1zXxRpSq40oRU2wulXzNNFOwtvX6gJeKFEWM4R0s+KyKM2s1SD5+svs7JzrHBkFYThs4Of9z4IGssCt9+2LzF66Y+x+vXazgs+uTYDkflG2AyrPy3YNThv+514hHblijaUGmMEqtXpyuhMlpP3qqG3yn7X9rfbzqByFu85H1YGWiyVgZhk5CrLpsS9nHCA9cUw5x044KwSs/1JjA8zuTzBZQrjGCLfkiuPFBsWyrWXEONb0f3d26YwEvPDnYqOyuuLOe47EZpjgoCBYbHnKgwsJOZC/KBUCeUUD8/B2LnpxtX1sZ/uHp7p+c6XX51Cwdr5RnQs4WXB2J5To/tn/m/7jtwBUNb8YrGnocQdkWqDwrbxYWjg3Ah88fsnewfZkVpOlKnNy7Nvry8vCzS8M4ysgnTLM0TSHL2B6aYhAHhqylQ0y7SIwndk2TRKY5LCtbJdlKIpUDKoFXKuP0u6iouw99sPEmbEo5uVMOJX+SZ3hy1nCnmT35ZdGuk9Ydt+K5+xuVH9nT/Ml9zfcu1HdXK+bTTFIgKAc6PM0lBVMHVQxUPMbG4aNn4iA/mxqRyX3t0d98dOnMcOqtc+XHqDDNk7fN1/7KlQu/cHD++laVPfPTQZpxyhZH5Vn5LjEWjpfyPgS8HTTrx9Fj3eChdvBY1z89ik+Oo2PjEKbEnF+0EBea+TzlFsQ42RP7oxWYGQlkh4hZHoGUT9ylprCPkk5WU1xrNJErLwQRCkCr7MnynPtQXKfuukeaztWNyg2t2u2LjdtmvOua1UMNMseIwJGKgxUHVSYURcyQU8rMirPsxWH0L15c//ry4NggFM+tAF9TfItnoeJeN1P5X2/Z/4N7WjPFa0oQKi5la+P+2q/9mnEqyhswMXSyJDsQpNY5PIwdPNgZfWlp+OdLw7uXR8eGYQcDhhu1A2aF3Cyu8Cv8uWcpDkiU9AtzxNbAZ2pvkOctApIqcktMZcEgeZvygVNWTcsmTrP1MH55EL4wjJaCuB3E/RgvNE2zjAxy1bExcEGRc+PM0JbTq6/KKxOzXaGiKbI5yS+VHJ2LNcc+Po5eHkWmPDZAkSX+mynPS4bkBknyU2s5iK9q1fbXvYN1fsUNh78aJgulyony+mjvWQFyEpjL17gIWiFJNp05vDyDlSDXaDySveInd670P3mud8/yeBAndDrp+XTxQAPHtvfUvJvnG79yxdxHdjdumq1MBtLR85YKku9x4eqeMtmombxlxDVrVsVnh5Jm1t9/dvnfHluP/XhSDDiLqeSkYKlU09xdBkyVWRk/zWHbN803fvXK+f/5hsWphiDXLoVyPjg/sZ25/LADbSJXcJ5Zpaxo71kB5krFtSvPYUvXja9uG8aeLmj8pEO6aFnWjZOHO+NPnOn95xPdO5cGz/b8bhThfdh6zV8sqGBRtlQ9UWZ1g/jFQfhYP3h6GJFPw3Va8tgYdxTJkcsw5gTbY/o3T5GZeoST6oy1HHWHaMUmOwQuCQjXMz05gWmNyohOdi4HaW3CWaZiQQr5V4hc3UFiLXjONc3qbMWp0lmQ1yLVNd7QZxJPXpgwQ4QyZUd5DVSeFUYME8GXLV/d5MVXswnEdR1n2VqYPDsI71kf37k8/MrS8N618YlhNIhT6mLwxnrZXzxM8ZKKjJP0vB+f9qNT46QbJe0oGSZ43qyC4W7E5GpgOy1gyRVqVk33kG051tmXvQr3jmHGdajMHukGfpJGRo+5EPipeC6PkpUJms3F5WaH/GCl49g3zlQXPLzKhiPkIC9mksXkglbKjQ5uKwydBrjexRjhpEA/y1zVHM6P0nTC5PGe/4Wl4aeW+qTK+GC02HkIAW1DbpqUiwEXbOZwzwnGmMc2pbTtgw3vXYuNXzo0+77FxtXNSsXGD2EpFlcj4vCQCBzccyIX6tuxaCeyg3xJi51ntCnTT/b8f/7C6jdXhifprEZZUYlQCaWWS8Jt8w8LpIRKgNQkVyunE6NalYp1Rcv9+LsOf99Co4LkF6mdVLGcAAijfNGiRMP1yqujvWeFgTCL4eZLV3x4XW44kzA/2g3/z5Pt/3y6e3TVX/KjOKGYZP85ttFm5aIhvVwn4ZugrBkGvOs0SrPVIH28Gz7c80/68aFGpe6iG41IqB1ecl2hkngVtlmkGmtcd1hlrx0GZdiz7f117+l+eGzEb5nFyUwlQYVEDi640kFp4gq2Y0on3iaXZruq3kLVOdRwcSfKJNokXa5iWuUTgCb96dUWQOVZAdx33mCc8SNRaDVe/vVYz79rZfjF86Mvrw6e7gXdII3xMT7E4jmBK944lYsCVw3KWBa0ioYUwDva8KnE5SBeCpNlP1mP0k6UUPUtVrn3l9tkA1zGWPOMFSi33jtQnomKY5G2HR+FS0FMpSdXAzd95BavrJYHTgxmXHfsooSOs2xf3btlpuby8An7c0x2mppFdBOmlByVZwXAHKHPkN9spks5s6Is6yUp9cY+cab3e6d6Xzo/bAcx964RnZFrnOYyKRcNGczg2skLOx+94J6wuP04PTuO7l0bnx3HkWXtr1fI37Uzfn83NkP9yrgoXNiYfU0oa7QcY0dBRWQ3XSfIkm6SPtHFPRs+x6WEuIyMqwRMWlZyGZr7HYntnAnivTXv9tnGrOd6jqlfiSTXNc4RjgwfrCulRuVZEdham8sWS5rO+fE31kf/+IXO11dGZ0dxhJ4EX9tmfJVVAVFx0cOtXFyorHMlhsRKLbF1lsDc8lKfrxNnz/SjP18ddaO05blXNaoUJtFYojHBgwe3ESBeaJ8h1k6DS86erbi91PpqO8jSBPpMRSHlzPd3ywWuQa4/uNlBKU2zqm17rn3LbKXpOdR8c/ihA5N245L6zj2VEqPyrAC+uGWO63kYZ/d1xl9cGnz+3ODe9fG6H0fyDUSJ9ZpXtl7yFw8uWxYLRlx5gWMp+ss+dhamWS9Ol/ykGyZLfnwmSKja8HUsfjkzbyrbcHTZ6g0qd9tSFEfNdcLUWo+SdhAPYlI3Kg0ukFKViUmPNNSIPHHcSgszqnrr1tnafMWpu3hAsKhk6XVz9J1a01sNlWfFQNpMVy0ZpdUweaIffOJM/8/ODe5bG0W4FTd9B06ua77xySbeXP7GX7lIFEUtgkE1Qg72LCQEqzLRjHvYqb0UxC8Mgif6vmfZLv/synPgwNgnwTYdG7IDO2LvHQVyzPmmMqnY9u6K81wvXAqS/P3vXJilKhepaBmykhtRlFRkwBrFGbWtD9UrB+re/ppnMkbVK9WdwysbfJQSovKsCLiI08xaD9NPnu//i5dWv70yOj/Ga8D4ypfLmdz8Ow0Z5RYK+y4mQ7lYcEVQ+UsZo7T5/iiWXPLGkYeKmwc4k8zqR/ETvfDxXnDGj/bXK3PUtXKounkoG78bwoA3bySb5fvZKXCuuTCarn24Xnly4J/1o578oBjnPBdvWeCkmI/HkJsmvgbl9KCAzDoXJle3qrfP1U2y6QqWUW4Ra2S3VDlSXh2V552DXMNsiyZXJnuyTzdOnx1G//lk97Pn+k/1/F6UxqLNRhLybXBpi5vnuOKL1fwQyuaDcpciz8lXUf5S8tOOYg4vaniNk6wfp+fxurHg2Cjqxemeqldz8AubvArNHDPahtS62AWT+xHT3mCD7wWbbRmQaOpAVx07wk/806e7Iftxx7SMcLJoZiazSK1smGT7atR7ruypuh5dvqg2rmaKL7UDl1J2VJ53CmxAuZdgLlMD+2MI9PFu8JWV4cdPdp/s+iH3mtFFxpVN1zfH2nBN6/W9JSiqCY4gzdaC5JlecGIctaPUs50QP5jNGo7DNpxioaZlGzlXCCzz+p/2K5BAYuK7IXwLkOdamiTZfMXtROmjdCFkGT41OSmV8nBBemjV+FBawzSjdlfNdW6fq9Qccx/D1DDXrImqlBuV5x0AXa+ZuSb5Ap26NjHkBdvz+aX+757s/OdjnfUw7zPb+RswaB06TbH1ot7qcGMrs3pR9twg+uLy4GwQVh3rymal6jguf0raVD5OExZorEzMu7mVwX8Cj7BjvTg5tqD1R+L5EkFOyNlynXGaUpt1KUhGCWWQn6fbUpwP02Ga/cT+xqznuJQpaXhITSGPyhZA5XkHYF6wjCtTLs/c1tjUOXh+GH7iXP/TZ3pH2/56RF2FlEPFxJrOBBwcn+fKVgYvM8GNSBKdKE17UfzCMPxWOzjr44MQe6nDZeNb/nwjGicJ1sjJ7TO+f8lnjzkRpK8tOs4DLTlb8ESR1GNG/xjidp35qvtgN1gNYm6hInjrYKdZVrEtysKeqkdTnjvO5hbLy85F5XlnALXFxSkugox0nNmPdoM7l4efPNt7pD1eDhKOQCG05Eiwz7lbNlO2NlyjpkIhrf04OT2Onx5E7TDpRvi19Aif1rAbnps/EEUzOQ+Ks4E8RYzzf7Nb8z9ZbCny9oU0SfERsMWq+1g3XAniYSKXxhaCUos35/dj65pm9cpGpYLfYZEn53FrZWUHo/K8EzDjlOw0naLIsntJ9v97ufPbxzvPdMc+RvDQS5r0laVLBKvlYlXZDlCdypmQ8s0L/roRkaRnR8kDneCzSyMS7BnPOdKouvjtFbRYTguKmdgpD4yi00w+omY4TbCCs4plegsKAA/QY4QAecUgAbkc2/IsaxRbq0Hy8jjkrG0dstRyHD+1jw3CG2dq18/UFirm8QKuS8nM1qqknYjK804AH+Wnq5GsEC5O21qL0m+t+f/w2dVvrfZXgijBB3/5WjUWitx0Lee/dRbLq2wHuKL5ZOCb0OKmNXHgBGmH8WPd8VeX+88PwjDLFqpeDd82QrB5xhunSrEhz/ns4d4nr5sTxoRtAXjU3qQbeaBV5IVWB1HywiB8ohtwvK2D+ZgHLmHKDDW13r1Y43sWRa1sndrZwag87xj4ekysrBcnX18b/+mZ/mfP9tZC/u4UhSEUHQdEmlzEtJi+jKfdylaELbQ4zONOXMXwE7dFvedzfnxsFK4E6UqYLAfxWT8e8Ih3y8tfZsIzBuvihb3kK8zEtSWQUkAOTMLxyAY1UJ7sBQ+s+1svNznjNKs69rvm63XHqXItTYcqZUbleSdAVyNdl1mCR3bTZ/vhbxzv/PGZXpLws9kI4Y6yNLeL6DDffBnjM/+i3LyqbGFQtWaiCnVS04dGN4srl1ZxGtC6s+InT/TG96wOHh+E/Silztds1eNdZBgTR3TZ1St5Lf/SsiHBuBNEa1QMmRVk2cNt/97V8RbLEKCqpKs7G8VoWh2oV/bX3IWKKwMFxNbL0M6DWoi4GpXtDUtr+nw/+sbq6PdO9Z7u+6shdaTJW/QYP7ZhB0UtLluyw+xLdlw8pW+tbHVwNuDuMVxUszQ5UtfsCQd7cnWTZa9X3AXP3VV151vuRxebH9nVev9Cre46+Fal3Dah+Gz0+fzAllhuOaRY4JAcZEGSPdoNfvN4+7eOt+G/haD0p1KzuMBnqu6Rucq/uWX/j+2Z4VDO5hatpp2EyvOOIEyzE6PwzqXhZ/CJi9EoLr7WTLVPExla8cBbmo3DXL0SgdwSWdnqSHVLtQpF5Ypmk1nnNbgF9iVTX7Fua9XfNlO7caZyuFm9quld3fAO1itNV8a8cdKQ4PPJNNl4y0CWUE77/NWmwzj9+KneJ053v7HS35o5on80szBG5tr/5raDv3Bw7mDd5WxykFJudHB7+xOk2UoQf3V58Mkz/btWRvxdSLo2pcdDtpTNMS5jmvF1K3OawSdfVbYDUpV5awxVTBXMPS0Cbpn4rKCJvXOyLE2XxvETveDra6MXhuFyEEfUurftGF9SQZcTW5oHuokNG5ce0WZC8pHRVXPeT37nZO9oZzzYej+sIqSxhfFtqjq66K9u1Q7WvaubFR7fLqpJKS/ae94mwNIaJ5FiXIs9Ujt7aRB+Y2X0G8fbz/TCQUIXLdkaGc0muyrftEk4/qVBDrTxrDNHp5SkCKJz0pF7oqIQ7IN3CdOKKAdFYzOK3dA/21a4ZT+E+BTx2Ydj5BSeNKM57Y0MGblpn7ztJDK6U7xkTxx0KggUqzuGLKu7+GVwy3PrVefWudoP7mp8aLFx3Uxtd9VzqDykYFBLKEz2yNsEKK7pAkQlmsrjmFia7QHffeF4vBciX26Ea5uCcHRKn3SAMZOTamoHtEAVTx9EfNDWgJuV6/kBRpt+/dj6C4MAb+vZWiAjlCNysYPmmf2hfY1fOTL3d6/exT7kxZlVSozK83ZA7B9fiLBmcLKhIS1+YRh8ZXnw6TP9o91xL5K6lsuV5jSx0TT269IwdSBJDmCXCRFfXqGZeVhJJlqXSIWbrDIMq5hUyTWHUiDHgXPKcwOyicSU1WlHbt3gJzHFJ2ey/x1IUVY4g/bWvGub1Wsa3v5GZV/Du7JWubJROdLA3GG1nC62jYWMmpMVrMJDXAhl54a6YZ8p8vOepRkRaJXPZewg35BctCq1xUgAka/nMcE4ydai+NGOf9/a+Bur4ye6QS+mVuxk660B0ivZklYRSmB/zfsrR+b/1dv28yp5bqkc7UhUnrc+qEA2VDBJIs8urQZkaMLks+f6nz7bJ4XG5Wqqmi5LcReXrgm4VIhdYLspmATQPDcZMKni4NE5cpsmBP1LZDbA2FDMuvR9OUQWZnOZi494EeJLq9RHn84+Sk/KkR38XwQSiJzvRLbCrNjtziE/c6ZKitzUc16su7c2q7fN1m6brd82X5vzqIdtt1yn6eITltVi7Jv0NO8rm3+C1tnF/piJ9k555jEJ2pqDjIyzXy7TIspyCkGZ4SUx8r1NkQ2TdMCvS+vFuA10ehR+ebn3YNt/sc+PaOD0o11cuFnpkQJz+azOUGOp80tXzP/GHYearu1JBSrlRuV564MKhAUheAjR9CeOj6J7Vkb/7qX2E70QLwWDnBQTmyv8qIYv3UJyLgE4LqVu6qC0NOmilMNqw6DAzaFiZBGHDA2n3BhKzhHspnhTxiVmvv8C8REHovJREEf2k+K5ZQJFxA7sZOoomJF1o03Yw0CrEpl8NwTsJKSkuHx4jdpIjp15Vlaxbeo4e7bztvna7fO1W2aqt840rpupXtHg85NLjbcQuOVF5Sl1IqeA7HgSh0uZD2TeUGaQKKw25KQ9cDvNrBa1YypLQuDJvrSKnT3dDx/t+U8Ohve2oxf78TiI/SQJsyymCIjIcbcoKA5qZFAWyGH/+L65X7tl3y2z3jy/5FMpOSrP24ZJPZJMPzcI7loZ/PHp7hO9oIOvyhN0QbIYs1ViH/GX1Ut2Gsix+Ie2EwlkB5a5j7Gf0xE4/dNxJnNYdtnHBOycfDmCbGIOxxQmng6EUN4DdpFLvmC2kM35f7IP3gq+RewdA4ooLxNTIOQSi891Zzzt3TVvd83dVXF2e9581Z2ru/tq7uGad6RWIX8K3VVx5/C2E8Q2VQEXGmeTfROTMjY3iAU4UV2Ijy2wTR4MN/3zXrE5bkcHadaNY+oinxnFJ/34jJ8sj8PlIFkJk7UoPOcn3SjDc2DYGJuwo3BvQSDPfNVTJmzrg7tbf++a3R/d1zxYx0/YlZKj8rydQFWOk2wlTD9/rv/Zc707l/sSgEsTVk1sjQuTRQ5zy5ms6rQZusjA8tKh+VhiaMlpTB97innlr+yyv4S9RtrEotN04Wks1p2lAmv5gYq98T1RdpIPT3igXUIlJv3D7Oeh7G982I98EJ8N386CS0bEGOXPpQG3PG+YF4d4ygLlhJpyPedQ3b2mUbm2Xtlf9/bVK3tr3kLVmXGtGdeZ8zzXyWqO3XJcx7Fqrt0Q3abtpwpZzhoBNYxDmpdtyCxK8dx1iHlKcz+liyIdJGk3ycZxsh7E5/34+DB6eRwdG8VnR0EsJ5vsCUg7I/cDEmELAnkuroLsXQv1v3rlws8fmr+qWeFgpdSoPG95YDlQh/RPcuuc9pO7Vof//qX2Q+tj7mwiHJP5PRXF4m4oOcj2JRwqMoPp4kPGlY5LRySbKAekg8NFic0FEqFsImFZxFZSUGRZZFM48WKhOdvsoNxtdBt7xNEM5Mn7x0T7kGPRxI+IY5PIwndxadXlp8RlK37KnZN4IbQJJQCHe7XQ7Q3ynreKposaTq4yrHL5bKgpbELbUBD5cgDfi/bsaxrurTO1d84269V0f827vl6rVyzq4R02nTxEp814kylkr5QCMmNYoX3hm9XtKFnG60iTFT+i+VKYvjzynx6FT4yi1E9SOufx0QuzCXfGZRiJTy0km49DUWhKqS0rqxJn64ACo9xIWxzr5HP7Qu0Xj8z9yhXz1zar7KmUGpXnrQ+bGWBnz/WDu1aGHz/ZeaEfkZGCPYNxoXDSGzGaBHeaxZlvWbguOnQcJIOtNCzIlBGfpAlh7BYkeWh8GA/xoVPXFh8KLeCnvciHohT7gI+s5BknzEZ58SFV/CgQjsLxjV3mYGPs4OIgXmGn2XzHwYUDpHymykF6bDjlaIUbN3h7KK1QJJFAIa9N22q51lzFWah4ro3e84zrUje67jhNfGYpsz2n5nkHKl6Fd0vtOnnCTHYkRx7GWS+KB1FC0cMMg9gkxNR7DlKLes/DOOnFSTdJMzQK+RyY2D12oK5pYqSuyR/Rcs8tiWSWs4CMZFfPeB890Pr71+65bbbGEZRSo/K89UEV2lGWkR7/2dnep872vroySBNcjSw0IjZkH/m7kGI3KQDXLLlpwX2gSwaOxSYbKeGJHEgkp0R8aEaeSCGtFS0Ju+FaVdf2XPSQGo4z7zk89mlOYQpquE5DBJuNEu8Iv4Clghin6ShJ41waKAAWPM3GZLL5HRT9iJbypK4UCKcHR8dOeBIkNSZNPN95UO6RdSmEaaRA6OyiguY30Ik2FErKIpFvl29OG6GQX4mUf2p7ds1z93mQZ/JCSxO7NfdmsMfMHiVUgyTPsVF92qFUIp8HJmGFD28DH8CeNJlQ8eME81E4gsTZOkzSm+cOzuxA07tjT+Of3LjvXfN1DlVKjcrzloesIBm8dpg+3Bn/qxfW71wa4sYqntZk5RMTIyINg0aT3CMUlWS3GKNLBmw0HR0HxoSZfHg4c5yETLtDqaV/PAZsk4knNUYmMndf3VmsOw0y1Ul2qFa9caZesSLsj3c4X8NjRwc8DwOctuVlToJSSMkROZWVMD49GpMRp7yieJxsLcqWw2QlSMiir4fxyz1f0pLaWcodP5qSFOWF/Uth8sEmpUoFT3POzU5CyoZLAGvioIlPMJxjLJDkg250grOL/FyuYmgrFyMVIGJKNJZM8sfE5YkdmwUfio/IR9gAnxZwIDxXZWzEe5bdAn7rDvbDxxKHHJ2OaF6AQ77FjQyKUzTUOD1ylC0EGkZcFDRH7shBJW/vaVRv39X8FzfteQ/JM3srZUbleTuwGiYPtP1/8eLak51gLSDFggVCAFWuuQhzHzjlcoULDuN/KU8DSYCYY3KxTSQx9qwjde9wzdtfdUmCr6h7B+seGcgr6pU9VY+iVB3bc2yXDWbNcVroRiODknQKqjl2ldbZl4c/cQgxVGGGB4Vic0QQZXh6KITVyiLqRlPv2bbWwuTEMO5E0XqMm5cvD6PTYbwWxSmefhfVoWh5uU3eT77TyI0+SoM1jMCMSolKg8dpAHmJBhPkzstNytAUG29r5uRF07SPYKK+Cqjlqe2wxpEnW8h+pvYgzsnuZTNKD7Ut2APZYRdq9sLYW4Qi/Rhr4HYS8nKgWXnv7uY/vnHPO7X3vBVQed4qFGZig71Is2yYZl9dGX3ybP/TZ/r41gUUSJ574rgm4sTFTnHLrghafaW72KTwIX2iPYthzbXKQHHEEMsmr6DYGSmr685U3F0Ve95z5jxnvuKRo1Fxqp69v+rtrbqL5HYccuyu4vX9e6veQqWw+FO7yg8+UQeCPV/pUxx9KiFFSL6NbXWj9LyfDOK4lySdKDszjpejuB0ngyDpRVknSqifvRTEnTgdxxB23gFtC2nHJHucHHLilR+2CJp20CShROEj7rIiCaTFhjONfdGR5QIxeaEllbHZYCqDvOFrIqHFVq/D1H4gQq/cKE9GAeor34rrnR3caICD/ou7P7Lh1CG2BpzgQp7zq/XamcqP7p/576/ddYvee94KqDyXG64cNiCFi1SQLjtYF9LJcZI+N4z/9Uvrv3eyy49hI5LZDBR9vjcHdiqWiE0VdkObkw8OiiFoh7rm4uZHaikxGFmnCJwwObIxfGY/Ht5QYVcsq+LiVRVVx5qveQcbleubeOnjlQ3vKnaQEjfwHBBvVB64DKjnvRolp8bRy8PwhX7wRD96aRgujyP0vxPqlFthkqAjTRlHE4X+pfylSUHlQzMqMc4bLGZRezTxU+K0CWqWI5iOjuzku6k7RSnAycYnHs4u7j1jJb19rvpLh+c/dmT+2pY+ub0FUHkuO1Q9YrbZnBPyvA1Mf5hmx4bRv3xp7e7l4bFByGLJcfGgbK4N3zWyCe9H5pPdchDNsCQVkTgxRxM3Q8k0HlCaA/XKTTP1ww3n2mb1hmbt+tlqy7MqDp7toi5yDXObNNvjXJlZeWB5plnMI+H4BW2cjlI8hXfej6jwn+wHj/aC5wbRMIr4x1pkCmUbzsckK7LCdzTFl8uSy1BchPHKhZxDsSsqzyKOorwZ6CTECWTOHHP6pLfP13/pyoWPHZ7jH1bxaaaUGJXnUiN1w0Y6v8R4yS/vtB7u+p873//DU92Tw4i60fk1OS3P5MlXabH1G1DEpHmxoYyP8aUuHhKF3AZZJx+76bqH6t7+urMPD2pVFquYH6hVdlWtvVWP3PtrLr9PsNi/UJyFRvNLBFJG/5x3KYIMDaN+jMfKzgbxKT86FySnh9HpUXjaj0+Mo7UgngwqoAqwoVHiPJ95TeVaTsCS0iRbEeImaC47UZTvhuJkM2Qf2N34u9ft/uG9LbpI87NLKS8qz2WHKshGLeFaMi914LeJrIbxH5zu/Prx9eODOBDrPdE4kWfudUFZiTdRy9hzIQx8GAPtnZ9uJQ+aEEgL8kwpesXxGq4942UtF89z7a55t842bpjxbmh51zUrhxvUV3bR/cPD1LQpv16x2PEref3QywYVI3SZEyeNJfJDxVAJS3pfHsaP98LHu+NHev6Lw6AfhMPYGSXpCA+G81ZGnqUG2QFvlmcZECnk2cTk542pO06rmcqz8l0i56WcqwAn1U8emPknt+67vlWdm36YQykrKs8lR2qH7TX+YarJMUyy3z/d+eTp3tdXRlGaZvixr4TQv2ySI/IB0/+6YMcsQlDz/JlkdhoJIairR/44AmsJXvdk72t4b5urvWehccdC85qWt7fqVB236mS432w7FZt/uUVnGe8Iqch3zGBf7EAor2OV9s6elx9SRaSM08gFKQk2qZUSZzee/cYbMJIsyLIz4+hba6NHOuPHOv4T/Yg3on95Xg8bstjLtgT7IIT3B6mmdYoc5w/10HoiMRBTUd4Yvs/CFzP/SIwvLNv+2JGF377jiipdlXo2bQVUnsuN1A7MeuHKloP4sW7w74+tfWfdPz+W25kE4mAp9Qn55EsQ24nXGyLXMEsShEGeWiJPFmOC9zdfcY/Uq9c0K9e08EjXQtU9wL+AOljzFioO9aQ5HsfHG0GwwmqEJWMyQlHkSwWMCeWDEUXky4xkg51UBpIqbmlMyD2nHMMkPTUKz/nxWT85NUqeGwSP9f3H+37Kv7rmKJRR2Y9syNvCkxaix+TiQuMlVwRi8FxR3gz5SUUnEGbO4Ra+9/z/vW0/hypbAJXncoPKER2TarL9JHmw7X/idO/T53pnoc1iygVysEEnaAuRZ2pHF+Gvh9ks76hRpzeXZ8uZq9gkvfOeO1d3DjUqN7aqt83Ubp2t3TBTrTvUEqf4RLEHA84sXoOJ2OjNS/5lMm1lNFy4cCclwCSYE8sJQ36YV2lL5EFw2DEeJcuO9sbfbI/vaY+747gTxO0w7UQJPsPAe+TtudYmGsydHnHSwSXKZM+K8oZIvznDYyg4u2hyPryv/rEjc3/76kWOgFNKKTkqz6VG6qYQZ+LYOPq9U51/9sxKlNl4aRXgwSsgHS+CNmAfdL9yx+tD0SiO4+JFWQTik66zcHrOexZqH1isv3+++d7FxqGGSz1knnhInSLg4repv50fGw6as2Ewnqw/WModW+Mtt1RxlGmFLhkm4UUG8rSLG170z2VFE5UIPKkwTTyqiSSzo9QaJemT/fF97dE9K6NvLQf9OOF6lVKjbclB9ZhCpDF0wXvDTuQYsl9xK8obkfKpSKcWnUVy2mT237p24ZcOz350bxNnHMJ4qZQYledSI3VDpprsPemmn2T/+vjqn53tP7Lu84VHFFZbrsPCLavTEvn6UGTSAwe/DnLsRsW9qVWhzvH1reoNs9UDNXcfXhji7am5DReqwoo6tSHeay3dQREmuCQpMhe1MSuE2ZhPPtONhksWRXA5yFOFpWlGkHNjEtEX5oYHt3IoVJo7RO6gGO0oXg7ic0F0YpQ80fWPdv0He74f8oj3JO/kYDfu2rObtjZ1rShvjskJirPHceyK5/7r2/b+/KHZ/TUvD9aTquyoPJcdvpJg48/78QNt/5+/uPJge0xdL7HhfPUVFxv5CrJKG0lX7M2QNT13oeLtqdh7G5VDzeotM5WbZmo3zlRJpyvms7uADsbHyyU1TwdOJPZieWY/hnzJwySC45oNOI5x8zxfI6a2v8wUSRIn5XtjkvMItKBJmia5A/4TnaZw7sqkNn4//XQveKAz/k53fHoQnx/Hy2HUj9IQFUhx+FNjaCrxVrxj3oOifDfkJ85izb1lof5Pbt77kd3SdRb0pCo7Ks9bALHQd68M/8EzKy92w04UbdDdYjgUbwhx2UHRUyxJGFI8Op2LyqsgsezMPtKqvnt340ML9R/c07pjoc4ffOBAbE4R6USRTpzpCV+AiWWgteKIG+JzAILysfALtywZFww/FPkqPCkCZQi5QfkYB7tRrlRoibxDxkQjHyprRDO7+vb6+Ksro6+ujp/rjdb8NEu9jOqRQmn3+Og1N28mGq8obwI6WeRipdagbb99vvbfXr/4Q3tnr25WYA4Q9CqXsFI2VJ4vO5A9qoj8weCJlhUVQ/b52+ujT53r/fbxzjDOIry8U9SXAjmWyDO+DiQ6zZ4ILZSbRSOXhIKFmndNq0Ji/J652tWt6q5aZU/F2V115/GzyFcOjMu20z6vQ3GgNxl/q3BBIbx6mZBv7lU4p/wM2LYdpStBsholz3THj3eDR7rRk12/HZJCU93lG4rQoxllxJ9PAA7F6YL1HKlocnA8uGlFYtJyOqayReGmm0isoahW1DFP7IOZvb/p/fj+1v968559tQr/sCJF65DiFFsrZUXl+XKDCsD1xvKMK4blGX7yDFWcZr04/fVj658803+44/M22MqYWrnGcL1hwXOCHORDc5rMbnnOWzn2nop3uO5RU/pws3LdTPW22dpts9U9Vdd1HBFzRvaWrykXEyrrc+Pw5WH09CB8rBM82w9eHgbnwiTAJy1zc0xzrkOzgZFnctC/+E5XlvjIiSGIj7LVKer6ldVNc/GXlhlNzk8enPmlw7N/7Yo5x/yQkYL4ZtX01kopUXm+rMglBIlO5TnowoMFGC+5bkfJE/3gnz698pXlEVtk3JDkXhT1rsiFTyPDh8w3NqZQ7lgXY9rYLc1T13Iqjl1znUrNfeds/SOLrZ/eP3N1izrK+DxywtfqlDYrlw6qKDTG8kpdCdNvrY0/e65/X8df8aMgSvzE3Ggwt6Xpf/JOdTlVOJAqX+SYzwhUvTxfhok/c40Nsb2y5Smaa1TZ8hIhYwd4Io/Mch27VXf/0U17/+oV8/uqLp0EFG6TSHNEad0pZUbl+XJChb/xx79iaiGofC05YZo90Bn9w+eWn2wHa36Cyw5jnmZrGGMy07gsyZPm+QWHCOyW5rJluXa2p15570LjQ7uaty3WDmEQ29tddeoOfiJFLQOJJ0kx5DtTLgWoPVMJYZb1MOIdL4fJ0c74Gyuju9dGgyiZdKNR19QIk9YUN8vwz6HiA9inAKcZr075KVuToooJaXjRkj2NceBGmG1d2fT+6lWLf/Hg7DvmalU6vRAFFoZNzvROlJKi8nw5mZJnuVakLnANieOhzujT5/r/9lh7GKYpWedpEEsuMJpfUInin1G/+MpG9cpm5SoexL51tn7LTO3Kltd0HZcPjAQgusRnzJF5rlwy0CyjoqdyN0VPhjZKs+PD6Ile8FAveK4fvDAInh9FcZRlOBMSy+EBEiIrHjQr9kDWGYbYeBjEJdsoWx1ocl6bXM2Q5KJy7ZtmKx/d2/rVqxZvnKnuKh4II3KbM31mKOVE5flywldVjmgyWr1wJ1nmp9l/OL728ZPdp7tJIi/OpTAZyKILDOPYYoLJTZ7sDyuPK3fWdWY8vO3rA4ut79vdfM9i/aZmjXwQJT/E5HLmTQ0b0qRcMqTxRUUvtpPW2COzk8waZcl96/5dq6Mvr4/aw6QXxN0kRs3zv2W7iFz0nGiiGW89qWOKRqcFdi0BytaFa5AqnX8vj/OlaLhjQMXynGyx6v78oZlfOjz3gV2tGm40IwL902Rb1GjHQik/Ks+lgGpBhpzk/iBdRv04fbTn/9uXVz97dhDEbmbH8MXlV1hhnmMrstEi1S68ycexfmJP8yN7Wu/d3TjSqOyquE3XrjmO/HqZddnMOD7vByviUC4HUhfs4Ootqgce1F8eJnRKWP0kvb/t37k8+PT5bhhlSSI3NbjeeTveRDalfz4rzH5lrmwPpK4Z1DBU2fxww7H31iu/csXczx6Yee9iveXJT0LQYstwPrAbFz82wEwpMSrPlxmxxsWlQhcRCTV1nV8ahv/q5bW7lwcv9SP+NbO8iGT6iiI3TeSJRrRt257rvXO+9rbZ2lUN7/a52o2z1cPNyozr0BXK8eXWJTAdKnFP73LD/pVLB94cZsYci8qhafKjc7aoMLInx/Fzg+CJvv9cN3i06z9CXekk5Yt4qu5oXbbinbAXzbmzhUFRZUsjFZprLS5rHi+hc8V23rPY+Kn9Mz+8t3nzTG1fjYdVWIszDLZRLDIwFE9ONtmPUl5Uni8zRZOWrxXY0yxzzvnR11dH/49nls4N+XOEFIha4pqii40vN7n55NhZ3bHmKu5irbK3Wf3xva2P7mq8baba8BzP3G/Czjm+yLO0pnl3ZgkvtdqXFap0EVQxmrgmUXeoIZwYkzrPTwSaH22P71obfml1tDYO14OkE1o+nk+QTdlkA46K3ZCTutq0I63orY5U57Q8WxXXblWcw///9t47OK7rPvwFFr0QJAH23nsRKVKNEkXJtiSrxLZcZI/Hjp/tOHYSe/Ke52Xyp/9MZt5vxvH4TZzklxfHVjKOIjdZtmJ1W429994bSIIg0YFdvM8533MPDu5dLBbAXWAJnQ+XF9/zPb1+z7m7d7ey7HPTxnx5Zs2U8uJS+aUaNVzUn1Sh+qVSfVOGi/quEh3dk9d48zyCqJU0MJkyWXAygRI/v3j7f59ufKe+qTmpv6cTL3myuTupllcVA7Ou4pQXJ+ZVl95fW7mprnLjhKpxxYVlicLShDziqLrW3NpCDL6Ykx5Xkup5lZfyNT6ekYTOAt0V6ntn9Ae+lDUO9k5ap1VifruS2OPuW8nU9oaWN+pb3qxvOdnU3kZU3esqGRWBzkXWqXQX9fLy3Ono+a0/eZCaUF60cnz5d+fXrRtXUVei5r8aSHq4SFAdGodyG50n7/HmeSTRxthIMpPaU6mTzZ3/dqbxp2dvXmvv7MJfeQVfB6bWVmVNiwoLJpcXr6wpXz++fFlN+eyKkhnlxdMqEsWykLsGV+Wg57FKX/raCHrbHcxjJ4ZnBNE9pI65IHNTd4z0jvbUol54cXYnu7uvtKfOt3adaO48eKttR0Pbvlvtl9o7kyl9ujIf6kZmn1esI+tEPHc8dKXauxcWFLMIPDSh8iOTK9eMq5hQUqTebrarutqeE1JpZKoDfkby5DfePI8kep7osxAUJlLd3dc7kz+7cPuFc43v1jfpOSQPzzAP9em5sLuqpGhiafHMipIlY8vuH1/xwPiKOVWl6sOZJKLeXiI8M9Ix0CoPlYHW6IwCL6vNZsL2H8ITB6qHgpVUzU3d6PoWiKB7ULn4j6xe+sZIYbt6Cqvjg4bWzTdasdPnWjvr25PNndqOK3ufVMcssemSiAJBUpbUXEGIOsHVeGLBNr5cbQu7esH6JhKJVF1pYkFl+VNTxnxkYuV9deV6uKj+VsZYhTE3yhge3jzfiXjzPJKoeaKbX92RLCzsSKWONXd8adelPQ2t3V369GOnkQ7KtnhhTflHJ415btrYFTUl44r1d4r4qebRMJWxw42dXRyg//tS02tXm481tsmSrccPFlqfp9VhWodWd7zxlbvo8jZKcfDAHrLeESqBVHkRsFhd1X/1xzNUVOOnVC+ov1xpcP1Sv/wtXSM9JX2kJB2GvsC3uLy0cOPEiv97Xu2qsWUTS/UOXd3o9uvB6MGb55GEecZc0tNJdUR9R3L7zbb/a9/lI7c79BqoF1DoTkyuLFpeU7axrmr5mLIF1aUzKkrGliRK/Ez0OKTUrx0UdnUXNHYm9e3uDo7Re2517L/VfuRWm163xSRLcHWmMqNPbQVFy+qvlcZHwuswaJQJEMkzKFRD6jaUJlQdog2w6PUfjfUGp7VVePW/uiQxr7r86SlVj0yoXFVTzlJQJg8zS09JSM+djzfPI0mw8oFaBa+1J3fcbPs/910+LOa5oLuqODGpvGheRdnimtI148s3jK+aWVFcXSyR7MLp56JHgXlmMCTMmOpu6kpdaO3c39Sxp7FtT0PrqdbkxbbO6x2dwaAT86zpMc+BlwIN5pkL/8Vga41CAngGiOynVRNKM4LslvQNDHH2eOlmx6kmOkp1Ly1RlFhcWcpx+a7x5Y9PrFo6prRMfZ2BiquiBf/9LbXRgTfPI4qedMHf7o5U94mmzv9jz+W9N1tSyVQiUTynquT+2oovzKhZVVM6qcx+tEe6TMnaQnPi8bPRY4aFgiXdMaXN2Om2zhcuNL92tWlHQ0snJ+yk/mJQ/SysQj10I5ZYxVQaOWqDCpbQA02Hl4FmDLxngEi7qaamNWl8WlXfzVZXrTddplErc6Av7C4qLCwtSpSXF39j5vgvTh2zrKZE/TikCtVtfk1HdZBEIzkd0XOH483zCKOfe+aP2gGzYjZ1dr93o3XbzTbOPfOqipaNKZtfXTalrHhMcWEpK65eOnvfHbNXz4cdPSbMwJClW1/Ut9y0qQ94d51r6Tza1P761ZZtje2nWjoKkl168EhYfVUXsdlyJAO9AzTBAi+Ti2eguNOWhtWbIaevepQ2DALORMGqmvJHJlR9dHLV4qrSqWVF6uvA8NL+pu/UX9zi8OZ5NODN84iilj5rntW0SioLnTrT2lnf0TWtrGhaRfG4EvVxD0LofjLzUM9LwWg8HmBA6b/68Kz+qosW1ardluy+3pFk87f/djt2+vTtjmMtHZfbkwXyFJYZSwSXlyzxKJEDLzVQteAZBGYS68Y0TUh76sO0cqKX1g4oLJhcVrygunReddmasWXrx1XcPa68Qk7NKpiEtzFIRwTokTx3Lt48jxw0vF7umEpcTEeYd42UQ33QQ6+y7rQT/OTzpKdnNpvhpP8wnFIcweSjQ1zaUqmLrZ1vXW37zdXb2xtb2zo6m5MFHSnGIMH1o9KF2Gy56aqd5k6s2GbPYNHtr9tTZr5sgHTbMu9V8+pXd6okUVBVlKgoLbp7bPlTkyofnzJmWnlxGTF6fvvV2VEpldh4+YC3Z5TgzfNIItMK1JzSbx7xRxZUBVqRlTeS3mLL4y4BSmFEz4cdNRj0gNE3OdUfPa6UiEO9Ryliofq4MMb4VmfyUnvyWHPH1hvtr15rPnS7taOjo6C7REfRq79ORhsRk6C6chG9Z8BIDwT7bZpRWlI1qbbQ4igqXFBV+rGJFZsmVC+uLptcXqQ+m63fYaYPJRDI+2LsuvS6wIUUzMfEPKMDb55HEDWp9KKpZpQsqWZuISrJnWl6BiqNVarwvcN4PDIuGFbiYHTpcaKGlx0wYh6UV0d3d0Nn6lRz54HbHYdutx271Xrwdteltq7mrqQJqV7BGNOxdDKSlGeg6NajGZWR1QZVkL9FhbWlRcurS5eMrVhRU7p6TOmS6vLa0kSxiqQi6OaXoMolVlnfY9MJaB/lUOE8owFvnkcQ5pf+Lic9vdSHZ9XxxHYH00/NSUAV6N2ZF9V4PBpGllrHeZlHlfUyLgNG+zJs5NilvPFRa/zFtq4tDW1vXGve19h2vqWzsbO7KZlsT8oXyuqBZoejpOkZKKrZdCOKeealT8NlicJxJUU1ZUWLxpQ9PqHykYlV86tKylWrJ/SD0alu9Zt1hCS8OjGrbpO73ChYwOlknZy9Aaeunjsfb55HEr0yynTVDq1SX+6pVfa9Z9VN8of/PRL0cng8vVGTW9lhJDtgtCUWtRpVoldCd2d3d0uyoC2ZOt/aubex7X/qm7fdaD3V1KHf0dRfbhWk4hkCtDt2VltZTWlJYlZVydOTah6u49BcNqGkqKI4UZLQt7LxDgywXqd73q5QPSZp6L0TClk/9Hoife654/HmOZ+QrtC2mFkZTDE1E42Yhsy+Ho+LGWH6GsKOulRzl/oCu+PNnSebO441de671X7gdtv5tg79EwwaWTR6ndKsLFlolEVXf/RL2ZnAM10BRNcTW6R0IeOnd15qA6P+qGr21DFSHtsI6JRRxMkruNOg0Cmgk8+LKIE//OfVNbZEPZexuLp02djypWPKFlaVzq4sqSspxjCrwC4mYgT00OMVdnvudLx59ng8LsGhrLu7Kdl9ob3r/Rut799oOXCrrbE9ea092diZUne8MQM9hgCJV2glwbbpb61Vh298rW137Idr5kU9MqtRb8MWNs+8tAzGWlMpiWLttw6j9h+uedZfVK5Swy0BCquKExOKi+rKC2dVliweU3r32PK7x1XMqyzVZ2HimpgeD3jz7PF4etDHPawEpialfnuhuyDZnVDfD9rWuaWh7XeXm7fcaL3c2q5usyrTq22SiqC/VUdZF/0tdmpVwYsE9NNZKrCYZzHV6PUmQMlRdCJyHjU3cHONFMNZCWVVVMWTwui/VikBpe66mCYBF+WrtcZg40wWFCU4KD8xofLjU8YuGlNWV5IoLSwsLlSftzYflU+TkOfDizfPHo+nB7UcyJKg7K6SCrsTyYLulmR3fUfn+dausy1dZ5s7dja2773VfqypUxtaHUEZJBVcv0wS+grO6VNZa23YJAhYS9aDTWEYiRZDXKrkgYVWGK2pkRAuvyD3vbtnVpbOry5dVFWybGzZ3KqSaWXFsyrKaooTZbJXkZBpGsHzYcebZ4/H05vgBI2k7JK5PYukHi9oTaautqW23WzFQu+/3X69rfNye9fltq62ZCplFhMxM2LSRKMkrSMNjJIWxAfSWyY3qWEhWgycqkZBUZWnGyCoAH9NRK5KmSgsLC8qnFJeMqWsqK6scH51+eLqsqVVpStqymrLilRwffNBBdUWXP1RzdyTkMcD3jx7PB4XWRCMmWB9KGSRUE5lUbVd0TeeCwo6U923u5If3Gh9pb75d1ebr7Z2tncGJtp8eQ7xdGrqK8u0RqWEhpS4ShgH5RuYJ53MMFmrUF6mGLzUG/CmtIng5rNUXok6FqggagtDrEL1+1HqQamplcVPTKx6YlLVfRPKOSiXqqTwkYbUKehoKf1QlPJQDY2GhhNfj8ebZ4/H46BMhJVAznVap73McsEfVo6uVEFDV9fVDnV6vtLavfdW21ZO1bc7mju6Ukl521iZHpOWSoaX83ay8iGAJI8c/CJW8GeYkDUwzVZAa8x+IuTrOgmQmlxesmhMxaLq0vmVJTMrSyaXF08tS0wsKxpfUlSM0daBVBz9rYA2ss5Zpa+eQpfc1MXjUXjz7PF4euHaD+jtVOuFOJGwqxguLqnugtudBUebO/beaj/Y0lHf2nWtrfN8a8cF9UlvjtT6p6hVcKKKDdZpKMMkeuUKzLPeA6iQym84kHxsjgjUTVUvKBj63uaZc3JhUWJyaRGvSaWJ2tIi/QZz2byq4pn6nvaY4qKE+uIQopkDt5YUcjY3eakjsxKUpw6lRI9H482zx+MJE7YSwSKhb8CKJUFQN2R7rIoT4WJb8sDt9j9cu/2Hm63Hmzs62lOdyYLOVEFXAYdqWXGIp62gTVqBnNAJS3LK8BufnKLMp62H2nSov8oVWFJVnO7iRCHn4OKCguLCwuLiRGl50frq8nU1ZWvHli2vqeCgXJbAaMs2RN3PT6lU1ee21Z1vlQKLrfYtTMiqqw7SKf12gWRucjU5ejzePHs8Hhe1IDgnPLVCaFkZVHPUMydB46sMjb5nq58OwoIXtadSLalkY0f3zWSyvqPrYmvXvsb2I02dx1u6zja1tnSRDGYrZd59VkkENkn+6rSGEXLlpaqjXKrC9n1xpaQtSkuL51WWLakqW1RZNK+qZHpFSW158ZiiRE1RorooUam+56ugSLeBTkISNLWJosNpo12AFVf1LzIFUBp99Xi8efZ4PL2wRkIbESWrT4QZndb0Ms/GKW5lngu6i9QVbXeC/23JVENn6kxL5/k29WMb19rVq749Vd/edb0reb0zebWtM8lJU+ckEbVMgryMNsfoiqm8ujkAlyaKqkrU/epJpUXjSwrqSovHlxZXlhRNLS+eUVY8taxoSnlxbWlxdbEy4bIrIQH+Sh1sic2R2GicFrQEcXjp7YBE7R3G8yHGm2ePx5MWtTLIyVn9x6Xu3CIqkyQHxR67bf6aKBLeGPFA1n+U7lJ719Em9cz0idbOEy0dh2+3t3cWJJMFnd2pzu5kZ3d3V6qgM1XYpe4Fd3ONeYnSXwNSon62Uf0cTYm6Zc1L3bIuLSooL+YoXDKxvGhOZfGSytJZlUXzq8pmVZRXFanvvVZV0EnolwPqwDgbD7HbpoGUrPzNV5Soi4uKbZoo6un58OLNs8fjGVY6U93tvJLd7d3dbanujmSqLVnQ0Jk829p2obXzclvqamfB+dY2Dta3O7vr2zo6kliwREFhlxgy/f60WDFsvXo3V8E6JvfjuZglTW5QE4AXhhivJCf7RHGivKRoRmlhbXHRuJKi6RXFE0p5JSaVJuZXl9WVFSUKUsWJRGlhUXmCsAVlRYXqt5YlcY9nGPHm2ePxjATBeRGSqYIWdQ+8qxGT3NXdlCy42dXZ0qWseFNnMtmtPlZ2o7OzNdmd7NZ3zAsKuroL2lMY9a62lLLQwUFd3RuvTCSqE0VVxcX6RxfVeZb/Y4oKJ5cpI12YSJQUJcYWFVYmCisSibGliaqiRFUxUQrqykoqOUcr865SU7fndar6YByU1eMZLrx59ng8I4Fr8jDVjkJ9xlnJ+n6wVnHCvtDeheXm5F2k16yO7u6WVPelts7mLnXLPfimb/UlKjVFRbXFxWNLiouK1O9gdhcWF3SnaksS8ypL9RefETB4yFjnq3NVkth466X/6KvHMxJ48+zxeEYAbYANsgrZE7AyonIzWdlbZXd5qY9763OzCWSUypKHbChO9YhTz4FaNOrdZa1QiF3GR9l2ZbMxyiROAB1IVkVEm5/HM+x48+zxePICxxQiqnVJr03qLWTspNyk1nAm1sbXLF7aoEaMKF5GpySJKQoVS0tGq0Joy6y/sVR7aQ91jJZcA7XHM5zIpyc8Ho8nf8AWWtsphlGdZOUVaOxfG1BhHL10Fuy5PY5os6s+Sa6ssD5pqxwj8VQIj2dE8ObZ4/GMDD3mUEuuHdQupXCUBEppH1Yto1b3sOXLUoK01F9MsNwHD1CGWP/V98KJLFZeAukXgtaKh0qeF/4gfh7PsONvbns8npHFXYJChpDlSTTqECtvGKtPgam/2kertIXWOCkRAX8JYoyzdujgyqkdylNLgU4w6eEbHGB6eXs8w4E/PXs8nvxAHRXELlocq6jtaIAJ1kunQSG3rXUYN0Hlg8nuHUMHV8pQYMEcs0Naj2d48Kdnj8czArDu9FhKWYTUUVmfeS3u4iSnYF7yIxJg7kSriPZEXJDSp2pzExuUQ3soJHyPG1Q4/puUJLysipKm+PlzjGf48ebZ4/GMBGJAHVMp1jmEufusCP6i4mpOtpEImiBIcFEBlUYlJpZbR9UZSlgb0BTBhDa3vtMUzOPJNX5T6PF4RoSIxUtnAtOaRYxlf+YSf3kFLpF7CXLhD8khqpfR9Hjpi9V6PMOIPz17PB6Px5N3+NOzx+PxeDx5hzfPHo/H4/HkHd48ezwej8eTd3jz7PF4PB5P3uHNs8fj8Xg8eYc3zx6Px+Px5B3ePHs8Ho/Hk3d48+zxeDweT97hzbPH4/F4PHmHN88ej8fj8eQdOTHP9otCh+0bQzNnNLhi5M/XncZYkiyTirfu+dOS+YDbGqOyZUZ3d99BteurqCF9XDWy6eS0iXKaePYMT2VzYp7tj7upn0nPg9bMk2LkAz2/u+fJPX7UjXp8F1vcZV+E2KG182EFc4uR0/LEZp77GqaUPtcjOJs+G0Qx+oqCcqBJDREpSeZM0/r2FUUnlim1fttzQMSbWo7I3CCDI+0QcpXZ9GyeEy3/gLq7r7pHk80TQrVL28XZY+PmorJpy4Ym3irECyXpqzDoQyUfETIUo6+SD5p4OiZUYuuUxONt01BeA2IocUeQeJsxbSOElK5zKI1m4yKIZtBJ5Yih1G6gDGdew0PaGg2umndE47iFHHSBbUQRuCLnou6hEuYio1AWENX0y0ATsb6DyCsWyJdr2jLEW6Sc39yOsazCUBKMvTDDRowlT5sUShlzUXKdtWeUMbhezv+xEdfKaxMRgavVxEs02Rxl5DKILAYaZRhqkRkKYMuQ08LEY54pYl+L+zAwDFm7WQx/Td0RQO79FiBtgH4jup0Y6lAdtZ9MLTYkQk7H7tCREqq66TJbQXDloUNqed4ag2D01agv3O5To6T3yImFeFMLQcp9dZbNVARViKyL4baJCLHQ77iSQuYo90HjFikWRtKsDo4smyCWlnITkYaKt/Wzx80dGRKJ8NYKZebiEUCEYauF5Eh2VtDq0Y/bF24jiNL1vRORGkG0Fnd61fol2olDr/Kd22huyXNUi2iyoUy53qGt1y93nnnOBum/aL8OBdtQ+TAU+qpallUOBes3VpbJegRpLttoCKK3ztHdmIOo4J3SJlJO6dChFziudAZE7E09gn0nDQgjVYBcE795JsErV67cunWrvb3dqOKDIyOUlpZyLSoqQigvLy8rK+Nqe0hqhDOucdPV1dXS0nL9+nWuqVTKaPMAql9VVTV58uSSkhKjSjdbKHNbWxud0tramkwmjdYhGoXmpUnr6urGjRsn7QmDbkxSaGpqunnzJqMC2SaYJxQXF48ZM4ZmZERRcYonNbVCZiQYbdusSdvCUciroqJi/Pjx5D7ohs0T+h1gUeIdYMODlFMKSZVZFhobG6XKrlcGGGZMWLtYZRlrcMiMo4RZLln0CANy4sSJXBmTRpsFtvvIkfHPIilOS78VJAUZD+TOvLBKrhK3o6ODlFmBsSl5tQJjempqalg6ctSJsZln0pEi0nw//vGP33///QsXLlhlLLmQFHaI0UNzMNCrq6unTJkya9as2bNnz5kzJzSkbNZDQRJpaGg4dOjQyy+/fPDgQZYh4zfsRKvDaF61atWXv/zlSZMmGVVvpPxMmLNnz/7kJz85evQoo9z2hU1QNOIUmWFHk37yk5/ctGlTNN+BwuzavXv3H/7wh82bN7Oc5dUEg7Fjx95zzz1f+tKXMBXseIx2INBoJ0+e3KOhgqJ029NF9IzeuXPnPvHEE2Q6oNUwD2GAnTt37t///d8ZYKzRRpsR1mIZYA8//HB0gNFoQx918RIqEnYC4/fHP/7x2LFjbDplSGcuM7733nsvE3b+/PlGpZEREnt9d+3a9fbbbzPpZMmS9O1odLMTJT2ycOHC5557juIxJgdaHjYrzHHG/5EjR4hrM4J+kyIwC868efM+97nPsX0xWg1eRL906dLevXtfeuml8+fPs5iI0oRwcDPNHZK1lGH69OkPPPDAV77yFbYXVqlDxUPMp2cm6tWrV3/0ox9t37799u3btqxx5cLeirWssrKSZRRTjYCdZv8CmOppGqw1C66JMARsW7Py/upXv9qyZQuDQw4H8TZav9gBYZ0iU33G9J//+Z8vWbKEFhDfKNhmCv/zn/+c8nd2dhptH8nKlXYmwc985jNPP/20u6XNBknEODSMihdffJG17PDhw0xjm2OewNLAosnSsGLFitraWqPNGtaLM2fOvPPOO2xJ6+vrqaDx6E2otRm9bKrWrVvHBmjRokWivEORAfaLX/xCVk+jzYgdYM8888yECRPcARYdP3mIrAlsR1jupMr9jmoqxRp13333sSdjTjHqjEdueOGFF5h0smTJpE7bqlaPgaF4GzZseOqpp1hPxDdLOImx4G/btu306dMcZox2ILCqMwu+853vcPSKbpF37tzJ6Wjr1q03btyw1REvW6l+2z8u3ByxPkzhb37zm8xlVmPRx0jR9773PSPGAYczBgQL8flz53EW6n8xQouwUZUbiZj/69evs7FicWTLhnDt2rWGGzdaW1raWluxQ3Q50z7toMwSicvge+211y5dvETKqKx+2HAHhJs1dWRSLV++nNnOacxoI9AjbKUPHToUOtmQlDumJWW5omfTzUaHE9748eNlb5g9biGBpNjFc87gwGFUeQCFlHKmkqnKyorJU6awF86wy+kLNh/vvfce5pkNPi3M4ASULlZjBUI2NjYyYmdo3Lcn7jgYYJycZIBlOeHtAGN/GRpgocGTh7Dy7Nu372c/+xmrHEO6uaVZ93m406Ngy1m+2AKymldUVJjkcsNbb73FOqxWjKBHoquxTH/RsrLioHjLli1jQGr/rMAe0/u//e1vGf8swm47ZNkswFrNyQpTxzoWvZnEtp75ZXdCoREyzAPGZKcXzs6Ozuox1bQYB8Ly8nKlipV4HqxKS2G3dLsZBHFhU3MFuHjx4uYPPnjhv174X//P//rhD//fN954g7HiHhbTYhOJ4va6DkZNVKWGH10/lXHagShemckmIk6CZZNaZtLmlafoDqW4yaTa82X5vmkIzMzmzZtPnDhhG9BtQzShBrFOIrKz5BzGQHWjCFFNPkNp1dRQr/SntL64s6opnDl95tCBgzeuXe/M7laBC1uZt99+m52ZcTvQFDlqDfrDXY0F8VIgq1cQJkI4fG/Ylr3//vsccOV2aTSkjAc2AQnEbkyOEeSFjO/ChQvvu+8+di3Z3FQgC9KUZMUZzTR3qLx0Q1H4XJND8zzM0Gop3U+ss6dPn3r11Vf/9V//9Ze//CWHNtZBEygCfaya2/NhZ5Bj4MaNG2ztL1++zAkApx1LsnyAHpJGKTKgtxos9PHjxxFEAzpIPFul4Wa0TyXpEfrr4MGDIqtluncvZwYbdurUqfr6epYpowpQw2UgO5t4yKLUUjBbQSu0t7ezs+Rcu2vXLtHgZasgUQStVIKEEUElWlhYWlq6YMGC+++//5577hncJz9GMaPHPIOMi1Qq1dh4i0PJli1b3nzzzddff52dHcOor3c99dDxeLLFHUVXrlzZs2dPQ0NDX285C6GBZ5cnrphnDDzW3aagVy0/JvMR+oi+xr6ePXvWqAZIR0cHW7qjR4+ypTOqOw0ZnMlk8urVq9jmffv2SV3Srq7QayiLg2uhOsmXlJZyYn7ggQfuuuuuadOmJfRzEzqERzGqzLMLRrq5uXnv3r3/9V//9d///d9y7wWl8fZ4BgXLh7WdyBcvXtyxYwcjTTSul6AsrSYkSzBgocc8X7t2LfqhKkIayZMfcF48ffr0uXPnMLGioSPd3uwXAtPR27ZtC90yyVsopBAajZz+qcLPfvYzWgMnAUQvIcEISmXuA3fjQK8MsxYKCmrG1ixasviJJ55YuHChxFXhPAGjyjzTt24HIwMz6uDBg7/5zW8w0iyC7inHDezxZMAOFVlwAA0bvkuXLmFfQ5+Ht2FADUENSiPppzytkzCNjY1sHzN8bk6CeUacpqam3bt3X7tWL91ntFlvpAgGLEGcv8+fPy9P8epRkI/9KwWTMoPRBrArffPNN69fv24/ruUiYSw6JSOIL0J5efnKlSs//vGPT5w4UT4OJp8QNEE9o/L0rHu3p4OZACx8R48e/eCDD9544w02v9ZCR4eRx5MljKtjx46xznJ0tp8pG9zKwvjcvHkzK51xe/IS7BB9hHmur78mGrvUZNnvEoxrQ0MD5vnMmTPWtmn//KKvUnFuPnHiBOZ5//79ssMwHhpqJ9UMEyQmviUlJStWrFi/fv2yZcuqqqrsR/fJND9bY0QYVeaZXpVziVhn29NcWUOPHz/+i1/8YuvWrZyhWU+jY0iPq3QDy/NhxY4HGUgW9JyYWamx0OLUY02FUWMo3ZnDDSNnJpG5cnrevn37lStXove3BQnpGVk4OmNTDx482OvR3gEuGHp0qMFDUvv27Wtra8vnzqVslNY4NKyc7FHee+89Bv/FixfxJYwNpuoWECiVL16FgQDY5rq6uocffnjdunW1tbXy1LsO7OnFaLu5LQsfI8GonKWNKcEK+Oqrr7700ku3b9+2FpqroIZPZDh6PszIeIgOCQYPGz77TBTBRG8FFzWqNJIUgr2JJ0pSY5k+cuQICUoUT75BN2FQDx8+TGfJmqG7VBkdfJWQBSaKjn/u3LmdO3dGP7+db9iqUWau2OYDBw688sorZ8+cdZ8sIpgEMAekILygNSiMZvr06R/5yEfWrl07efJk0YDNyGMZbTe39acPzF/Gg32Js7Oj4+zZsxygMdJs/WRA2GGhho+z1Ho8wHiIDgnOu1jT6PNUlqgmAwRm0WfVY/U3Kk+ewRg4c+YM5133drTuZbNiRAdJZjghsBYdP36811k8j6Gy1H3/vn1vvfnmxQsX24KNBXrBdYqsEUWPBpO8evXqTZs2TZ06NddfnXanM9rMM5NEBoL6Khw1d3q9ULboQ8/LL7/M8up+4FZml1w9nsxwhti+fTtXzKqMGVmAuOqhlGkUuUuVy7Fjx44ePcpxKvRmnmfEoUeamprkCXX9yRWnf4PO7Ktb+0LeyZZv2jKq/IaKnz9/fuvWbVs2b+nI7ueO3IlA63CwrqioWLp06fr161euXBn6em1PlFF3enYmiV0o7SjBF29WwFOnTu3cufPQoUM2PIIN5vG4uINK5KtXr27evPnmzZs4QUaOCFZjBR2v1wATGRBEg4wB4Dh++vTp/L/h+WGjra1t//79586da9dmSXrRdGjQ9VqXFbb36WiSzdsHoCmnW6/GxsZf//rXu3btkkZQqNqbIR0FLxXdaRhs8/Tp0z/60Y+uW7cuQ0SPJR/Nsxq5Qef11Yt96QM4Q6uhoUaHecxO3e/mRTQGTWdnJ/tWeRhab4f7TXAwUAj1UpnHQ7/Nkg+4U3pw9FRTXtKM0pIa8U1LX74S0UVr9ahgGhQVlZWV9fXLHyawBlmMKFf7SS5b5bSC4CrBKgVkjmhY/a1bt6b9xkfPCNLS0sJawdlRek3GDENBX3t1az8QktgE1wLjR56ibmhoGP5bJmmK3Xvq6FliVBcuXGA/umfPnvp69bXhoqQVbCIS2KI87fZFz7KSkpJZs2Y99dRTixYtGjNmjMSKF1klokh54kXlo5JNl1983EmnZ93vqqFtc1vBRSn1/JEXbm2nA4IozIoDBw4cP37c3uKOFztQ9JZApnIPqibpCp89RMeiMNAhz78ML5FIjB07trq6euC/UCILoSV93H7TzByguKS4qqpq0qRJWTbjqVOnTpw4wZKtPyUUJ9euXZN75rJl9OQDGNEbN24cOnSIzVOPSWNA6dcAbDMQVoLrK+OHlM+cOXP27Nm0YymU+MDyyg47M/QckVcvyJShfuTIkXfeeYc1Uz5sYQiHTYdKUoWbMmXKqlWrNm7cyESTp5zjrU5aw5wrpJ0KC8rKy1nWWIGjP+MRC3lknu0aSrcBToh2oSitHqcIIXRsg6sRGZh1jLbXX3+dNRFnNKNYUBttnacSnDLrGmSbo5QciGIF9OPGjZs3b578PquEDJF9FjFC8YwUwNhdsmTJnDlzyoMfos+MVFMJNJuD9lE1CpxGsOHBrbL4GodEDnxFBuTKyspp06YtX76caSa+mWGlZrUibij9IUJSnJtJ3H7izDOcyGAQ9NBQTq43b97kjMvx8fbt22joJtdXhY6MtD6RcBocKNi5Yp45lbrfbCOQuA7WA06b49CxiYdyCcG+gbrv3Lnz/fffb9I/eSfF4KqOxkFcNAKyHK8lmIB87733Pvroo1OnTrW/7GTjxogqkE5WMhUlsgjxQrITJ05k+WURztH76HH2NzCUOY/+6Ec/2r9vP8WngUidRdZ49w0HQapK/7FQ9vXLXBhUTroNGmzqlStXzvf+fVnbMa7T4nYY4KyoqCDTb3/72+vWrcvwa5379+//x3/8xxPHj99suKlqpNPIpt2mTZ26YuXKFStWDOJnCjMjdaGh6urqFi5cmPnH6Q4cOPDaa6+9+uqrHMuMqg9U7Zx6fUrD+Bvi3pDpStYXL17k/MFs77fpCE9H79ixY+eOnS3NzThNFLqvV5eaXnCLjTx58uTFixezHNA+9hEm8dJBwnBoZhjQjAic7wksIa1gYQ2lYN///vc5SdibLjbrWKAMn/70p5kIHDWMKl1J8goGGKPrjdfMTrcgke2qEtcAyyn79u1j+vz+979ncTOqANspWdZX2bOgN/WIVEoWhzVr1nz3u99lLrvDb4j88Ic//OlPf4oQytSuxsqJUgcQX46BWJqvfu2rzB0Jw2yl1v/5n/+JbZan/tzwOFN6A63D9jSCaKxz/PjxrIFPPfUU1eQgYeNmz1tvvfX8889TALttDWUBuKVg/LFahhbbbnLP0f1FrDKrzaJFiwZaoyzJdiJlyaDNM+vjypUrv/SlLzE+MphnNrBinuvr61nuyYudHTLHDlsRK9guDAkWNCzfX/va1x555BE60mgjDNo8r1+//rnnnmOdHTt2rFHFRKiOlmgdYcTNsyVt8aJgj9mnU+CXX3751ImTzkdRmIBGFKS0brGRWVzo0Mcee8y+nWyDheS02EJGBQYep9sf//jHHHdwugnGBQVmNXnyySeffvpp+16ALUB+MlrNM7VgQ/b666+/+OKLJ06ckHHoVs12Spb17WUpdVSJuGDBgu985zus8lgy8VV+Q2NQ5rl63vz5X/1qj3nmCLR3717SwTTK+d6UTNLQhtCWVuoCohFndXU19XrmmWewzRydtf+AGZB5loaV2j3xxBNkzQqcI/MsqDzj6LIo+XJze9KkSatXr+bal22mCWhiNpgMZcwe69dXvvIVtpyf+MQnmN7S+qpvdEu5jZW24QjGFS+E3fqX5EUfL9OmTXvooYdit82gq6iQighSd+PIDyiSlFCELIvHnokjxdy5c5csWVJSUqIrqpBkCKATU4geQSIKjAe2ehUVFWKbQYIh2CiiT4v1jQqYnzfffPPq1avIOv9e+Q4FmwVbE/mu0La2NrltAJkL7MkRtPytW7foi4MHD2KbpS/Q0x1uj6AMafpFTIhARE4dW7ZswRaKU/S5RoptBVW1YDhLNbkePXr0hRdeOH/+vLHNBGOI2mEf/AVJBKyTK07WwLVr137kIx8ZtG3OForvzBQpAMZi3bp1ObXNOSWP3nuWBg1hlbbdLSy+WL4NGzZ88YtfxEjPnj1b9EQBwosgoHc1khoC17Nnz547d05WQxU/ViSL3OE2i5VznWlmbO7Szm4JBwHRSSegR2kkjXVKYJFdrDIUMRQ4s7NDP6jKSs2SjVOSSpvdECGjy5cvHzlyRJ6wCpXZM2xgk9i4Y5zESUfYTge3X0RjHBlQgbpJyAYmEeSmpib9oeh6UVqiaWaVy5CRUu3atWvz5s2nT59mbRS95K4qbl5GCaHW4IpRnDJlyoMPPrhp0yb37oj45ghVElVAg2jEK0dI3XOUSz5+NCxLCM8IYFO2atWqRx99VG6eZJ+IbdCGhoaLFy9euHDBfRs7RnI9PkYraboyY99m6PrMo8J2UOZgHJ3ZyWE4ZbXKfqRlCQlKmvbDODl6psCTJZjn/fv3nzlzxrgdBtn7Eklf3WWBozknBDIKWehB5pI1aZYmraE8lIQDPZsGNqNpPlVuyhUunk2Qs9O4cePWr1/P0ZmDk3wERMhtpYK2tSXJdRtabI4xkkfmOS00rtvWaamurr7rrrseeOCBlStXytt1Ekt8kbnaREK+wCRkLB49ejT2j8vaTN2roH16nH1hg2UQokiVRwqbu7SzW8i+CtwX8maSkZ1ahdIRZ/aJu2kiOwn3IqRn9Tx8+LB8q5eNGAozFCQpkgX2i1u3bmVllPvbEsAznGCTWBAOHDggjzuj0T2TptNDzkwQsvfiI3JXVxd9fUyjM1FIABeUA8gra0jTpBwUj8IcPHgQ80x50CuvIKQIoO4lOw9WKI1T5oqKipkzZz7++OOLFi0qKSkx2tyjVgx9z53CWKxTB4kZ6k7K0gixZ5FfN7epoXFopLZSc+u0hJyrV69+8MEH6+rqOFK7SUVjia8EkBvaDEf3Hk5cMMPde+ZukWwBMmODRYUQpGkkh7TK4cSWVgQQfb+oTlKlN+UnonYqgr+BsndfZ8gCXxHcMG5cEdKC7/Hjx1mz3ESQrXOIkI6ME5IFhg1bRsZkQ0MDTgnjGQakQ7nS/rt27bpx4wbbd7Xk9+5onKKxQjbYwNKnyLq3FTjZ/4l5Fo2EdJFgcRFKTWencuzo6OCs8tOf/vTChQsSxpY5WjYEi3gJy5cvf+qpp+SJI9FI+Byic1HF0Cdo7VI/rd2uf/JSnBIwdmzKCBRA5FjI69NzqEEzO8eOHTt37ty77757/PjxRtUfpCCJYJ6ZG/LJzBi5fPnyBx98QMpXrlxB5jp0rl+/Lvc8beEFVx4FpK1a2hqKrw0j0yPtJBl0EzEwOM5KPxpVbrDFZkGhlzm63SlfyDxqsMOJvt6+ffvNmzfZN4mXxXbToNfitCmwRJw6dYoJnqN32UJEC9/Z2UV9qfW7777LRiH63oo0TuZaczpauHDhunXr7rrrrpqamhH4TL66BWBmOu1JdZi8eu2MgatXr9JBGQ5yg15k0lL0ve99z4hxQLnZb9Ii8unW7Ms6adKk+ZrKykq6f9CVJPrJkyfZ+UoikooVQMl2k6U7Ehnw2rBhw4QJEySYC3WhRg03blA7wqe3Eulg78bph6WWK+ss048rY4XrIJDo1/SPVWf5DVwSgNagTU6cONHvlzmHElyqqa2tdd86GgSqtfsrahTqe/KEKrd8alRBKr3TcZ1WWrly5aJFiyi2+GaZe4Ywt2/f3r1799atW8+ePWuDyZiJC5IV3GQZP9OmTWNSDLH9cw0DjNF1yj73kkVrC3ENsNjBQO7bt++VV15h5nYlk6o+eq2QDhJBQoIr9wEB0oSxEUVgeSkrK+PEiVWrqKhwkx3EDGK47t27F0EVXGv6TEF9WE0ta6lUNztRjBA7UU4sMhTxEkzYvoc9YTDGnI4effTR+++/P8Zxe/r0aepCX9ilwJbH4qzLSiQARaUf5StyWcNlFR0iLEqYZ+qFoclmBR4ivZaDoTPo556XL1/+sY997LHHHqurqzOqgYPdwgL9/d///R/+8Ae1A6VqOmddDFVP25pquKs/4iooTCTqJtT93d/93YoVK4zKYdDPPTNYmW/SkSrHOPqSkcG29E/+5E/YomKkjTYj+fPc84DYuXOnPE0r39YE0vIgLamaNOhUVWz+6q9m++IXvyg31vpt8Cw7hdXqJz/5CeVhayVNRBwyU5kG2LKFsOlLXhLFzdQm4obkSkczeD73uc994QtfYL1mCIlvHjJqnnu2xT537hy2+fnnn+/q6rJvOogX2E6MCtZXUOOT5kCvHhHGB3ePbxR2Yxs3bnz66aeZ3UY1WPp97jmKCpkolMWKihttf7i1njx58qpVq5iAc+fOLS8vl0x1qCGRzXPPaSkpKaEY7HVi3P+R1COPPIK1WrBgQeht9bjqa8nrXflAYWBhsRgi7MdpKjXeekPzCbYRg25OYc7ZYcX7awQM8ebmZs4W7LnYk3IdBPqeiomLgIU4evQop3lrtEYrdJORMpNlsHRkM5c407Ctoc3ZehI+GDzhiGkTkvACTrmGIIwgwQAZPVaBrDmvHzp0aHjudn7IkZaXxscSsCej2VGKr6D7J9yJaGxEF+0OlCpSOEAU1p9t27axEGVvHWMEy82o44Q6INssbYIwduxYjjfYrenTp8dom4cCdWGdpD1l/YwFVuCDBw/u27cv2kqx13dUmWdh4sSJEyZMiCyE/TQcg+nGjRvypbL5Q9r+bmhoOHbsWL93qj0DhTFgpAAZFazUly5d6qvBbR+FBK5srsePHz9z5sy0b5pANMcQHOP27NlD1m5Ika2m30Q82YN9am9vZ37R6TijzZ4BAgB9PW/ePGyVOlrpEaG0GQ/NFnbz7AzodOa4UQX5qkTytaNlqM+fP3+9Jsu7encu2HuGxzBsoUaheWZBBL1E9hrNaCxGpQe9dprbU/mJFBKkkLrAnnhw+902rFWiOX78+NatW+1BSnohuFGpcIVEQt3JtBrG4T333POFL3xh06ZNVu8GQOaK072D6gZjq75///5bt265a4EEk6sreAYH7QzSjHQ0G7IDBw6cPn06bQsjCxIFjEcQ7MEHH/yLv/iLlStX1qivCySMekkmEiwzBDukf3PFuHWyEtfNK0+QRiguLq6pqXn00UexzfZOch6WNhaol1QtbYeiTKsfHKPQPNfW1soXr2OdbVMG7dYD7az10spqfbxy5crNyLfejyxBUcM49fIMCduMbjuLEg2L9fnz57HQoZ0y3roHerpAYjOKbDoIkyZNYs1au3btnDlzxowZI+9UhTtUfYd/T46is3CSu379OgVwj1OeeHG7khVgz549tLnb49F+ARsFJAD9u2jRosWLF8+dO/euu+6i9wmFlxydxUjr4JkgWfU5u1OnjFujC9iTXf5AqajfjBkznnzySXYkQ/nk0J2C6lDd3Wl7RHdUbD01Cs1ztcY4NNKaUdx2ZGFlZkafJfB8aGGBZsd27tw5rnK6jQ4kO4TkrztvOUZMnTp19erVLF7Tpk0L/Z6mSUpde6JESSaTHJ13795NGUTT12D2xAJH561bt6bdpqftI7c7ysrKli1bNnv2bE4Iq1atmjJlSlFRgmi6jwfQa5cvXz6jv0Es+uZ3HjJhwoTly5dv2rSJcc6YN1pPHIxC81yqUZLe2bGwRucVGqvSonIpZXAfKa+QUgGCaMQpsmeISGPatrW0trbu378f88wRVgIAAl7815EUNqIEUL5aOXny5JkzZ44fP55DFSv1fffdxwHaDa8ip8zJClGUrq/ImOd33nnn7NmzrlJkENkTF5yb3333XYy0cWtsmyO4bW67QAKw7CxdupQ9WWVlJeZ5+vTppWVlhYme/hIhMwS7ffs25nnXrl10vdHmK5RWvg+KistvHtu2Gq1EK5hlzw6CUWieBd2IZuZEmw9NtEWV0ln+8hBb6lE/B4YTGjNte2Ked+zYIb+IQAAZHuKlxpaWJaJc0bjpzJ07d37wK6WcMO666y4OVZhqCUY4TlVB+J7BaHw1kgUHaA5zFy5cuHTpkmjcYOIE6+UZNKdPn5YPXcqe3jYyggWnBEbmagNwdK6rq5szZ456bETr582bx7HSPtKDRoRsYH+wc+dO7LQkbrR5BrsQ6nj//fevWLHCfXIpbwscC9HaDahnB8ToNM9ue/XddrSzamh9vSPH0+ieBiNLc3Mz5vDEiRPRN31lRHFNO7RQFhUVVVRULFiwwJrn6upqTtIzZsyoqanBaTsubQohCNzW1sZx6vjx43KP3ZMjaOHDhw93dXXR5raP0hINgG3mBDlx4kT7k7iY6mXLlrl2K0sYFWzIDh06VF9fT9cbbf4h5hmoNU6KnbnRPANldJpnd5Qgu4sgsnG6AylfB5WU1lbHlDyooOvliRFalZWRlZpre3u7tLPqCY1tfBtYBAtHZI5QixYtYoEWjTyRj8GeMmWKm4IkiyjBXAIvk/7Jkyf3799vLYebu2A1nkFAA7L1OXr06JEjR6Q9jUdAqMFFI4iTvdcDDzwg719YzcKFC0tLSwkjEblmCbtDjvJnz55ldyjR8xA2IvKIs3H3GtKKAVX5TmE4u2N0mmfQIyM8Svps2Twd/z1rgeDKQt5O3TsaWvX8+fPbt2+XB44BjQjiy0VkcVq9CByR16xZIzc5LdjsVatWYbAJo1LQz2YFUXpWNNE4XgaO8seOHbuuv5DZBgZkwQ3sGSh09KlTp+wDx6ZNe/eFaECiIIgvcllZ2dSpUxcvXiy2Srw4XKJcvnz5uHHjRKmiZYGkyXaBDRnbMlHmIY2NjTt27Lhy5Qpj0qh6VzP7Kt9BSO+4giWqGSKj0Dyz8ez5aUjGByNELYYRtN68uBQWVlRUmM+U5RNBGdVIp/tH5YjPK2jktra2ixcvYg45OhttGDWg+vo4LkcozHPoIRMO0LM1mG31HZbSr/Knu/8+xX6wDh44cCDth4rBD4yhwKJB2169erXvHu+TRCIxefLkadOm0eP0rO0IZPp63bp1fX0pTQYYhMlk8tChQ2waOjs7Y1/3Y4Exyfl+y5Yt+/bty9tC6gmmp1rcDMOMGyXm2R0ZrF+g2s70jDJtoabUvr1ewKoa44MBOkmVqRWiiFcmCKSei5X4RuGJEUaOYGVOLfX19RcuXLh8+bL9Cn4JIIICQe/5QhaaDpI72ytWrBjf+5fT8EIzc+ZMDtDsAnU0elNevdIPCRZG9ebNmzEh4sU1GsaTmVCjiUyP07a7du0y3xkegWB0n46qUPPQOU+z8Zo/fz4bL7o19EGwsWPHrl+/ftKkSQN6B1qSxTyf1nBIRTZ+8SEldAVwZSEaDEGQp/7eeuutN99889KlS2xqaRMJ0y/Zh8wSUyZgwXResn7qqxNmCJj80pHZdxCMEvNMu6h5o7tcTs/iFNwwIlsBdBD1fU/xmmfBFgwBrFJdeTnDKP1LhVWBSYGrO/lF7xkKtl/Ayh0dHVu3buXojGzCZUQiigCzZs3CNnOQCt2JIQy+U6ZMwdc8AK2T10JWGTU1NWFC2DTI47BEVHE9AyHUaMi0JMvFxYsX5dedrRIkjIBTR1WIrwh4cUrmiLxo0SJxCiKznrAbo9Orq6td3wy46QPbRI6nufiy4Wh5JGsrC9FgqnBOMBqNEv7bv/2bHPRF3y9pUx460TQlI1UTxNDqOrjXME66UWKeQXWAbji2wNedn2YSpRpQ6UaD6bnCQixfTU1NZWWl8YgJyVTKEAIP/f5jf+iQJKGi6NQ4n1VVVQ1oP+5Ji9svInMgYHt3+PBhlkVp7cxEQ0ybNm3evHllZWVpO4iVeuXKlWwEOXKp7k+TQHooHlaZsX3u3DkO0GlHlGegSBez45GP6Mt7qLbfQwMAp4Bs259N2IQJE2bMmMGGzColDDAGsNCMh7lz54qmX2xcnVX3lStX9uzZw5gUZS5wcxQhLX35YpIZkLt37968eXPoy84yQ3NlznFgkBSLOYK5raWnlrLI5mpeQ4Q09EN0WIphmIN38BKv2qo3aBgrTLb6+nppO7lGQwqquQMvQmKemUt9BR4cJMtRiWQFOhWMUIHApb+XDixhAcM8ceLE2bNnM0TiLaoH2tra5PvuQ19M0RehCUp3c05iIJEOZ7IQra2t9NqkSZPk9BxY52w7ke7GfmBI8vnjQvlM2vlCR9Dd8jyVUWmlFUSWazQFzDPdzQGa6KabdUeDcbS01NbWTp482UTIApspMA6PHj3KeUPeFI9xyru5RJGM5GpDigAqhEYCUDZmzQcffLBjxw7WXnkfWrwyQ1LZBMsKkuFoq863pGteTLBEUcIsnnr97LW0DvzF/6rqajbZ7MLVDjvH3JHmWfreHSUCw4ItMPvNmzdv2gAIXNWYcpxWcJVyc1s0Q4c0gXkrxymYH2DkBfPnIWb50hBpyZIl99133+OPP86cp6hSck8s0JgsLhxWWBMHcZtORg4HXPnOZIyomFJBZJZaaGxsFGOgo7KGDOBp5v3791NC4/AMhOjUlr6jX/bt25dMJnEK0qGgusdZaqyQ0l+ujhMBA0wKR44cUd0c4HY9sCjZuJmR3CVxEMu3d+/eixcviq8EGzqSC0JfaYqvJXPWtB4t8Oabb/72t7+1n34Xr8zEViMScjrOwoaYw0ywgA71NX/hgmXLlj300EMPPvigHJAEk1ncpKnPUMAuHj9+/Ec/+tH+ffvpXtVedHMW54Ply5d/7GMfe+yxx0Kfd80SakFenJvZwf3yl79koNiuQpAAOqDB7UhkjqR04d/+7d8uWrRIlC4siP/4j/944vjxmw36F3/1cMqm3RgP999/P1f5uruhQ+5s2diJz5071/2MaGYOHDjw2muvvfrqq+49/7S4zQIj+2v57MQp9huvvW5/2VpaHqTiFFVvlYNio2S/3N39xS9+8amnnqLZs2wfQaVWWLhly5af/exn9HiW36eoy6ELQAK6JBMnTqSD3FudLqxiTU1Nhw4d4nSl33w2k8NWLTOkyXHtnnvu+da3vsUWPq5xNUQYYIwuesp8tCqR7aoyzANMutg4NG36F7Wff/557IpsmECCuVUIxXK9KDlnKubj2LFj0x6nCIxtxsT2O/ssoezKy8vXrVv3zDPPPPzww0aVBT/84Q9/+tOfIshHG0ylEILV2K1jqL5psaWSpEQWbNyamhoW0kcffZQhumDBAlEOnbfeeos+YpfDTkg0UgC3zNqt6oaP1a5ateruu++OcYCRL0nNnDmTQxdCqB1iJ9uJlCXDbJ7tQEHguMMywYg8fPgwM0FlratmA4gcEkSeOnXqmjVr/vRP/5SxJUqXwZlnQm7atOkb3/gGHckEM1qnzNkziCgu3jxnAxGbm5tppX/+538mR7tY9wtlUAUggUgDgmikJK6X0uAKNNmbZxJhE/mJT3xiw4YNjFvjMaLcueaZGfHGG2/8/ve/Z45br2h/SbOH4rp1lADGoXFTEyF7Qhlh9VkVP/vZzz777LMVwc819sugzbOknwp+qgA9IItTNFZWielJZ5z6tLp48eKPfOQjGzdunDRpku1ZCdMTcSBkZZ6tiJcuEmGee+65z3zmMzm6Ed2rHXLDHfzeM9jWQWhsbKT/tm3bFnrX0O1CaVCwgijHjBmDYRYj6oYfIrKXZLwat0ZyN47skHIKxHWjDzQpTwi3ATlInTp1Sp5jcds8O9RwIjX1R8cVQTQ9IQLQy0KJzH8J0C+SGkYl+rMNKj1POmzLqKbWWA0bMlaMS5cumR7RWNkN78qC1QBOEdxgIrjBBoRNgdFYX1/P4Lxw4UL2u8Z+kSoIrsx6JUsWSqvHicHW8VSNxEsVkB2yKabSQ0dHh2zXwFpTgoqvjpMjKGSisLBIFSroHbY106dPz9GbxJJFTrmzzbN0NuOmra3t/fffZ5Mln0qQcWCbT4LhFL14WQGv8ePHs+NjZyrBVJwhQ+Jc3ZEhmiGi6uCM8rhK+6HFNiBNevDgQflea2TItm3pDn0QJgk5nvDSgtZob600oXr0+mATaLOFgnG4p5xXr161yx/4kdAX0ZYRzc2bN0+fPn3u3Dnak1Z1vbhCdAz0OyokHR3brDAgTgmQDTaWCMLFixcPHTokny2PBTd9kbHKs2bNeuaZZ5544gkWQ1m7xDcUXieg7KG+4p3gxSgWX2YQrcqCjIU+c+aMChPElaRyB1kYKZDv6Cdc7rCiu60vyEcntm7dymhg+IYCZBgN1qu0tJRN1ty5c91b0J4PFRxQWltbjx07xhnFqLLHvtel/zCqzMDCBLMcGVmssFrAtKBl/sgdbgmTEYarHbGs0RydT5w4wbFPNJ5BwJGUHqclrc2zLeySVhkly2CDBvO8f//+Ab3tMlBKSko4qKxZs+bhhx9ev359bW2tPV1Ea9ejUaMYR68At27dYny+/fbblJkWFsMcTWQYiJqMoUOauUg2yh1mnulg2y7SRo2NjXv37v2nf/onLLR9OhC9HQp6VChZwotSQI9mzJgx8nGe0PdIDBGbr1xFkDJYzaAZegoeFzF4bPnNu6caespIGXE71O1iTQLRJoOeq3hY54CQuEDc3bt3sx81Hp7sUH2jm53rhQsXDh48GD2PShignY0qQFpeZAlgw7hOFTkIhkac4jU4iI553rdvH0eRQXztaFpIUwQpoSq6LmFVVdWKFSu++tWvyu95oFGlD8ovwUCpVGyFEZWVNtXnKm8cbNmy5ciRI7nbUkShCFI8XUyF8YgJm7Jx55J8Mc+MOfu0CThdH0bapampid3Zb37zm3/5l395/vnnOUaQgo1FGCsjWDkE+kQiwW5x2bJlfYUZNCTY1tbW0NDgDk3drYPv18yFTOubfb3cRpNCtrS0sAu27zmNYq5eufr6a69fr79WqO9L6wmuMN5Bg/SFaTcaEFGdmTlRoOpOFaSUddYpqiQSKmEJIJq0vZM2L0KawFzUq/vsmbO8GGOhDkqbJvSlHymoZuwDrN86kikkk0mOoSdPngyZZ9XETgriBFcmuvhCSCNOkS1WYwUbXhUlnRzC6ltbWzmKXLlyRZyCm2M09wz0ZKdHKFfz0l92NmPGjGeffdZ+VpygMi9sGI2KaV4MdY3xCQqzc+fOl156ibOTu/FNixvXpS99GFNEVQaQ2tFisa9gfXVTLki/QAyaQX9ye8KECYsXL37iiSemTp1aon+yHmWoIbBz2GCmNMjzzeR16tSp+vp6E6I3KveMtcM2k9ef/dmfbdy4cdasWX21++A+uQ2rVq168sknZ8+eXRn3l5EJzKIaTehdopCc5Se33eYSmU30Pffcs27duuw/LzogJk6cOHbs2L4+tTtsn9xmXO3atevf/vX/Y8PHHlHNc70QgTSIzU6p+sYUow9ChYmGzDYX/qu6qi/3fmjjQ1/+0z+dOXNmjgZYlgzuk9tUYfny5TEOMMnUbWd3gOFrvVhGjh079uKLL77yyisosymtJRpeks0+EZuCLY9bNpuOG0yEMWPGrFy58rOf/ewDDzyggyhCca2c7Se39dZRIP158+d99Wtfu/fee3GymL///vu//OUvmRctzc0yJaQkRM5mVQdyqauro4s3bdpE4Qfx6yCQzSe3IaTE+dBDD5EvK3COHg2Q7yAC446b8FAbIoM2z8AUXb16dfRpTml0kMMoVvny5css2cwxlb4ufwYhrQwI5eXl48aN++53v8sakeGN50GbZ2rEAoGRZo0gotEGZJOCJRodSBwjxNGfFnMDSO2MY+APVklchLKyMrKgUxiFMY5vW7a777576dKldIFbWsuwmWf213/8wx//4fvfZ/LLZ7ZTzojtySsQtFph07dKpQkc1lcQtVL1Ho2h8NbLgh6lXCGhwpkUli5b9sTHn3j00UfpJglskQCSZq4ZtHkuLS0NDTApcDbRLbaOxHJlrlgFBpj9bRIbgB7/3e9+9+abb3IYHVBeaQllmoFo7aKFT5sIXujZwbCkfOtb3/rkJz8ZPcPYFIShm2d8L1y4wDRkH3P61OlO9zZDTz79YIv08Y9//KMf/SgrLWcJKhIqrUUVyYklZGmeBakXkAvjivPeXXfdZe/SS5ghYos3ffr0BQsWsMuUzWXaGg2FrCZS9gzFPNNtmBnaEYFS2apKCXGmUikOOh0allH00WAuKvcgblqBEzPnZg64c+fORQMqWoTBmWdC0mcsOq5tI1ZfufSFjWJztCkwRTk5cfrHFLG96CvlbMyzzcLNi/KTBZ1C+ftKfHBI+mwsNmzY8PTTT8vgDjFs5nn79u1vvP76S79+ibgGHS9tdDxFkEx1OcSt/zmoYW+Lp9wmog7F/2BaSF2MwyTrChZTHnRBN6knDpYu+au/+qv58+crr3SoQmbXDoNmcOYZogPMrXs2xe4rmKRjB5iEkWRZOi5duvSDH/xg3759rFcSMkskHYkiqVml9IsS+ibDuAJbEhsgmhEthm1meC9ZsiTzPbOhm2fgCMSJ6J133nn77bd3bN9BKjJ6JRGTQnbU1tZim5mb06ZNCx0n0uLWJavnnnsXRpw0EWcMyQ6MXxxIXiSO7f/GN77BAUyeRouXou9973tGjAMOuDdu3GC9u3r1Ks7sW4Rw1LejvaO1pUX94lQzmItyawna2ts6OzvFNruJ68Y3Tiu7gvbpAQ19xux95pln2AFlsG1AXahRw40b1E4F6zNgGrq6ulpbW6X0TU1Nqh4anEbKTFNT0BQmrhvt9q1byWRq9V2r6+rq2FabLCPU19czsk+cOEFJjKpv3HagkWlqYmVb2uyw7cBaw+Fp7dq1aRufNZRinzp5sufdwSCUDS9/jDPomlWrVi1atAjTlTbZKO++++62rVuvXO55Sy9IT/0JjTRBNCF9OFiwVih971VMaxzZOpxEwqlpQr70TmdXp9yB6Ov2T9p04oUBxuiipxgnyp11jrQte26ZIGCHmQj6fz8DL/DWf23YJiXyKkoUMcDWrFlDI9h2kCMEKz7zOm3nZkaSAiuLPhskbL9RMgSgwHQ0O/7FixeLeQY3vJW3bt26d+9epTHZhpO1TqvFwIyvHb9m7doZM2aIhm0T2WG2WfroZXoqlUr2GspZQ1yMPTBWSbDfz+G6pT19+jR1YaNgv2o3VJcoNgArcDCctC2JA7uC3bp1q7KykgGGNem3RoMgXz4aBjSnalE6nzmDyIqGoLZrtLTcA+S/Ghs0fV/dg14F0rPOFYy3RjRs4pYvX7569WrGSihAXEjuxpEOVbuML90aKiGuRqmaoqA7JU2knvlmrPQYsACyHkSlbGlF4CqopKQvhvxyYebIc+oCGrkOG5g3Wo/Jf/bcOapptAol21IJ4pQGMSpFT0OFAosSrN64e2uUrF3WyxV0qBA9udB6jY2Nhw8fDj1hZdPPf2w1EUR2ak0rhMdP6KUaQ72YDo4eWc+OpB5gOqGelsTMcG5mYWX4kaPR9oebQhSdTk+P94X0sa6oIohoU1C4AVQU7SWC+J49e/bQoUPYBkavaMTLDRYjWOg5c+awh163bl3dhLqSQRkhKRij9OWXX962bdv58+dl4ouvJaoZBOQFodZQMv/sCBnCS1K20Au3nafdYqmCJY/MM0jdqLNtAltbcYJouAJO8RWldYL4ghXA9br33nvvv/9+nK5XjEiybjGMh0Y5e2syQHQjBTXl3BkkqK6hxEEyNY6sIR0L0UUwfjFhE5QSgpVF0J7DBPNq9+7drHfsh6WyoMvQq9ZWDwiukr86vML1ldv11gmur43iBgiRNrwLvowhdmZ79uxhhyEa8YqGz5DRyGKr6ZYZTdoqZ8BWEEEIlMpyiwZI9ty5c++++y7m2YYXITMSF2z4qNA/BA3SAZG1rqe+yCKAyM5kV7AhowqnTp1iZykaFd9JIRcsWbLkU5/6FAvmlClTJCOu2ecoxcOScZDFQr/yyiuX9c+WW18RoglaryzpKwV1HWBSfWGziJYNTfZtkg35ZZ7TQp0F49ZIK6B0G0tAI1inCCD62trahx9+eM2aNdOnT5e4ucDmKILROqASrwwQXYXU0XXZlVOugtqQax/jjg/J1ArZlLZ/tNlTxQ0KrHQjB2v0zp07r169KgcRoGCZ57EKoNGVoBYS3rzwFkE9ZaKc2jjol645V/RGDl69DlU6TYVKIED0EsbVEJlt+5kzZziOcJxCaQMI1qkD5yOU0JZNKigartqzHyQiSCJo0tQUlQbfa9euXbhwgWOcvU06CHTOppAiKKV6UaBMLymKxAKRJU2LpOYKEkbF1BrG6s2bN/fu3Xsj+FZX65U7KioqZs6c+dhjj61evbqvH/9IiyxQCLrG6s2y+vr67du3//rXv2Zb3K6f4abwUkeLdQ6oXqHAOsOe8UCKohkSkpZOyi229uvJKy7yyDyrilI7WciUs3ePQeCWRpG2GGijVFVVzZs374knnli0aBGy0eYGKZauEy9VSqgMi9MAABM/SURBVDtYRd8vakr3NIgmWOhNSvLSSLMMhdiHVxingGo4O/04/LBAs8Dt37+/oaFBymVK4hTSli1aSNEkihIlpaXqh2CrqnhVVaurfilNVXU1F64hL+RAWV1RWVFa1uuGYT8t4xQPUqnU9evXMc9yw5AoEjf/SV87hwFUw6YkgrnaqWagrdQbGWfPspVBFmW/xRCkYaVt5dNGUYL+7fOl+l1TUlIi91f6QkplyxYq5O3bt3ft2sW20t5TFXLa9VhojjT33HPP0qVLB/IoByWXl4Ey0wu///3vd+/ezRlaOkKaVwIMDmkim0ioxWJDp+8WFdl1xku+mGfqp02RbmKqrI2Q0qgvc1UvrVENEeoGEBm99RK0Zw/4osQ2b9iwYf369RMmTJDwQjT8EDGWWN4k5qXqhKAqkSgo5IVSVSrzS0UgdFB9o1GHM5WAOrrFU3LdeD0zxG0ZS0+phvCSXEBnqDCpx1SR7GlsbMSknTx5MsNNwmiRJIDcbwRWagbSnDlz5mvmzp3LdcGCBeJksAnIrper5FBS5/z6pKQvIKOxsnjpfldoX1PaU6dOvffee1gdZAmsg/TqR53AsLZwZigMxXNLazFeWUwQsz7oZ+HU43CkpmusfEkGIUgQOLrt27fvxIkTWmdAb6SM2GB0/cSJE6UTubpCv+hun0encwDFQpOaqmVvyEjaBLslsjgFCSB3fWSfIbEEQhopN5D1fffd9/nPf54Bn+2j9pSZbqEe3XoV03R1dbEnfvnll7ds2WK/V0eqKQHcilhlNkQTwQnIyqv34BnkK0jfJivOXJBmbgyFoTxYpQLrwkiFbcFC9XcLbKNEcb1EZtPK4vjII48wwmbPnp159+oyyAer+K+D2PITRWQR8MyyZVykLiJwnTx58je/+c21a9ciaP80ZP/cs2ALbOm3soNj1qxZdAflT9sXuX6wSj1P9cYbrBEdHR06OaWUKO5zzyDp92SqBcrMKOI8QeNjpKUKqhiR8FyjWF/WpmvXrh08eJDycJgQpQ7Si57c1Z/AqTyUsra2dsWKFX/5l385Y8YMOdaokDrMMDDoB6uiTRQqc5bpCD1NFCTC1mfTpk0MsKKiInr5xo0bP/jBD2hndmaEkcStkBmC0bBTpkzZuHEj9tU+Sy3YrMWZAULS46yTHH8xTgjyxooUO5qCpAzWywb79Kc//fjjj69evVr0IWJ5sCoKpcWy7t2793e/+x1bhND+IIpeLoMclEieqgDkzoIsT76xCLBDzTBuB/e1JBZT09zAvGOAYVkYEmkLPxRy+WCVKif/s20XW7FoDUManKIJ6V2sFwKTk+5fuHDhQw89hG3ud+EOQV0wFTduNPQ8WJVNney4d/NSonY6umwgXymzXK1QXV29bt26qVOnIog+ijxY5Q7uDNj0c4eqic6FMwTb8PXr16fNFFvFQYdid3T2/WAVf5WoO8Vc+3+wilnEEvm+BouiJpV4SCK9MYmKoEVVev27ewynRx99lCt2mq2GBavgaqwTQTSuLzLdR2kZZix88m5cFF20oCTaIbL8ldva7hNWOGNfLPpCHqyip1pbW1R5BphpqJxWRi9CNoRqKk5agwHGBGHzhCE8duwYC/3FixdtAFfIDMFYQ1iLn332WSwiy7Hpv0FBqTg9s++8cuVKZ0fwsJB+WfoqIU7RMAKZQcuXLxc9SIuJr/tglfJTUu90tN6o9J/SsrLaulp2nPbBqii0JANs2rRpGGaalNU+czdJYQyIjosN061btxjzNTU1LF9YaxInfHTc9vVgVSgYRDWQVjlEbJqTJk1iBWNs2Hkn+ljI2c1tCqk2awOYYbabEawsuBrqL04RuAria8FLBLxKS0uZUZ/97Gc/8YlPsPMVfTbYRFzkxNY/9mYIychLydpphP6RqoGqcFBl4xfganQo5bSCILIkFRVABdJIxBDGL25CWUfBV4aQtGSPUqPi6hdh5GqUvUFppAA07LROnTp15MgRc3aRLJRA6J7wJEpy6hXoJHc2fKwpDz744MqVK42HQ6gM1okgiNOCFcGEAIPTLW2CGDprXcOeiihZl1O9tLKrq4u1kiVMzt9CNKOcosvTq5xZEiqnqpLGuDOim1NFN3GCWFa2Adj9fPDBB+pLWzVuSBEkmAgW0QiylcS4YkiMalCQLJYVK/jJT36SrqcIFEINMHkFuCW0soVEjh49evjwYePW6CL3WiJwyghW00e/lEaQTE2YXqfcEKECiIVm8D/22GOVlZUZPiamCqOzMS+dkvHTsEFhDv7Hf/zHtm3b2JiKr5RQBQ0CoxGlgBwKqdUKV7akVQ4R0tSFUhhVUJ4Yicc8h+qPU4i9uCDJAoI4RXCRAAhMpPnz5z/33HPPPPMM20xGleizgWTdwEiOM/7+zgZbU0qi652+4uhFMFqNDSwBJIxorNfwINnZYojSxSoRdDVUQfUy4yh14VV8p15gnQJOCenS1NS0fft2TlGhwGlRGZhgIqoE2TLfe++9Mf7KGWly9uXQb9wa8mKgRcuflpaWlh07dpw/fx5ZRexNVBM7lFMw7mFB9YfTxW7uIkvFOXVxTt21a5d9nqonCqIeWhIyJEgwrhhUTszs8uU946FTUVHB+Fm4cGFdXa8PwWQJZcOeUamdO3faPYdgywwEE9AYKTISxGpKrLRIUsYRtM94/dOTX//61xcvXswsiEZHE80rCl3DnvKNN9546aWX3O9N0nmaNFX5dFKiRJarfdNahxpWpACCUWlCziESj3m2DRQt3Ei1HSOG3e4999zDFu+RRx5ZsWJFXV1d9s8DQKjkwelKjWb1Z3iItbNzOpJyRDCwlGD7o9+S2wBph19zczMr9eVLPQfNtPRk51yFCRMmcJBihZK3nGNhxowZ8+bNq62t7TEAqs6mFHLQyUBnR4d8LPnGjRuybHnsMKBN9Gfbz/e8d2Dvixh3L4joDiF6BFPKuXnq1KmhNcQGGyjFxcVjx45dtWrV1KlTBpZEkGMymbx69ermzZtv3rwpmgHTu/4DWqs56jBiN27cePfdd8+cOdNoA1RCvedsXzBWW5pbDh8+/N577+3Zs4eeMh79QWml8QdU7FiI5uiOFhFiIc6b2xlGKovL0F+9FsigIbgCWYvAcsm4Z2fKAvrQQw99/vOf//KXv8z+rrq6WoJJ3MGhtpmqEDqnSPFy8VKV1kgByFaEtBWJBrO4EUGcIgNO3KGsc/XSSO5WDmGVHGu6U7rVjbsnfE/JIxpx9gXLAafn/fv319dfDZet90utL6RGevreoM5KwQLN6OIgxaAiR5PukBk3bhzr3fz58ysrK8lFqXTu6q6jJlS80CuVTN2+fRsLffLkSbljD7Z4JKibJ7bShpACSxaqjforbWwv3S0m00CwJdFFU5w5c4aWsR8SVuCro+twKqSkAOLvwtF50aJF06ZNQzCqAMK7GQ0IOnrt2rUzZs5MFCX0vWWNW7t0LzIjRwKSwvXr17ds2cI1tCFTlQpKJalaAUSvQJZX39h0LKQgSlqDXcuGDRuoBTsY2ar2ZEEh1fANlz/64h9T8tixYxyguXKejmYqqFoFdQcRRIMUSjZHr76gGEaKj9jMs20101gaZJAAQ4deBJssGA8NToYIBxrOyl//+tf/5m/+5umnn2axM94a4hpp4Eh2OgWk+HsiA6opNbbK4rRySIhCRDeYUxeFcg5rhbKFYlFIQRXSNdVBRUAEHUrVyAoCXq5gf9a+ra3/n7V381M5aRdn3CVLljDSGG9uRkOHwxmjl5QlI8lRkV0mrIYYod27d9vvY3KLp1slztIKpoQanGQhwvCgOshZE2wFQzXlWEanI9hgEsDIum3EC3QMg2iwo/fff//s2bPRSERBfCWuUWWBDcz44dzJcMLwq88t6/tzA6K1tfX8+fN0en19vVsGKaQtm+slShXAKXY0GIhGhQywAawSgTWWQfvpT3960qRJoiQcF0lTFP1CSCw03fQ///M/7777rso4iGsFwWaN3i3bcKJLZ5oRkFFaIUZiPj0zyKqqqtLcQ46jGdOmQXYM7qVLl7KJ+/jHP/6pT33qsccee/DBB9esWTNr1qwxY8aYcEOA6jA/5XP/EHMPZCRaZRkQVmbHWlFRwTwXTVooOeW3e9vQ1RDNKReQi9N8NKxt1ShUiqr1LiRyPwVlEJaWlsqnKNPCEVPbZg5S5ojZJ5GsaENKtWLFimXLlpGLNGmMYJg5lM+dO1d/Yqg3/dTbBGhoaGD/MZw3t+kg2sQOsLyC0SUDDOsVeqrQDkNZUjMsrLW1tRydFy5cSO8YVQB1l/Ep14FCi7F8LViwYOXKlaYBs0jGDZLUX5N57do1+566hfHJ9DGOtOiEbMWpQmih05XrVaCQU2CNxUJv2rRp/fr16iPfQXryp3/UEVvBofnGjRtYaHnwhy2mLZsdYLYAbrFFGCYiudFodCKNlmEIDZrYDL6k097efvPmze9///u7du3q6uqStsMrq3HXH3KGIE3aQrqKppkyZYp6UmHWLKYQ29vJkycPvcMosJvIqVOnfvOb3zBoLl26hJfy7RlUucWe3mxLWoEr1Wf3/Z3vfIe1g+GrwqWD/TWF//nPf3758mWJKLiy2ksbMbek9IEYgdw5g27cuPGzn/1s2pWdZt+8efMvf/4LRhSBQX09S6QR3JYhHfjqV7/KFi2NhdMcOXKE7fkrr7xyq7FR3TnPSOjYypJXU1PzNf1gaLy/wW4rxapET7333ntHjx4VK2uqmUUH0baYkLVr137729+WB+1I022lHJFmgHUPy/RQ+TiDOMBWdvHixTLA/uEf/uGPf/wjOzPbGqrBdZMqTXBslYimCtrJcJJR+tGPfnTs2LGitInoUEOFRtu9e/cLL7wgu8YMt08FGZOq/BoWgWeffZYSUk7tb3jxxRd/9atfkabdq0kUEUQDohFhwoQJ69ate/LJJ0nK6rOkq6tr27Ztb731FpNL7k5TEZtjZmyNuBJ++fLlTLE5c+YwxSQF2ocJu2PHjkbmrEZFcAqvguESR45xVzAsEefAv/7rv2a1kTc+sqlv9sRjnlXr6FEL9BNz9dixYyFjEAs0B3aIYcSGBSZOnIiTRZOm4cDENfM5cnCwP6Uu8rFYd083bEjbhgSu7Os5ad19992MY2YpXmkHB2Xm6MCKz7mqtbXVlt+mNvxIORnZTMVp06a5SoGCyQdT33//fZYYis30Y77jZYsdqixKjgvsV+666y42ajSI8egNSdGbH3zwAScq95OiaXHzQqirq+OgM2/evIF+zDAbJCPgDMEeYv/+/RyJmE22DNnAOYYmZbsmE4GIoVaKBZusCDLA6KkLFy5k82x97NjCiBOk0diprFixYurUqcePHz948OChQ4eMtwPjym4lJAWJi4BtZmYtXbqUTsc24xRfFXQISKMZhz41YnVOnz594MCB0C+PZUAKydKHYdiwYQPnEwa/m/K5c+cOHz68b98+esfWSHxFDkFSnG04AdNc8iN+biHT4oZBbm5uZgDQ1CdOnJBhYOdslpAa45b59bGPfYz13E4x2ofqsAJfu3aN5hKlWxfktJXKKWRKi3EsZE+DYcIpxeBqQgyZeGplE5GSsb40NDTIx/3jbTU6jGHEyQBLDAyj2FfJKGw/WSWxbdTIPCY77EMBor3OBoXTEkbaNkJfI4MxTfk5PdhPrtqQw18XmzWGGTvX146KglFaFqympiY7JzNDUrQGbZLhXgJwRpFkWbmMKh1pG5wysw4yG40qPqQjJNObN2+yNWH34B59RMgMG1Y2ryxtYktyh1taoINoUvYTPR+NHkb6GszTp0+nNZgd9DgrEtsy0dtg0S62EIY2pK9JgVEqygzhsyfUdMCqIrtGWTP7ReKSjhxXGJOMTPFCKb50BN3BrLefE7TY6ruQFOsqLcYCS8WjhcwG2pkqsPEldxs3bXZpIQrFYCfEbsPNmiqQMnXB6rMUowklLs7sMxo6kiO7NxYcQLa5uyUfIrFtOkjHbbIYixjCJp7TXPKKbGqaZWvkT6PlulIZ4sbVCHGlAzapWNKMsWB9QRZcbS7DkGMGormHNKHSDpTM0QdR934LPBT6TSoUoK/w6LlGy8k1FJ1r5hyzoa9i5DlusWOvQm7vCeSoxaXMWaZsy5CjwniGSPb9MqB+t8Q7AOJNLdfkqJD5U3dKwpXCZFOkvsLYRMTpksEr38imBSBtsAxxXa/MWeDLNZsyxEXm8uSU4ck6t+bZ4/F4PB7PIMi7ZyE8Ho/H4/F48+zxeDweT97hzbPH4/F4PHmHN88ej8fj8eQd3jx7PB6Px5N3ePPs8Xg8Hk/e4c2zx+PxeDx5hzfPHo/H4/HkHd48ezwej8eTd3jz7PF4PB5P3uHNs8fj8Xg8eYc3zx6Px+Px5B3ePHs8Ho/Hk3d48+zxeDweT97hzbPH4/F4PHmHN88ej8fj8eQd3jx7PB6Px5N3ePPs8Xg8Hk/e4c2zx+PxeDx5hzfPHo/H4/HkHd48ezwej8eTd3jz7PF4PB5P3uHNs8fj8Xg8eYc3zx6Px+Px5B3ePHs8Ho/Hk3d48+zxeDweT97hzbPH4/F4PHlGQcH/D1/SRc/FGSy3AAAAAElFTkSuQmCC&quot; class=&quot;WACImage SCXW127128787 BCX0&quot;&gt;&lt;span style=&quot;margin: 0px; padding: 0px; user-select: text; -webkit-user-drag: none; -webkit-tap-highlight-color: transparent; display: block; position: absolute; transform: rotate(0deg); width: 123px; height: 101px; left: -1px; top: -1px;&quot; class=&quot;WACImageBorder SCXW127128787 BCX0&quot;&gt;&lt;/span&gt;&lt;/span&gt;&lt;span style=&quot;margin: 0px; padding: 0px; user-select: text; -webkit-user-drag: none; -webkit-tap-highlight-color: transparent; color: rgb(0, 0, 0); font-style: normal; font-variant-caps: normal; font-weight: 400; letter-spacing: normal; orphans: 2; text-align: left; text-indent: 0px; text-transform: none; widows: 2; word-spacing: 0px; -webkit-text-stroke-width: 0px; background-color: rgb(255, 255, 255); text-decoration-thickness: initial; text-decoration-style: initial; text-decoration-color: initial; font-size: 11pt; line-height: 19.425px; font-family: Calibri, Calibri_EmbeddedFont, Calibri_MSFontService, sans-serif; font-variant-ligatures: none !important;&quot; class=&quot;TextRun EmptyTextRun SCXW127128787 BCX0&quot; lang=&quot;EN-US&quot; data-contrast=&quot;auto&quot;&gt;&lt;br class=&quot;Apple-interchange-newline&quot;&gt;&#xa;&#xa;&lt;/span&gt;" style="text;whiteSpace=wrap;html=1;fontSize=17;fontColor=#000000;" parent="1" vertex="1">
          <mxGeometry x="710" y="992" width="160" height="170" as="geometry" />
        </mxCell>
        <mxCell id="R17QDRCtGJXxGDcpWK7t-27" value="" style="verticalLabelPosition=bottom;html=1;verticalAlign=top;align=center;strokeColor=none;fillColor=#00BEF2;shape=mxgraph.azure.sql_database;glass=1;fontSize=17;fontColor=#000000;" parent="1" vertex="1">
          <mxGeometry x="1020" y="971.5" width="37.5" height="50" as="geometry" />
        </mxCell>
        <mxCell id="R17QDRCtGJXxGDcpWK7t-28" value="&lt;div style=&quot;text-align: left;&quot;&gt;&lt;font color=&quot;#ffffff&quot;&gt;&lt;span style=&quot;font-size: 17px;&quot;&gt;&lt;b&gt;%sql in Pyspark to Create / Alter a table&lt;/b&gt;&lt;/span&gt;&lt;/font&gt;&lt;/div&gt;" style="rounded=1;whiteSpace=wrap;html=1;fillColor=#660066;gradientColor=#7ea6e0;strokeColor=#6c8ebf;glass=1;" parent="1" vertex="1">
          <mxGeometry x="878.22" y="1008.38" width="153" height="86.5" as="geometry" />
        </mxCell>
        <mxCell id="R17QDRCtGJXxGDcpWK7t-29" value="" style="aspect=fixed;perimeter=ellipsePerimeter;html=1;align=center;shadow=0;dashed=0;spacingTop=3;image;image=img/lib/active_directory/data_jack.svg;glass=1;fontSize=17;fontColor=#000000;fillColor=#66FF66;" parent="1" vertex="1">
          <mxGeometry x="780" y="910" width="54.11" height="98.38" as="geometry" />
        </mxCell>
        <mxCell id="R17QDRCtGJXxGDcpWK7t-30" value="&lt;div style=&quot;text-align: left;&quot;&gt;&lt;font color=&quot;#ffffff&quot;&gt;&lt;span style=&quot;font-size: 17px;&quot;&gt;&lt;b&gt;Send Data to Data Lake&lt;/b&gt;&lt;/span&gt;&lt;/font&gt;&lt;/div&gt;" style="rounded=1;whiteSpace=wrap;html=1;fillColor=#660066;gradientColor=#7ea6e0;strokeColor=#6c8ebf;glass=1;" parent="1" vertex="1">
          <mxGeometry x="870" y="910" width="130" height="61.5" as="geometry" />
        </mxCell>
        <mxCell id="SkUb1cnuTnNj_XQBZiCX-5" value="&lt;font color=&quot;#ffffff&quot;&gt;&lt;span style=&quot;font-size: 17px;&quot;&gt;&lt;b&gt;Python script runs everthing from here sequentially until the data is fed back to a table in Data Bricks.&lt;br&gt;&lt;br&gt;Reason for this is Radar is needed to score the data &amp;amp; at the moment this has to be done on local hi spec machines&lt;br&gt;&lt;/b&gt;&lt;/span&gt;&lt;/font&gt;" style="rounded=1;whiteSpace=wrap;html=1;fillColor=#33FF33;gradientColor=#33001A;strokeColor=#6c8ebf;glass=1;" parent="1" vertex="1">
          <mxGeometry x="632.05" y="408.5" width="350" height="233" as="geometry" />
        </mxCell>
        <mxCell id="SkUb1cnuTnNj_XQBZiCX-12" value="" style="aspect=fixed;html=1;points=[];align=center;image;fontSize=12;image=img/lib/azure2/analytics/Azure_Databricks.svg;fontStyle=1" parent="1" vertex="1">
          <mxGeometry x="-790.6" y="202.5" width="118.21" height="128" as="geometry" />
        </mxCell>
        <mxCell id="SkUb1cnuTnNj_XQBZiCX-37" value="" style="edgeStyle=orthogonalEdgeStyle;rounded=0;orthogonalLoop=1;jettySize=auto;html=1;endArrow=halfCircle;endFill=0;" parent="1" source="SkUb1cnuTnNj_XQBZiCX-14" target="SkUb1cnuTnNj_XQBZiCX-12" edge="1">
          <mxGeometry relative="1" as="geometry" />
        </mxCell>
        <mxCell id="SkUb1cnuTnNj_XQBZiCX-14" value="" style="shape=image;verticalLabelPosition=bottom;labelBackgroundColor=default;verticalAlign=top;aspect=fixed;imageAspect=0;image=https://upload.wikimedia.org/wikipedia/commons/thumb/c/c3/Python-logo-notext.svg/1869px-Python-logo-notext.svg.png;" parent="1" vertex="1">
          <mxGeometry x="-790.6000000000001" y="360" width="137.02" height="150" as="geometry" />
        </mxCell>
        <mxCell id="SkUb1cnuTnNj_XQBZiCX-32" style="edgeStyle=orthogonalEdgeStyle;rounded=0;orthogonalLoop=1;jettySize=auto;html=1;entryX=0.342;entryY=0.833;entryDx=0;entryDy=0;entryPerimeter=0;" parent="1" source="SkUb1cnuTnNj_XQBZiCX-15" target="SkUb1cnuTnNj_XQBZiCX-16" edge="1">
          <mxGeometry relative="1" as="geometry" />
        </mxCell>
        <mxCell id="SkUb1cnuTnNj_XQBZiCX-35" value="" style="edgeStyle=orthogonalEdgeStyle;rounded=0;orthogonalLoop=1;jettySize=auto;html=1;" parent="1" source="SkUb1cnuTnNj_XQBZiCX-15" target="SkUb1cnuTnNj_XQBZiCX-25" edge="1">
          <mxGeometry relative="1" as="geometry" />
        </mxCell>
        <mxCell id="SkUb1cnuTnNj_XQBZiCX-15" value="" style="shape=image;verticalLabelPosition=bottom;labelBackgroundColor=default;verticalAlign=top;aspect=fixed;imageAspect=0;image=data:image/png,iVBORw0KGgoAAAANSUhEUgAAAOEAAADhCAMAAAAJbSJIAAAAulBMVEX///9/NbIyf+99MbF6Ka97LLB9MLF1Gq13Ia58LbB2Ha14JK50FqzG2Pp6KrAUde6BLq78+v3t5fTq4PLh0+zI2vrU4vvk2O718PkZdu7WxOWzj9CidMalecjTv+O4l9OdbMMoe++RVryJR7iuh826mtQshPPy7PeLS7nczOn59fvBpdiDrfR9qPSUXL6FP7XKst6aZsGrgsvHr9xzWchclfGTt/VonPKCcdGpruiOh9qZld7u9P5CiPD1xKwGAAAR+klEQVR4nN1daYPiNhLF40uWHRIDCQzmGo5pjl1o6Gz2Sv7/31pDX4CfVCUhwybvYx/Gj5LqVqnRqB3rdqf/vCjmg/1055XY7WbT/WA+3oxW7XVe/+fXiafV5rDdiVikaRAmke99wI+SMEiFlN5yuOm3Hv2iNuj1i21JLQgjTwvfDwMRy20x+jPR7I3mMyECgtsFojCV3uTlT8GyM55mIvRpUlVxJmk2O/TXj2agQ746JDKwYffBMhRi/9x7NBEFOoemtBLeFaI0noweTaaK1tiX4e3s3pCIdN5+NKUL9Pdx4IzeK8J4+fxoWu9YbyJhoje58FM5fno0uRJPRZDWQO8VgTg82oC0BlmzNn5HhNngkRvyaehQu6iQxINHyXFdxPXzO3HMDg/Zj5vUtfpUIxD393T6Xn36BSDr3Jnf0z524LzwES7vTHAjknvyKwneN1DuzqwWqB+FYfCKZpiYLAEtwZ+//ON3xwTHhgs0apaxvEi95f5QjBclxkVxmEy900+bDKpagj/8+O3rb075tQwEWAZ8MvP2xcuqhVRhr7V6LiazWARamgTBL1++/c0lwZeY64GW7JLJZkWHeuvOZhDJVLWzwxlB0CnDfCJ5wgtkOngx8bZaz8MmjJ1JCTpl2PY4PkxJb7mwMV/dxVKmVyQZBB0yHDFUjN+Mdwt7N7K12cXNs0/hEHTHsMhofiIsbo0EusVntJlwCDpjOBEUv6SMyl1Y5nw0zU56J5lpvNEPgo4Y9maUmx3Gk66LTzqhOyjDFtYSdcWw7RNuWpg5DsZb83iq82Q+CX758v32j+tIvY4J4zsHcBcES4p/f8Nvlg5cP9MSjOLhnQPUHy4Jlgv1DV//afW8Z70SlVN3+4+Hn68JfuIPm+fpCQbJ3dPTFQl+4sefLZ6nJehn87uXOHUEf7B43khHMF3eP9PnmuBKQ9DPxs7fn4Rrgh0NwWD2gFSta4Jtja8dD52/Pg3XBHuRkqAvH1EYck2wMVPG86H3iGKCc4ITpbOdbh/RBuOc4FyZcornrl+eA+cEn2MVwWzj+uU5cE6wrSLoxw/pInBOMPdUavTuNZITnBNsTBRZNT+9dyBxgnuCL4q8qJ8+pOTsnqByE/5VCDZmeBP62V9kiTYKhSWMbZVM3uq/FMP90ktllonE200n8xduV2kNBFUBRWZlJnqjYhlIkQZnHbTH/tlUyOZ23CcrNzUQbCgMRWxh6DvjZSaaSv89CkS2LLQrow6CY7xGRWH6oNUhZbRi+oEMDqt7EmxhQxHuDR9TePxuolB6C5iQrINgYwpDJn9nFE109plhs02QTaqr1XVW7YQRFqE0ydmvprFFr0YST68Way0SzPGrmXjbnSm7En6FKL5ILtciQYWaCfg5md7Qlt8rx8nHfrSUYK5vHejBNerP2AQ3tzYrJvGCJqiR4HqWCR3FA3y/jOuNtpdkGZVGuusQBHUSnCVecNC8IfRm0gWT4CJz0gztZ4U1weVRj2RqtbhHeiZids09TR0I8BXyX98sJXhag8lE9Qc4aGKu0U7grJvvp1+V/AgJvm2yWPXKE/SOAc9b2+irqGYEv1spmTcJemohttAu9D2WM3PgNUvdTJAjQU+5E4dIkcZ9DsGtu4ZhawmeEfRCqE6fkBiiLYNfPnXX8e1CgiWgTSzQayr3rPrhSkRJMwiCNAiaidKqOJFgiQBYuBwpUiztK0xpgkkgxG46LBabEotiOPWEQLrXWoKz63eQ1T96QVspZrSRbMluKSGrjaa91WYixNV7OVqiR4hqrDAF2r7JKMEM9Uomkd5cGcGv5p48k6QtQfQlR9PrP4LWPqNFONY6MkE2UNJ7Izn4iJWtCTbQu1c0yBisNcYu1LZqBMGCcdRlPX49fGOrZBpYSVbWHypo0/5aW2PoQzlmZj7W4yy8QYLY0PnNy79ZgcWmdmA/oKxQeX48NDiq9DSQGoLfyIgeOSvy0lcZANVNp7iHSjUa7AwLAP9WRxNf/kP+Nwr7ksH5X+RAhHRkP1KXiU3r4D9/VfL7/isj2Y4yhOJ8k/QBw5TqJ+mp7IQPjJEemoD3+68/+SmZ+x8BAhdvMQSLNKD2kaqKGnqm7cKadsqSYPnECfWEHGjK5Cx/ltuYir5ijQa67mUIvQSPz6QjnAIcRw4+X2QFtG1MqQqFHk0N0/+0BL1jyp16CNI14tPbAF+A7xGP3OBdmE5MCdISPD6WLHyBqm441/0WhR/nWGNbHxhLkEWwtN/U0t9Ud9qnNXgCEpaEPwOjSS8xPs3KI1h+dVQvK6qZffjVz9UFRxnDHnS4/cj0yDWXYPmVU48GC/HD4AFbQX1lyFHnZQQuwFAyH29E5aXBK33Yi131XaXeY4MJAU+8GBLkS/C4Poid2EWa4fVXyDNP9U+DCYHEVMsYSPD4/VE+FlhW8nUjAo8nIcppsOGG9q0uoZHglypB2k8G0cOb4wbUIuGTdtEiNV2jGgl+/S9MGhE+CFhYb+oE+OVEURuFY76hodAQLCN6tEgoPxLYi7d0b1UgfqJ/FjIVhg1TmnDpGNEjP5LUNcD7jk/UqwyJ6B7FWoZqRifBU8piiwI+wv8GlaW4hd830HuBKNYiHfVLgnoJlliBrU4tU+C4nZzvRfXnUp8CBCMQzHYhKcEGjtqb2qeiZNNJVkDJZlq93wF7xCiq5xCEUbvULxTgX4dHs4eS3doHAaH7kWuCUJ0Ru6dR/Q//mPquRrKRXmuA9dM0aOtjEkRmmnixxh6sbBjo6QvbObDGBnqGSxC6FcRGnFfttFijtHWq9U6Ah2uwSNkEYUBABC/AqynNBVBAersDHhOy06O0mfgEkEiqV2hAO5XmYlR9YX18D/qmKFP8SdCklQu8L9EYgtbjCJpJrbEA3ob+H84IGkiw0ehVlT+hakAcWKrfAqwF7WOq5pPO9b0RNGzGq3yQR9gxYGGCRWMOXDDdQ9bVb/ayBmJFEJbPgC9CJOKr/xAWjUll0ek9MLDWKUNsSRD6k/qqdDXoSg6NraHBR7qX47KZLtESSAnqDW9VR5Rkqk6bPoVh/rG2BJEDTGjt6rou3bZl5Sl664asKt3Q8LtNx+9T1ash0ivAkk2B56B3MsHmyOhi0y9KO6FpQgAFSr27BZyEUqlUHkJkg9H2JwmqGWp7tqsSIZQaKDHtXDAkkqs6hto2krzqWxCZbxCPQIbapwCGhMevYUj0yVQDO8JtQ8UGFzIUtgy/6gmC49ZEPQUyrGoa/fcEGMaWDKmTL+arlMlQr0uBp26pSwkJYl1qoWlmlZ/p7SEoNsZ07wVgSJ9dAqECYQ+BtZgZ+zQgvcrwaaoMGYezQDaBcBCrFr/0afaGfmmnypCIvCFDzukzFLLrawfVVJS/bwxMY4uqK0WWZ6sMWcfrwJYnSkbLqrgGxvFhbhUf/nLpl5JK5gRQPSBqlFUqpVIZg7SL4VM4Mf4fP379BPOA5K4iEd/X/0d1WYdjuBS0XxRIu3LyNL+cgTe/EeVp9Mc/wPHJ0pFF8Z52saO0KzfXZgSgtYncOqiRlloQxeza0hMwiPx8qQlQvlRvDjGXO+e8DVDdhlT1AETnso3qFqG+bgF8P7P6KA+obkHEafOq0ybXjdy/c+2JC4vaE8gbHi1f1Up6eu2P6oeEFreBu/rh/WvALFjUgIF5OfnYKKTV1/HBRjTtpqGB6vjENlTV8YFBtOnFIM43mQL1YlC9aKjIdLTUwFwQjiZaQKzDpgaABygs+2ka1dVLKA50/sSxEGFPVGLeE/Wa6ATNGDZ9bfzhGQy47Wsz9446LnoTddjAVUK4FcCdfEuqIUeT2NPAoeJXgmk8IYJkjKbuLwXSpZoT4WGLxJmygfM5iJJFowFOzbyXG8HpF2JFgED/+I05GmwK16gfEnoGOSLvYgdalkq94OMWbqYOwl1+W68+CDooH0Vx3sJ3cMWdYgK1pNLOuvMWaOQHNdzL1ZmZCnI8gZo8M4OOJH+eRQeqkTz3hE+pN2/WNlt8qjGgRIgink/tCywiqZsVZ9fMj3ZdQjFimz67BqR0FrWik9xk2A5t4q0U9/h7I88KwozA2cEf1FBJZpeUZ0jtx5krx8DYnSE9r9wCd4DOLg1U54B3ltcGtT3FqKmQTKrnoPf8Itgij0IjrK8vSXtHZBfxj1Q3EvnkoWtM4Fzw6ERodTpI5bHuzuOXOCifxpjaCJJNXnqxW9BMBdpD0c1UMJw53Nmpn0UXfpCeuYoe0DEYKsDQTW43nIvRG6qHoXFGpyIBXSebkAEnGgEb1GyTBVOp5mPd5dCMiXjgYFO5ea/+CM2EDOjdpL9KKOLMp8kXkW4OU8a4DAW+/HWSGh4p1OdNTyh0M4b8IBsSm7kzzLTTlAXjPiJ0Fh20TyBtxJkoONDPiQrjnXqcdYccpxxM6DdA5QqU+wO5DM5OpGd9+U0pJy8dNOtLgle7JMhx5EGTJrbmcF4bZ7wuZ15bKqR3Pq9th+e1XX88a4gIzPxd65kjbpi5xxoq6PuMmXsX4E1JgVPKYCwC5yayjobm5FA6KzBdeHTa1EuhEkflCGYqe+9s/OwnxITzydh1VARGcIowHZmdMFc6lbZgXrmUQ1OjGqWH05S8C/I29G3BJvC5Vy5B7aFUkNDq6yYrn6MTOpsjfNS9TMcdT69Wp9HwLGgyinpFb+tsM6ZTboEA+Sm6gBl/I+xU9uaWgfOfMLg5Eg/J1w20RFEIe52WPr6Lkd7pjJ0570KJaAMGFIbwZ5aXeLkeumqKj7n6DOQ43Se0Ac0c2u6U3y7j7m4EGjjFQKRW1ziUyQxa87q33G9hkvvAt/uRBvwZ7yRhci/1auvmjhI9FBeL0anVJRSAwVY8wtE9MzoockQMR1rx1bBC0TMY3hXkj00vL1dUcDgX4mBlw0onXMLFfU/qt1QMNWRpYsUeii16LVh3dtk04mzwSot4LS+o4eqIzKonSHHvWpN77xqEKsXHHYl3UGgJznlfiMu780JvNp0U7LvzAFS3hQuut6BMZRvda1UfVJf7GSh83A1xTLWYarw60FXVqDiZwXeo7niMosdThPMRjzC7xneqUKhR9OiF2lWFLwYXix3RU7kkD7pN9gMqJeNFzPEj9JN84oBcvVBXgsy14Ea13H1ONagmLJQETaKfdwyUvnNs7MA5gvrOJXOf8giVtmEnax0jnyrLXKZxwRvWoIPj/Ymz+1sNZS/KDe10mhp2lDo+fUDiOVZX+j3rlkilQn29wu+OyIeasoG4wUY/a3L16fJ+K7Wr7kUp1ehN5utFQzGyiRitMNZdzHfrQQ9FqPkKub2HD9ed6VoFbAzhJRY6ihG3RGSPfK69WdHuOvRLaCl66a5epdrXNts4kOARalfpCD8zSVMbojPVV15dHbYiqp+JLJydlrlAa0Jkz2/ToucYEZeMBnLs4BjCFZ4OmT5z7jTKWakSBx8c47FbObbmGZFQToyvJNKiHVGViEAc3MXGqwnFzwuWjpfNmm4LCrOtE822ftlJsrIjbjz1gDCg67uR8Ma3CrJzSFX942eoxyvWW403BNlyY78/2uOdrpn2Hb50fjj+Fasmpyzop3K5sJBkvip2jErO8Vv0asuG9dRR9iXJIPbmIxNHoLvZS00J5wLxwPrICgNjdutTKKQ3fOnQCq/VH2+bMuBWxiNZcyJsFRk0WySpjHeT8fOqhYj2Wv2X+T6JBZudd4xKaw9n8oE6nYDgJ0EqpEh32+G8WJQYF/P5cLv0hCx/Gpo1NUSS34tyA0aBTTupHyVhcEIzDBN8TpSCqF+Ar8gPZmJ0hNDVSWoOurMaWmb18ONJPRGMCpu0ls5nJUTNkTbA+mDTFmSJgD4lWwfa+8xJtyWJMC7qtPE6dKzau0z5ycEjC8/dPRnI3YZmdnh01bk9FLXpHD9N549vHGg0nsZS1LEhI5Fu3Kd/LPE85YR1JijDk21NQaAluodUuNM6oQzHj95+AP1J7IKknwibZsX7YD0apCK8xWf1AxkOR4+yfizkq8MuS9X1cR27MM1m40f2srDReh54MjWSZRQIuTsYJT4ejdZovsykCJLq8NBLwZURsojltvhTsXtH3h5tBkvvGMsH4eW50VM8XMb+0l8ONjd0mv5fIF+3V8+bYj6ZznZv1xTsltvJvNiMVt1e/UrlfysHbtIsZSvgAAAAAElFTkSuQmCC;" parent="1" vertex="1">
          <mxGeometry x="-789.8900000000001" y="641.25" width="105" height="105" as="geometry" />
        </mxCell>
        <mxCell id="SkUb1cnuTnNj_XQBZiCX-31" style="edgeStyle=orthogonalEdgeStyle;rounded=0;orthogonalLoop=1;jettySize=auto;html=1;entryX=0;entryY=0.5;entryDx=0;entryDy=0;endArrow=halfCircle;endFill=0;" parent="1" source="SkUb1cnuTnNj_XQBZiCX-16" target="SkUb1cnuTnNj_XQBZiCX-14" edge="1">
          <mxGeometry relative="1" as="geometry" />
        </mxCell>
        <mxCell id="SkUb1cnuTnNj_XQBZiCX-33" style="edgeStyle=orthogonalEdgeStyle;rounded=0;orthogonalLoop=1;jettySize=auto;html=1;" parent="1" source="SkUb1cnuTnNj_XQBZiCX-16" target="SkUb1cnuTnNj_XQBZiCX-15" edge="1">
          <mxGeometry relative="1" as="geometry" />
        </mxCell>
        <mxCell id="SkUb1cnuTnNj_XQBZiCX-16" value="CMD/CLI" style="sketch=0;outlineConnect=0;fontColor=#232F3E;gradientColor=none;strokeColor=#ffffff;fillColor=#232F3E;dashed=0;verticalLabelPosition=middle;verticalAlign=bottom;align=center;html=1;whiteSpace=wrap;fontSize=10;fontStyle=1;spacing=3;shape=mxgraph.aws4.productIcon;prIcon=mxgraph.aws4.command_line_interface;" parent="1" vertex="1">
          <mxGeometry x="-777.3899999999999" y="510" width="80" height="120" as="geometry" />
        </mxCell>
        <mxCell id="SkUb1cnuTnNj_XQBZiCX-17" value="&lt;font color=&quot;#33001a&quot; size=&quot;1&quot;&gt;&lt;b style=&quot;font-size: 17px;&quot;&gt;DataBricks&lt;/b&gt;&lt;/font&gt;" style="rounded=1;whiteSpace=wrap;html=1;fillColor=#33FF33;gradientColor=#FFFF00;strokeColor=#6c8ebf;glass=1;" parent="1" vertex="1">
          <mxGeometry x="-640" y="238" width="173.58" height="67.5" as="geometry" />
        </mxCell>
        <mxCell id="SkUb1cnuTnNj_XQBZiCX-19" value="&lt;b style=&quot;border-color: var(--border-color); font-size: 17px;&quot;&gt;&lt;font color=&quot;#ffffff&quot;&gt;Data Team set up live data to be hosted every morning which sits ...&lt;/font&gt;&lt;/b&gt;" style="rounded=1;whiteSpace=wrap;html=1;fillColor=#660066;gradientColor=#7ea6e0;strokeColor=#6c8ebf;glass=1;" parent="1" vertex="1">
          <mxGeometry x="-395" y="90" width="230" height="90" as="geometry" />
        </mxCell>
        <mxCell id="SkUb1cnuTnNj_XQBZiCX-22" value="&lt;font color=&quot;#33001a&quot; size=&quot;1&quot;&gt;&lt;b style=&quot;font-size: 17px;&quot;&gt;Python&lt;/b&gt;&lt;/font&gt;" style="rounded=1;whiteSpace=wrap;html=1;fillColor=#33FF33;gradientColor=#FFFF00;strokeColor=#6c8ebf;glass=1;" parent="1" vertex="1">
          <mxGeometry x="-630" y="380" width="173.58" height="67.5" as="geometry" />
        </mxCell>
        <mxCell id="SkUb1cnuTnNj_XQBZiCX-23" value="&lt;font color=&quot;#33001a&quot; size=&quot;1&quot;&gt;&lt;b style=&quot;font-size: 17px;&quot;&gt;CLI &amp;amp; Command Line&lt;/b&gt;&lt;/font&gt;" style="rounded=1;whiteSpace=wrap;html=1;fillColor=#33FF33;gradientColor=#FFFF00;strokeColor=#6c8ebf;glass=1;" parent="1" vertex="1">
          <mxGeometry x="-630" y="538.75" width="173.58" height="67.5" as="geometry" />
        </mxCell>
        <mxCell id="SkUb1cnuTnNj_XQBZiCX-24" value="&lt;font color=&quot;#33001a&quot; size=&quot;1&quot;&gt;&lt;b style=&quot;font-size: 17px;&quot;&gt;Radar&lt;/b&gt;&lt;/font&gt;" style="rounded=1;whiteSpace=wrap;html=1;fillColor=#33FF33;gradientColor=#FFFF00;strokeColor=#6c8ebf;glass=1;" parent="1" vertex="1">
          <mxGeometry x="-630" y="660" width="173.58" height="67.5" as="geometry" />
        </mxCell>
        <mxCell id="SkUb1cnuTnNj_XQBZiCX-36" value="" style="edgeStyle=orthogonalEdgeStyle;rounded=0;orthogonalLoop=1;jettySize=auto;html=1;" parent="1" source="SkUb1cnuTnNj_XQBZiCX-25" target="SkUb1cnuTnNj_XQBZiCX-26" edge="1">
          <mxGeometry relative="1" as="geometry" />
        </mxCell>
        <mxCell id="SkUb1cnuTnNj_XQBZiCX-25" value="CLI" style="sketch=0;outlineConnect=0;fontColor=#232F3E;gradientColor=none;strokeColor=#ffffff;fillColor=#232F3E;dashed=0;verticalLabelPosition=middle;verticalAlign=bottom;align=center;html=1;whiteSpace=wrap;fontSize=10;fontStyle=1;spacing=3;shape=mxgraph.aws4.productIcon;prIcon=mxgraph.aws4.command_line_interface;" parent="1" vertex="1">
          <mxGeometry x="-777.3900000000001" y="767" width="80" height="120" as="geometry" />
        </mxCell>
        <mxCell id="SkUb1cnuTnNj_XQBZiCX-26" value="" style="aspect=fixed;html=1;points=[];align=center;image;fontSize=12;image=img/lib/azure2/analytics/Azure_Databricks.svg;" parent="1" vertex="1">
          <mxGeometry x="-789.8900000000001" y="910" width="118.21" height="128" as="geometry" />
        </mxCell>
        <mxCell id="SkUb1cnuTnNj_XQBZiCX-27" value="&lt;font color=&quot;#33001a&quot; size=&quot;1&quot;&gt;&lt;b style=&quot;font-size: 17px;&quot;&gt;CLI&lt;/b&gt;&lt;/font&gt;" style="rounded=1;whiteSpace=wrap;html=1;fillColor=#33FF33;gradientColor=#FFFF00;strokeColor=#6c8ebf;glass=1;" parent="1" vertex="1">
          <mxGeometry x="-630" y="770" width="173.58" height="67.5" as="geometry" />
        </mxCell>
        <mxCell id="SkUb1cnuTnNj_XQBZiCX-28" value="&lt;font color=&quot;#33001a&quot; size=&quot;1&quot;&gt;&lt;b style=&quot;font-size: 17px;&quot;&gt;Databricks&lt;/b&gt;&lt;/font&gt;" style="rounded=1;whiteSpace=wrap;html=1;fillColor=#33FF33;gradientColor=#FFFF00;strokeColor=#6c8ebf;glass=1;" parent="1" vertex="1">
          <mxGeometry x="-630" y="937.69" width="173.58" height="67.5" as="geometry" />
        </mxCell>
        <mxCell id="SkUb1cnuTnNj_XQBZiCX-38" value="&lt;font color=&quot;#ffffff&quot; size=&quot;1&quot;&gt;&lt;b style=&quot;font-size: 17px;&quot;&gt;Python is a single script to run everything from pickup the data from Data Bricks to sending uploading it&lt;/b&gt;&lt;/font&gt;" style="rounded=1;whiteSpace=wrap;html=1;fillColor=#CC0066;gradientColor=#000099;strokeColor=#6c8ebf;glass=1;" parent="1" vertex="1">
          <mxGeometry x="-1090" y="395" width="230" height="115" as="geometry" />
        </mxCell>
        <mxCell id="SkUb1cnuTnNj_XQBZiCX-39" value="&lt;font color=&quot;#ffffff&quot; size=&quot;1&quot;&gt;&lt;b style=&quot;font-size: 17px;&quot;&gt;Majority of the work in DataBricks is done in PySpark&lt;/b&gt;&lt;/font&gt;" style="rounded=1;whiteSpace=wrap;html=1;fillColor=#CC0066;gradientColor=#000099;strokeColor=#6c8ebf;glass=1;" parent="1" vertex="1">
          <mxGeometry x="-1100" y="232.5" width="230" height="115" as="geometry" />
        </mxCell>
      </root>
    </mxGraphModel>
  </diagram>
  <diagram id="OXXLSKSBerRHUS7To8UV" name="Analysis">
    <mxGraphModel dx="1434" dy="2087" grid="1" gridSize="10" guides="1" tooltips="1" connect="1" arrows="1" fold="1" page="1" pageScale="1" pageWidth="827" pageHeight="1169" math="0" shadow="0">
      <root>
        <mxCell id="0" />
        <mxCell id="1" parent="0" />
        <mxCell id="YB9vVV8EXHGn8TmSXIP--13" style="edgeStyle=orthogonalEdgeStyle;orthogonalLoop=1;jettySize=auto;html=1;curved=1;endArrow=halfCircle;endFill=0;" edge="1" parent="1" source="cuUGFXevKz2pucMZlayZ-1">
          <mxGeometry relative="1" as="geometry">
            <mxPoint x="790" y="384.5" as="targetPoint" />
          </mxGeometry>
        </mxCell>
        <mxCell id="cuUGFXevKz2pucMZlayZ-1" value="" style="shape=image;verticalLabelPosition=bottom;labelBackgroundColor=default;verticalAlign=top;aspect=fixed;imageAspect=0;image=data:image/jpeg,/9j/4AAQSkZJRgABAQAAAQABAAD/2wCEAAkGBwgIDQ8IBwoQBwcICg8IBwcHDxAIFQgNFREXFyAdFxUYHSggGB4rJx8TKDEtMSorLi4wFyI4PDMxRSg5LiwBCgoKDQ0OGg8PFSslICUtKzcxNi4tLS8rLTcvKystOC03Ky8tKy03MTcvNy0rKy4rKzctMTctNi03LS0rLTErN//AABEIAOEA4QMBEQACEQEDEQH/xAAbAAEAAwADAQAAAAAAAAAAAAAAAwUGAQQHAv/EADoQAQACAQEEAw4GAgIDAAAAAAABEQIDBCOxsgUGcwcSISQxNFFxdIGDhJHBEyUyM1JyQWFCoRQiNf/EABsBAQACAwEBAAAAAAAAAAAAAAAEBQECBgMH/8QALxEBAAECBQMDAwMEAwAAAAAAAAECEQQFMTOBAzLBNHGxIXKCE1KREkFR0SJh4f/aAAwDAQACEQMRAD8A9xAAAAAAAAAAAAABxllGMTllNY4xOWU+iGKpimLyzEX+jF9IdJ6+2ZTM5Tho3u9DGaiI/wB+mXC4zMOriapmZmKf7R/v/MrfpdCnpx/26VoL2LAsCwLAsCwc455Yz32EzhlHkyxnvabU1TTN6ZsTETq0/V7pLU2nvtn2ie/1dPHv9PUny54+Tw/9fV1WTY+vrRPS6s3mNJ/zH/itxXRij/lToul6hgAAAAAAAAAAAAAAAAOv0h+xq9hqcso+L2Op9s/Dfpd9PvDBW+frwsCwLAsCwLAsCwW/VefGfg5cYXGR+q/GfmEXGbfLXOwVQAAAAAAAAAAAAAAAADr9I/sa3YanLKPi9jqfbPw9Ol30+8MBbgF2WBYFgWBYFgWBYLjqtPjPwcuMLjI/VfjPzCLjNvlr3XqoAAAAAAAAAAAAAAAAB1+kf2NbsNTllHxexX9s/D06XfT7w89twK8LAsCwLAsCwLAsFz1Unxr4OfGFvknqvxn5hExm3y2Lr1UAAAAAAAAAAAAAAAAA63SXm+t7Pqcso+L2K/tn4enS76feHnluCXhYFgWBYFgWBYFgueqc+NfAz44rfJPU/jPhExm3y2brlUAAAAAAAAAAAAAAAAA63SXm+t7Pqcko+K2K/tn4enS76feHnNuDXpYFgWBYFgWBYFgu+qPnXwM+OK3yT1P4z8wiY3b5bR1qpAAAAAAAAAAAAAAAAAdbpPzfW9n1OSXhitiv7Z+Hp0u+n3h5t30elwS9O+j0gd9HpBzbIWBYFgWBYLvqh538DPjit8l9T+M+ETG7fLbOsVIAAAAAAAAAAACu23acu+nTwnvccfBlMeDvpU2NxVX9c9OmbRCT0unFry6dq672LYCwLAsCy4WXCwVPTXR+lnp5bRo4xp62lHf5xhFRqYx5b/2jdfpRMf1Rq9+l1JibSzsZIVktzbDJYFgWC86ned/Az44rbJfU8T4Q8btctw6xUgAAAAAAAAAAAKPaZ3mf98uLmcRu1e8/KdR2wjt43bFlwsuFlwsuFlwsuFlxDtc7rU7HPllirSW1OsMVhKtT0kS1Zc2BYFgvOps+N/L58cVtkvqeJ8ImN2uW6dWqAAAAAAAAAAAAFDtM7zPtMuLmMRu1e8/KfR2wit4tiwLAsCwLAsCwRbXO61Oxz5ZYq0lmnWGJwlXp6WJaslgWBYL7qXPjny+fHFbZN6nifCJjdrlu3VKgAAAAAAAAAAABntqneZ9plxctiN2v3n5WFHbCK3i2LAsCwLAsCwLBFtc7rU7HPllidG1OsMVjKEnJIlqy5sCwLBfdSp8c+Xz44rXJvUcT4Q8dtct66pUAAAAAAAAAAAAM5tc73PtMuLlcRvV+8/Kxo7YRW8WxYFgWBYFgWBYIdrndanZZ8ssTo2p1hisJRE1LEtWSwLAsF/1Inxz5fPjitcn9RxPhDx21y37qVQAAAAAAAAAAAAzO2TvdTtcuLlMTvV+8/Ky6fbCG3i3LAsCwLAsCwLBFtc7rU7LPllidGadYYvCUZNSRLVlzYFgWDQdR/Pfl8+OK1yf1HE+EPHbXL0B1CnAAAAAAAAAAAAZbbJ3up2uXFyeJ3q/eflZ9Ptj2Q28G5YObGCwLAsCwLBDtc7rU7LPlkltTrDGYy8ExJEtWSwLAsGh6iz478tnxxWmT+o4nwh47a5ehOoU4AAAAACDa9f8ABx/9f15eDG/8IuLxH6NP01l6dOj+qVblq6mXhnOZn1qWrrdSqbzVKTFMR/Zx+Jn/ACn6yx+pV+6f5LQfiZ/yn6yfqVfun+S0H4mf8p+sn6lX7p/ktB+Jn/KfrJ+pV+6f5LQ+ZiJ8MxEzPlmf8tJ+rLisfRH0Y+gVj6I+h9B86mjhnFTERP8AjLHwUxNMS2iqYV2cTjM4z5cZqUafpNntH1cWwyWBYFgh2ud1qdlnyyMxqxmMvKUxJEtWXNgWBYND1E89+W1OOK0yj1HE+EPHbXL0R06mAAAAAAV/Sflx9U/ZUZn3U8+Ejo6S6Ssu9wuBcC4FwLgXAuBcVu1zvMvdwRq+6XvRoitq2LAsCwRbXO61Oyz5ZGY1YzGWiWkiWrJYFgWDR9Qp8e+W1OOK0yj1HE+EPHbXL0V0ymAAAAAAV3Snlx9U/ZT5p3U8+EnoaS6Kre4AAAAAAACt2ud5l7uEI9fc96O1DbRtYsLFhYsLItrndanZZ8sjMasZjIlJLatnNgWBYNH1Bnx75bU44rPKN/ifCFj9rl6O6ZTAAAAAAK3pXy4eqfsps07qefCT0NJdG1UkFgWBYFgWBYFgWCr2yd5l7uEI9fc96O1DbVsWBYFgi2ud1qdlnyyMxqxuMtpSkltWSwLAsGk7n8+PT7Lqc2Kzynf4nwhY/a5ekulUwAAAAACt6W8uHqn7KXNe6jnwk4fSVfapukFlwsuFlwsuFlwsuFlwsuKvbJ3mXu4Q8K+5Io7UFtWxYFgWCLa53Wp2WfLJDMasbjL0lJSRLVs5tgLAsGl7n3n8+y6nNitMp3+J8IWP2uXpTpFKAAAAAArOmPLh6svspM27qOfCVh9JV9qi6QWXCy4WXCy4WXCy4WXCy4qdtneZe7hDwr1SKO1BbVsWBYFgi2ud1qdlnyyzGrMasdjL1lJSWwyWwFgWDTdzyfH59l1ObFZ5Tv8AE+ELH7XL0x0ilAAAAAAVfTPlw9WX2Ueb91HPhKw+kq61PdJLLhZcLLhZcLLhZcLLhZcVG2zvcvdwh41apFHagtq2LAsCwRbVO61Oyz5ZZjVmNWPxl7pD7thlzbDJYFg03c7nx+fZdTmxWeVb/E+EHMNrmHpzo1KAAAAAAqumvLh6svsos47qOfCXhtJVtqa6SWXCy4WXCy4WXCy4WXCy4qNune5e7hDxq1SKO1BbDcsCwLBFtU7rU7LPllmNYI1Y7GUmUhJEtWSwLAsGo7nM/mE+y6nNis8q3+J8IWYbXMPT3RKQAAAAABU9N/qw/rl9lDnPdRz4S8NpKstS3SSy4WXCy4WXCy4WXCy4WXFPt073L3cIeVWqTR2wgtq3LAsCwRbVO61Oyz5ZbU6wRqx+Mpcvd921ZLGSwLBqe5xP5hPsmpzYrPKt7j/SDmG1zD1F0KkAAAAAAVHTn6sP65fZQZ13Ue0+EzC6Sq7Ul0ksuFlwsuFlwsuFlwsuFlxT7fO9y93CHlVqk0dsOvbDcsCwLBFtU7rU7LPllmnWCNWPxlOl7pIlqyWBYFg1Xc3n8wn2TU5sFlle9Psg5hs8w9SdCpAAAAAAFP07+rT/AK5cYc9nfdR7T4TMLpKrUiUAAAAAAAApekJ3uXu5Yec6pPT7Yde2G5YFgWCLap3Wp2WfLLNPdDMMhjKwl6vu2rJYyWBYNX3Nf/oz7Jqc2Cyyve4Qcw2eY8vVHQKMAAAAABTdP/q0/wCuXGHO5530e0+EzC6SqlHdLC4FwLgXAuBcC4FxSdITvs/dyw851Sen2w69sNywLAsEW1Tu9Tss+WW1HdBDIYyspeqS2rYsCwLBq+5pP5jPsmpzYLHLN7hBzDZ5jy9WdAowAAAAAFL1g/Vp/wBcuMOcz3v6ftPhNwmkqq1FdLLLhZcLLhZcLLhZcLLhZcUfSM77P1xyw0nVJ6fbDrWw3LAsCwRbVO71Oyz5ZbUd0MsjjK0l6Pu2rJYFgWDWdzKfzGfY9XmwWOWb0+yDmOzzHl6wv1GAAAAAAremtlz1sI1NKO+z0rvCP+WMqfN8LV1unFdEXmn4lJw3UimbT/dQW5W6wLAsCwLAsCwLAsFF0jO+z9ccsNJ1Sen2w61jcsCwLBHtU7vU7LPlltR3R7ssjjK2lu+7asljJYFg9G7mXQe0aM59LbVhOjjq6X/j7FhqR3s6mMzEzlXo8GNenw++6y3D1U36lUa6KjMOvTNunTPu9AWqrAAAAAAAZvpj96XIZvvyssP2Oiq0gAAAAAABRdI/vZ+7lhpKT0+2HWG4AACLav2tTss+WW1HdHuQyOK3l6PuGGXIALfqp57o/wB4ScHuwj4ral7g6VzgAAAD/9k=;" vertex="1" parent="1">
          <mxGeometry x="530" y="270" width="125" height="125" as="geometry" />
        </mxCell>
        <mxCell id="YB9vVV8EXHGn8TmSXIP--8" style="edgeStyle=orthogonalEdgeStyle;rounded=0;orthogonalLoop=1;jettySize=auto;html=1;curved=1;strokeColor=none;" edge="1" parent="1" source="N2VFOOgj81DTxY1rCRJI-1">
          <mxGeometry relative="1" as="geometry">
            <mxPoint x="866.5" y="310" as="targetPoint" />
          </mxGeometry>
        </mxCell>
        <mxCell id="YB9vVV8EXHGn8TmSXIP--10" style="edgeStyle=orthogonalEdgeStyle;rounded=0;orthogonalLoop=1;jettySize=auto;html=1;curved=1;endArrow=halfCircle;endFill=0;" edge="1" parent="1" source="N2VFOOgj81DTxY1rCRJI-1">
          <mxGeometry relative="1" as="geometry">
            <mxPoint x="866.5" y="310" as="targetPoint" />
          </mxGeometry>
        </mxCell>
        <mxCell id="N2VFOOgj81DTxY1rCRJI-1" value="" style="shape=image;verticalLabelPosition=bottom;labelBackgroundColor=default;verticalAlign=top;aspect=fixed;imageAspect=0;image=https://upload.wikimedia.org/wikipedia/commons/thumb/c/c3/Python-logo-notext.svg/1869px-Python-logo-notext.svg.png;" vertex="1" parent="1">
          <mxGeometry x="638.6600000000002" y="100" width="91.34" height="100" as="geometry" />
        </mxCell>
        <mxCell id="YB9vVV8EXHGn8TmSXIP--12" style="edgeStyle=orthogonalEdgeStyle;rounded=1;orthogonalLoop=1;jettySize=auto;html=1;endArrow=halfCircle;endFill=0;" edge="1" parent="1" source="N2VFOOgj81DTxY1rCRJI-2">
          <mxGeometry relative="1" as="geometry">
            <mxPoint x="866.5" y="310" as="targetPoint" />
          </mxGeometry>
        </mxCell>
        <mxCell id="N2VFOOgj81DTxY1rCRJI-2" value="" style="shape=image;verticalLabelPosition=bottom;labelBackgroundColor=default;verticalAlign=top;aspect=fixed;imageAspect=0;image=data:image/jpeg,/9j/4AAQSkZJRgABAQAAAQABAAD/2wCEAAoHCA4UERIPEREYERISFxISERcPEhoVEhEYFxkZGBcaFxoaIiwjGh0qIBgXJDYlKS4vMzM0GSI4PjgwPSwyMy8BCwsLDw4PGRISHS8gICEvPTcyLzIyMjIyLy8zMjMzNC80MjMyMzI0LzYyLzIvLy8yLzIyMjUyPTIyLy8yLzMyMv/AABEIAMYA/wMBIgACEQEDEQH/xAAcAAEAAwEBAQEBAAAAAAAAAAAAAQYHBQQCAwj/xABIEAACAQICBAcKCwcFAQEAAAABAgADEQQFEiExUQYiQWFxgbETFjJCU3KRkqHSBzRSVGJzo7KzwdEjM0N0guHwFBdjk6LxFf/EABkBAQADAQEAAAAAAAAAAAAAAAABBAUDAv/EADMRAQABAgIGCAUEAwAAAAAAAAABAgMEESExMlFx0QUSExRBgZGxFTNhofAiUsHhI0Lx/9oADAMBAAIRAxEAPwDZoiICIiAiIgIieHEZlRTVpaR3Jr9J2QPdPlmAFybDnnBr5xVOpQFHpb0nV7J4KlV2N2YsfpG8nIWKrmVBfH0j9Dje0ap5KmeJ4qE+cQOy84l5EZDpvnVXkVR1Entn4NmuIPj26FX9J45F5OSHobH1z/EbqNuyfBxlbyj+uZ+N5F5GQ/b/AFtfyj+uZ9rmOIH8Ruux7Z5byLxkPcucYkeOG6VH5AT0Jn9UeEit0XX9ZyLyLychYaWf0z4SMvm2YflPbRzLDvsqAHc3FPtlQvPkyMkr7JlHoYqrT8ByvMDq9Gwzp4bhBUGqoocb14rejYfZGQssTxYTMaNTUj8b5Lam9HL1T2yAiIgIiICIiAiIgIifDuqgsxsBtJgfc8OLzCmmrwm+SvJ0nknOxuaM11p8Vd/jN+gnNk5D1YrH1H1E2X5K6h1755IkSUJvPm8ReAvIi8i8BeReLyLwF5F4vIvAXkXi8i8BeReLyLwF4vIvIvAm8i8i8i8Cbzo4LOqyWDHuibnPGHQ363nMvIvAu+BzGlVHFbjcqtqYdXL0ie2Z2rkEMpII1gg2I6DLBlef7KdfoD+8Pz/+yMkrJE+QQRcawd3LPqQEREBET86jqqlmNgNZMD5xFZUUuxsB6TzDnldxmMeodepR4KjYOneZGNxbVGudSjwRuH6zzSUJvIvIkXkibyIkXgTIvIvIvAm8+byURmOiqlieRRczq4bI6h11G0RuXW36D2wOQTP0o4aq/gIzc4Gr07JZ8PltBNiBjvfjH26h1T3SM0qtTyXEHaFTzmuf/N56k4PfKqdSp+ZM78RmOOvB+jys56wB2T9BkeH3Melp1IkZjmf/AIeG+SfWM+TkOH3MOhp1Yk5jing9R5Hcdakdk/B+DY8Wr6yX7DLDEZip1eD+IHglG6yD7Rb2zxV8vxCeFTYDeBpD0rcS8xGYzq8mXrE4GjU8OmrHfazeka5xcZwb2mi39NT8mH5jrjMV2RP1xOGq020XQoeS+w9B2Hqn4yUOrlGcNSIRrtSPWU515ub/AA2+nUVlDKQysLgjYRM6vOrkWamk3c3P7Jjr/wCM7xzb/T0xMJXSJ8jfPqQEr+cYzSbuanioeNzt/adXMcR3OmzDaeKvSf8ACeqVcmTAmRIiSgi8iReBN5F5F4AJIAFydQA2mBBM6mByd3s1S6JyDxz+k92WZUEtUqC77QNoX9TOtIzS/DD4emg0UUKOXeek8s/eIkBK/W4XZYjNTevZkZkYdyqGzKSpFwtjrB2SwTEM/wDjmK+vxH4jy3hMPTemYqz0bv8Akq+Ju1W6YmnJpvfrlPzj7Gr7kd+uU/OPsavuTIol/wCH2d8+sclPvtzdHpPNrvfrlPzj7Gr7kd+uU/OPsavuTIpEj4fZ3z6xyO+3N0ek82vd+uU/OPsavuR365T84+xq+5MhkR8Ps759Y5HfLm6PSebXu/XKfnP2NX3I79cp+c/Y1fcmQyI+H2d8+sck99ubo9J5tf79sp+c/Y1fcjv2yn5z9jV9yZBEfD7O+fWOR325uj0nm2bD8KcsfZikH1l6f3wJ16NZHUMjK6nYUYMp6xMBn64bE1abadJ2pv8AKpsVPWRtnOvo2n/WqfPS9U46fGn88+beK9BKilHUMp5D/mqVbNsjanepTu6DWRtdf1H+c8r+S8PsQhCYpe7ps00AWqvSBZW9h5zNEy/HUa9NatGoKiNsK7+UEHWDzHXKF2xctbWrf4Llu9Rc2Wf3kXlg4Q5QEvXpiyHw1Hik+MObm5Oyu3nN1WvgxmWkP9O51qL0yeVeVers6JY5mtCuyMrqbMpDDq/KaHhsQrotRdjAML8l5Ejj59Wu60+RRc9J/sPbOVefvmFTSq1D9Ij1dQ7J57yYQm8i8i8i8CbyLyLyLwJvO/kuA0QKzjjN4APig8vSeycrK8N3SqqnwV4z84HJ1m3tlukTKSIiQEREBMQz745ivr6/4jzb5h+f/HMV9fiPxHml0btVcFLG7EcXgiJE1WaREiAiIgJERCSREmEEiJEBOpkGeVsJVFWmdJDYVUJ4tRfyYch5OgkHlyJ5qpiqJidMSmJmJzjRLecFi6WIopVQ6dOqtxcbQdRDDeNYI5jKTm+CNGs1PxfCQnlU7PRrHVPw+DLNCHqYJjxWBq078jCwcDpFj/S2+Wfhdhr0lqga6bWPmtq7dH0mYN612VyafTg2rVztKIqVGW7ghitKm9I/w20l81r/AJg+mVCdrgnV0cTo/LRl6xZvyM5S6PuseOx+k3bPm8+sSLPUG5nHoJn53kQhN5F5F5F5Im8i8i8i8CxcHKVkd+Vm0epR+pPonanNyH4uvS/3jOlPKSIiAiIgJh+ffHMV9fX/ABHm4TD8++OYr6+v+I80ujdqrgpY3Yji58RImqzSIiB08jySvi3dKLIrIodu7MyixNtWip1zu/7d47ylD139yfr8F/7/ABH1a/emmTNxWLuW7k005ZNDD4e3XRFVWtl3+3eO8pQ9d/ckf7d47ylD139yalEr9/vfT0du6WtzGc14J4/DqXamKiLrZ6TaYUbyCAwHPawnCn9BzGuGuWrh8a6pqSoq1UUbE0yQQObSVrDkBA5JbwuLm7PVq1quJw8W461OpwIiRL6mREQOpwXxBp47CuPKqh6HOg3sczYs5p6WGrD6DMOlRpD2iYjlhPd6NtvdKdvWWbrjf3VTzH+6Zk9Ix+qmfp/P9tLA7E8f4ZredDIGtiaR8/7jTm3nU4NppYunuGmT6jDtIlBddTOKejXfc1nHXt9oM8V53uEVC6rUHinRboOz29sr94hCbyLyLyLwF5F4vF4Fl4N1b0mTlRj6GFx7bzsyo5HitCsATZanEPMfFPp1dct08ykiIgIiICYdn/xzFfzGI/EebjMOz/45iv5jEfiPNLo3aq4KWO2I4ufERNVmkiIgXb4L/wB/iPq1+9NMmQ8Cc6oYWrWeuWCuiqugukbhr8kuff7lnyn/AOszIxlm5XemaaZmNDTw12im3ETMQtcSqd/uWfKf/rMd/wBlnyn/AOsyt3a9+2fR37e1+6PVa5knwjYpXx2ipv3KnTpt513c+xhOxm/whjRK4Sk2kbjTrAcXnVATc9JHQZn7uzMzsSzMSzFjcsSbkk8pJl7BYauirr16PoqYq/TVT1adL5iImkoERED38HaBfG4WmNd6tMnoVgzexTNpzepo4es3/G4HSQQPaZnHwZ5cXxL4kjiUFKqf+SoLauhdK/nCXThfidHDiny1GA/pXjE+nRHXMfH153Ip3R76Wngqcrczvn+lKlj4GUL1alTkRAg6WN+xfbK0TL/wawfc8Ml9TVP2jc17aI9AHtlKVx1K1NWVkOsEEHrlMxVBkdqbbVPpHIZd5ys6wHdE00HHXZ9Ibund/eRAq14vIMXkoLyLxeReAMteS5iKqaDH9oo1/SHI36/3lTvPqjWdWDqdFl1giBoETmZXmiVlt4NQeEu/nXeOydOeUkREBMNz/wCOYr+YxH4jzcphuf8AxzFfzGI/EeaXRu1VwUsdsRxeCRETVZpIiTASIiQEiJEJIiJKCIiAn6YLC1a1RKNJdN3OioHtJ3AC5J5AJ68nyXFYt9CghIBs7tqRPOb8hc801bgzwZo4NLjj1mH7SoRY226KjxV7eXktVxGJptRlrq3c1izYquTujfyevg/lKYXDpQXWRdqjWtpufCbsA5gJUeEOYCtXJU3ROKm422t1n2ATucJ85CKcNTPHbVUYeID4o+kfYJUKVNnZURdJmICgbSZiTM1TNU65a0RERER4OjkOXmvWVSP2aWepusNi9Z1dF900Wc3JstXD0gm1zrdhytzcw2D+86U8pIiIFfzvKib1qY17XUcv0hz7xK9eaDOFm2TB71KQs+1l2Bucbj2yYkVq8i8l1IJUggjUQRYg88+byUF5F4vIvA+kcghlJBGsEGxHRLDlvCAGyV9R2BwNR84DZ0j2StyIGio6sAykMDrBBuD0Gfcz/B4+rSN0cgcoOtD0j8538JwmQ2FVCh+UnGX0bR7ZGSVhmG5/8cxX8xiPxHm14fE03F0YOPom9undMUz/AOOYr6/EfiPNHo7aq4KWN2I4ufIiTNVmkiIgJE6uRZDiMYai0TTBphC3dWK+Fe1rKfkmdr/bzMPl0PXf3JyqvW6ZyqqiJdabNdUZxGcKfE62dcHcZhLNWQFDqFSkdKnfcTYEHpAvyTkT3TVFUZ0znDxVTNM5ToTERPTy6eT5bh6x0amNTDE+VRj/AOjZR600HKuAeXpo1HZsSdRGmwFI84VNo6SRMpnvyrOcXhW0sPVZRe5Taj+ch1de3nla/auVx+ivL6f3Gn3WLVy3TP6qc/zdqblSp06aBFVaaKNQUBVUDcBqAlazvhMADSw5udjVBsHmbzz7N1+SrNwnrYsFXbQtrNNNSHn3t17Iw2HqVHFNFLOdgHadw5zMSq3NFUxVratFUVRnTqfKhmYAAszHVbWzE9pl44PZIKK90qAGsw6RTB5Bz7z1dP1keRJQGm9nqka28VL7Qv69k7k8zL0RESAiIgIiIHPzHK6VYcYaLDYy7eveJVsfltWkeOLpyOutevcemXmfJAIsdYOrXywM6vIvLZjuD9J7tT/ZtuAuh6uTq9Er+MyuvSuXS6jxk4yf267T0PHIi8+YQmfMmRCUo5B0lJUjYVNiOsSoZgxNaqSbku5JOskkm5Mtl5Ucd+9qee3aZodH7VXBSxuxHF+MiImqzSREiBePgyxNJHxRqOqXFG2mwW9i97X27RL+c2wg/j0+pweyY/wf21ehZ2rzDxsf56vL2hr4X5UefvK9YzN8vdGpVKiujgqy6LMGB6BMhzrBpSrOlNzUpE3pMQQSp5DflGw77X5ZY7zx5lhu6IQPCXjL07uv9Iwl7sq8p1Tr5/ngYm12lGjXGrl+eKtz5iJuMgkRED9KNVkZXXapv07xNt4OrhTh6dXDjiVFDaR1uTsIY7wbi2wEGYdLt8HGedzqnBVG4lYlqROxXtrXoYD0j6Uo46z16OtGuPb80reEu9Wrqzqn3/NDUoiJjNQiIgIiICIiAiIgIiIHOxeT4apcmmFY+MnFPXbUeucfFcF220qgO4VBY+sP0lpiBQcRk+LTbSYjfT4/3dc57Ag2IsdxFjNOn51KasLMoYbmAI9snMZnKljf3tTz27TNtq5NhG20VHmDQ+7aYzndNVxWJRRZVrVlUbbAOwHsE0ejtqrgpY3Yji8UiJE1WaREQOtwf21ehZ2SZ9/Bxl9Gs+JFVdMKKRXjFdpa/gkbhNDpZRhF8Ggn9S6R9LXmHjZ/z1eXtDXwvyo8/eWd06bubIpc7kUsfQJ0cPwfxr/w9Ab6pC26vC9k0BUAFgABuAsJ9yrmsMX4W5BUwtRWYhkrAsCgOirjwl19IPWd0r82/hPlAxWFqUdWmOPRJ8V18HXyA61PMxmIspBKsCrAkMCLFSNRB55tYO92lvKdcaOXLyZOJtdSvONUoiIltXIViCGUlWUgqVNipGsEHkN5ESBtnBTOhi8MtU27ovErAcjgayBuIsR025J3ZinA3Pf9JiVLm1GranW3KL8V/wCkk9RabVMPFWOyr0ap1cvJr4e72lGnXGtMRErO5ERAREQEREBERAREQEREBMK4QfHcV/MYj8R5uswrhB8cxf8AMV/xHml0dtVcFLG7EcXPiImqzSIiBffgp8PF9FHteaRM2+Cjw8Z0Ue15pMwsb8+ry9oa+F+VHn7yRESqsEyj4R8m7liBikFqeIPHtsWoBr9YC/SGmrzmZ/laYrD1MO2rTHEY+I41o3UbdIuOWd8Pe7K5E+Hjwcr9vtKJjx8OLCpE+69J0dqbLosjMjA7VZTYj0ifE3mMREiAmrfB3nvdqH+ldr1cOABfa1PYp/p1Kf6d8ymezJ8yqYavTxCa2Q6xewdTqZT0j0Gx5JwxFntaJp8fDi62bvZ15+Hi36J5cFi6damlamdJKihlPMew8hE9UwdTZIiICIiAiIgIiICIiAiIgJlWacEMXUxOIqK9Kz1azgMzggF2YXsu3XJiWcLcqoqnqq+IoiqIzeXvHxny6Prt7knvGxvlKPrt7kRLneLm/wC0Ofd7e73O8bG+Uo+u3uR3i43ylL129yIkTiLm/wC0Hd7e77ytXATIMRhXxBqtTbTWkB3JmNrF9uko3y5xEpYmqarszLvYiItxEERE4OpERAoHDTghUr4gYjDtTQ1FtVFQst2WwDDRU7RYHzRK73i47ylH139yTE0bd+5TbpylRuWqJrq0I7xcd5Sj67+5HeLjvKUfXf3IiT3m7v8AtDz2NG77yjvGx3lKPrv7kd42O8pR9d/ciJHebu/7QnsKN33lc+A2X4zDLUw1dqb0xx6fc2YlCTxhxlGo6j033y3xEq4n5sz+alqzooiH/9k=;" vertex="1" parent="1">
          <mxGeometry x="840" y="90" width="113.33" height="88" as="geometry" />
        </mxCell>
        <mxCell id="YB9vVV8EXHGn8TmSXIP--11" style="edgeStyle=orthogonalEdgeStyle;orthogonalLoop=1;jettySize=auto;html=1;endArrow=halfCircle;endFill=0;curved=1;" edge="1" parent="1" source="N2VFOOgj81DTxY1rCRJI-3">
          <mxGeometry relative="1" as="geometry">
            <mxPoint x="867" y="310" as="targetPoint" />
            <Array as="points">
              <mxPoint x="1145" y="260" />
              <mxPoint x="867" y="260" />
            </Array>
          </mxGeometry>
        </mxCell>
        <mxCell id="N2VFOOgj81DTxY1rCRJI-3" value="" style="verticalLabelPosition=bottom;html=1;verticalAlign=top;align=center;strokeColor=none;fillColor=#00BEF2;shape=mxgraph.azure.sql_database;" vertex="1" parent="1">
          <mxGeometry x="1100" y="100" width="90" height="80" as="geometry" />
        </mxCell>
        <mxCell id="YB9vVV8EXHGn8TmSXIP--16" style="edgeStyle=orthogonalEdgeStyle;orthogonalLoop=1;jettySize=auto;html=1;rounded=1;endArrow=halfCircle;endFill=0;" edge="1" parent="1" source="N2VFOOgj81DTxY1rCRJI-4">
          <mxGeometry relative="1" as="geometry">
            <mxPoint x="943" y="384.5" as="targetPoint" />
          </mxGeometry>
        </mxCell>
        <mxCell id="N2VFOOgj81DTxY1rCRJI-4" value="" style="shape=image;verticalLabelPosition=bottom;labelBackgroundColor=default;verticalAlign=top;aspect=fixed;imageAspect=0;image=data:image/jpeg,/9j/4AAQSkZJRgABAQAAAQABAAD/2wCEAAkGBxAQDRINDQ0QDQ0REA8RDw0NERAQDQ4OFRgWFhUSFRUYHSggGRsnHRcVITEtJSkrLjowIx8zPzUvNysuLi0BCgoKDg0OGhAQGi0lHyMtKy0tKy0zLSstKy0tNS0tLzUtLS0vLS0rLS0vLS0uKy0tLS0tLSsrLS0tLS0tKy0tLf/AABEIANgA6QMBEQACEQEDEQH/xAAcAAEAAQUBAQAAAAAAAAAAAAAAAQIDBAUHBgj/xABDEAACAQECBg4JAwMEAwAAAAAAAQIDBBEFEiExUXEGBxMUFTJBUmFygaGx0SIzQlRikZOi4TWysyOCkiXB0vAXQ1P/xAAaAQEAAwEBAQAAAAAAAAAAAAAAAQIDBAUG/8QALxEBAAIBAwIFAgYCAwEAAAAAAAECEQMSMQQTITJBUWFSkQUzNHGx0YHwIkPhFf/aAAwDAQACEQMRAD8A7iAAAAAACxbrVGjRnWqcSnCU5XZ7kr7l0hTUvFKzaeIcewzh60WqblVqSjBv0aMJNUoR5Fdyvpf4MZmZfNa3U6mtObT4e3o1hDnAAAAAAAAAADZWL1a1vxDO3K+FQAAAAAAAABtcDYdq2aaePKdG9Y9KTbWLyuN+ZkxbDs6brdTRtzmvrH9OhcJ0P/rE1zD6Xv6fuyyWoAAAAAGj2bfplo6sP3xK24cnXfp7OQGT5oAAAAAAAAAAAGysXq1rfiGduV8KgAAAAAAAAABcx3pfzC+6fd143fZgAAAAAaPZv+mWjqw/fErbhydd+ns5AZPmgAAAAAAAAAAAbKxerWt+IZ25XwqAAAAAAAAAAFQS7AbvtQAAAAANHs3/AEy0dWH74lbcOTrv09nIDJ80AAAAAAAAAAADZWL1a1vxDO3K+FQAAAAAAAAAAqCXYDd9qAAAAABo9m/6ZaOrD98StuHJ136ezkBk+aAAAAAAAAAAABsrF6ta34hnblfCoAAAAAAAAAAVBLsBu+1AAAAAA0Ozl3YLtD+GH74kW4cvW/kWcc3Z6EZYfObTdnoQwbTdnoQwbTdnoQwbTdnoQwbTdnoQwbTdnoQwbTdnoQwbUxraRhE1XSFQDZWL1a1vxDO3K+FQAAAAAAAAAAqCWXs12a15152ax1JUKFOThKpTd1WrNZJNSzxineldrvy3K1rez3Oq6y82mlJxEPIvClp96tH1qvmVzLi7t/qn7yjhS0e9Wj61XzGZO7f6p+8nClp96tH1qvmMyd2/1T95RwpaPerR9ar5jMndv9U/eThS0+9Wj61XzGZO7f6p+8qKuEK8ouM7RWnF54zq1JRetNjJOpeYxMz92PjPSyFDGelgRjPSwkxnpYQjGelhJjPS/mBGM9LAsV24rHjKSuzq9tXaiYlpSYnwmF+yYRhOPpO6Sz5Hc+klXU0prPgz6dsp3L0u6XkQwmk5Vb8p87ul5EI2S2dhtcNzXpcr5JadRLO1Zyv76hzu6XkFdsm+oc7ul5A2yb6hzu6XkDbJvqHO7peQNsm+oc7ul5A2yb6hzu6XkDbJvqHO7peQNsm+oc7ul5A2yb6hzu6XkDbJvqHO7peQNsqt9Q53c/IJ2y8xJ3tt5W223pZDrlSEAEAAIAAQEgEAAAEEABbr8SXVl4ErV80NVg/jPUTLq1uIbSnmKuWeVQQ2lg9Wtb8SWF+WQSqAAAAAAAAAAFQS1LIbIAAAIABKAAEAAIAEABAFFfiS6svAmFq+aGqwfxnqJl1a3ENpTzFXLPKoIbSwerWt+JLC/LIJVAAAAAAAAAACoJahkNgCAAHusAbAqNsssLTTt0kpK6UNyi3TqLJKD9Lkfdc+UvFMw9HR6KmrSLRZsf8AxXH3+X0V/wAie21/+bH1Od4TsM7PXqWeqrqlKbi9D0SXQ1c1rM58HmXpNLTWfRjBU79WcDoth2rnKlCda1ulVlGLnTVJSVOTV7jfjZbsxftvTr+HZiJtbxWcMbXlGy2apaa2EJYlON9yoxxpSzRgvTzt3ITTEI1Ohrp1m024c+M3mgAC3X4kurLwC1fNDV4P4z1FpdWtxDaU8xVyzyqCG0sHq1rfiSwvyyCVQAAAAAAAAAAqCWoZDZAEBIB6/a22Qb2te96srrPaGo5c1OvmhLU+K/7dBak4l29Dr9u+2eJ/l2M2e25vttYEyQwhTWa6lXu0P1c32vF7Y6DO8erzPxDR41I/aXMzJ5T2O1ngLfNs3zUjfQszUsuadf2I9nG/x0l6RmXd0OjvvuniP5djNntOQbZ2yLfFp3nSlfQs8njtZqlozPsjljrxugxvbM4eN12vvtsjiP5/8eJKOBAC8JW679CXVl4BNfNDWYP4z1FpdWtxDaU8xVyzyqCG0sHq1rfiSwvyyCVQAAAAAAAAAAqCWnZDdAACAIYHbNr7ZDvyxqNSV9poXQq355r2Knak7+lM2pbMPd6TX7tPHmOXoMIWOFejOhVWNTqQlCS5bmrr1oZaYy6b1i1ZrPq4Bb8FVaNrlYnFzrxqqlGKybpKTWI11k4taznmPHD52+nat9nrnDuWxnA0bFY6dmjc5JY1Wa9uq+NL/ZdCRvWMQ9/Q0o0qRWGu2e7Id5WN7nK601r4UdMedU/tTXa4kXtiGXV6/ap4czw4gYPBReBF4SgCitxJdWXgStXmGtwfxnqJl063ENpTzFXLPKoIbSwerWt+JLC/LIJVAAAAAAAAAACoJaZkN0AAIAEDbbFsNysNshaFe6fErQXt0XxlrWRrpSJicS26fWnSvFvT1d7oVozhGpCSnCcVKEo5VKLV6a6LjofQxMTGYam07HqU8I0sIv1lKlOGLdklP2J60nUXbHQV2+OWVtCs6sanrH+/22tetGnCVSpJQhCMpTlLIoxSvbfYWazMRGZcE2VYclbrZO0O9U+JRg/YorN2vK30voOeZzL5/qNadW829PRp7yGKAAEXhK3WfoS6svAlavMNfg/jPUTLo1uIbSnmKuWeVQQ2lg9Wtb8SWF+WQSqAAAAAAAAAAFQS0rIboAEABAADtG1hGusGR3f1bnJ2ZO/HVB6ei/Ga6LuS42pnD3Oh3dqN3+P2etLux5HbQp13gyW4P+mpxlaUr8d0Fo6FLFb6L+S8pfOHH10WnSnb/n9nFbzF4gBF4Si8CALdd+hLqy8CYXpH/KGrsNb0nk5NJeYdmrpZjlsoWnJxe8rhzzo+PKrfPw9/4GEdj5bCx2+6CWJp9r8EcOfU0sW5XuEfg+78DLPt/Jwj8H3fgZO38nCPwfd+Bk7fycI/B934GTt/Jwj8H3fgZO38nCPwfd+Bk7fycI/B934GTt/Jwj8H3fgZO38nCPwfd+Bk7fycI/B934GTt/KrhD4Pu/Aynt/LDZC6AIAAAN9sL2PO32tU5J73p3TtElevQ5IJ6ZNXar3yFqxmXR02h3b4niOXdYQUUoxSjFJJRSuSSzJI3fQPPUtllKWFpYMV2SnkqabQr5Spf43dqkiu7xw546is63b/ANy9DUgpRcZJSi01KLV6aeRpos6HBdmeAHYLZKkk9wn6dnk73fTfst6YvJ8nymFoxLwOp0e1fHp6NDeVYIAXhKLwLdfiS6svAmFqeaP3aexZ3qNJejqcM+GYqxlUEMuz8RdpWeXLq+ZdIZgAAAAAAAAABUEpYVQAAAVUaUpzjTpxc5zlGMILPKUncku0JiJmcQ7xsRwDGw2SNFXOrL06817dV57uhZlq6TesYh9B0+jGlTb6+qrZdhtWGxVLRkdTiUYv2q0uL2LLJ9CYtOITr6vapNvs4LTtVSNVV4ze7KaqKq8st1vxsZ6XflMHgRaYtu9eX0BscwvG2WOnaoXLHj6cF7FVZJx7Hf2XM6InMZfQ6OpGpSLQwtm2x5W+xypxS3xC+dnk8n9RLit6JLJ8nyEWrmFOp0e7THr6OCzi03GScZJtSjJXSjJZGmuRmDwcKbwIvAgJW679CXVl4EwtTzQ1NizvUaS9DU4Z8MxVjKoIZdn4i7Ss8uXV8y6QzAAAAAAAAAACoJGFQCAIvCXStqnY3e+Eq0edCzRfynV8Yr+7oNKV9Xp9Bof9k/4/t001eo4ntlYf31bXSpyvs9mcqcbs06v/ALJ/NYq1X8pjecy8XrNbuXxHEfy8jeUcb3G1Vh/cLU7HUldRtLWJfmjaErl/kvR1qJek4nDv6HW222TxP8uxGz13JNtjY5uVVYRox/pVWo10lkhW5J6pXZenrGV648XlddoYnuR68uembgReBF4FuvxJdWXgTC1PNDVWLO9RpL0NThnwzFWMqghl2fiLtKzy5dXzLpDMAAAAAAAAAAKgkYVU3hKLwKqTjjRdROUMZY8YNRk435UnyO7lCYxnxdIs+2lSpwjTp4NcKcIxjCEa0UoxSuSXoaDXf8PTj8QrEYiqzhPbTlUoVKdCySo1ZwcYVnVUtzbyYyWKsq5Om4ibov8AiGazFa4lzgzeaXhJGbTUotxkmnGUXdKLWVNPkYHS7Nts3U4qrYXOooxU5xqqMZTuyySxcib5DXuPTj8Q8PGq1hLbOo2ihOz1sGylSqRcZLd433PlXoZGs66SJvlFuuraJrNXNX/2/OZvOQACVus/Ql1ZeBMLU80NXYs71Gku/U4Z8MxVjKoIZdn4i7Ss8uXV8y6QzAAAAAAAAAACoJUthCAIvCUXgQACUXgQBASi8CLwASi8CLwLdbiS6svAmF6eaGtsWd6jSXdqcM+GYqxlUEMuz8RdpWeXLq+ZdIZgAAAAAAAAABUEqZK5tPI02mtDBhTeBAEBKLwIvAgJLwIvAgCLwlF4EAAlbrP0JdWXgTC1PNDXWLO9RpLu1OGfDMVYyqCGXZ+Iu0rPLl1fMukMwAAAAAAAAAAqCXuNnWwavC0VLVYqUq9CrJzlSprGq0pyd8ko55Rbyq7NmuyXu9qesPQ6npLRabUjMS8c8E2r3S0fQq+RXEuPtX+mftKOCbV7paPo1fIYk7V/pn7I4JtXulo+jV8hiU9q/wBM/ZHBNq90tH0KvkMSdq/0z9kcE2r3S0fQq+QxJ2r/AEz9luvg+vTi51LPWpwXGnUpVIwjyZW1chiSdO8ek/Zh7rHnR+aCNs+yN1jzo/NDBtn2RusecvmhhO2fZG6x5y+aBtn2N1jzl80MG2fZG6x5y+aGE7Z9kOrHnR+aGDbPswbbbE1iQd9+eSzXaEWrV06OjMTusosWd6i0tb8M+GYqxlUEK41ZJXJ5OwYVmlZnMp3eWnuRGIR2q+xu8tPchiDtV9jd5ae5DEHar7G7y09yGIO1X2N3lp7kMQdqvsbvLT3IYg7VfY3eWnuQxB2q+xu8tPchiDtV9jd5ae5DEHar7G7y09yJxB2q+yrd5ae5DEHar7PqE2e4AAAAAB5PbWjfgG2L4Kf8kCJU1JxWXzVvZ6UVy5N8G9npQyb4N7PShk3wb2elDJvg3s9KGTfBvZ6UMm+Dez0oZN8K4ULuUhE2ZVmjdkREs7MxLIQySEAAAAAAAAAAAAAVBL6lNnsAAAAAAeW20F/odr6lP+SBE8M9byS+dcToM3n5MToBkxOgGTE6AZMToBkxOgGTE6AZFT6AZZFKncukKWnK4QqAAAAAAAAAAAAAAqCX1KbPYAAAAAA8ztlfotq6lP8AkgRbhlr/AJcvn4yeWAAAAAAAAAAAAAAAAAAAAAAAAFQS+pTZ7AAAAAAHmdsr9FtXUp/yQItwy1/y5fPxk8sAAAAAAAAAAAAAAAAAAAAAAAAKgl9Smz2AAAAAAPM7ZK/0a1dSH8kCLcMtf8uXz8ZPLAAAAAAAAAAAAAAAAAAAAAAAAC9uMuZL5MLYl9Qmz1wAAAAAMXCdhhaLPUs1W906tOdOV2dKSuvXSJRaItGJfPmyLYta7DVlCtRlKmm8S004t0KkeR3rivoeXXnMsTDy76VqT4tKQzAAAAAAAAAAAAAAAAAAAAAAPSbFNhlpt9aKdKpRst6dW0Ti4xxOVU7+NJ9F6XL0zEZbaeja8/DuPANk92p/I0w9HbD/2Q==;" vertex="1" parent="1">
          <mxGeometry x="1032.51" y="311.5" width="157.49" height="146" as="geometry" />
        </mxCell>
        <mxCell id="YB9vVV8EXHGn8TmSXIP--14" style="edgeStyle=orthogonalEdgeStyle;orthogonalLoop=1;jettySize=auto;html=1;endArrow=halfCircle;endFill=0;curved=1;" edge="1" parent="1" source="N2VFOOgj81DTxY1rCRJI-5">
          <mxGeometry relative="1" as="geometry">
            <mxPoint x="790" y="384.5" as="targetPoint" />
          </mxGeometry>
        </mxCell>
        <mxCell id="N2VFOOgj81DTxY1rCRJI-5" value="" style="shape=image;verticalLabelPosition=bottom;labelBackgroundColor=default;verticalAlign=top;aspect=fixed;imageAspect=0;image=data:image/png,iVBORw0KGgoAAAANSUhEUgAAAYUAAACBCAMAAAAYG1bYAAABAlBMVEX///8oLTMYHyYhJy35+fkNFh/29vZXWl6ho6UqLzYACBZRVFgVHSSYmpzAwcLOz9DW19j1OniuoMmrpc35NHPzPXqxnMapqM8xNjscIikADhkRGSHq6uuK1PLwQX6oqqzVaJ3QcKKH2PbXZpvMdaeOz+6E3vqPkJOxkL7i4uPExceAgoW3uLqgqNH9E2RrbnE7P0XR1umHiYx2eXxVWV1DR0z2zdwAABL65OzzkLD0YZDwf6bpx9rYkLfYhK/huNHKwty5r9Ll5fHP6Paj2PL3r8bYz+Pg8/vZeajGy+PWV5LWpcbS5vWp5vuq0+350t/0nbn0cJu94fT76fDCrc/qRoQWtz42AAAJ5UlEQVR4nO2ce3vTuBLGY8tyLnUuhRYi2Utgt5BNYog3aVooLNBCWfZ2zmHLfv+vcpJYd8u0hiY27fz+6RNFUpR5ZWmkmbRWAwAAAAAAAAAAAAAAAAAAAAAAAAAAAAAAAAAAAAAAAAAAAAAAqDbPX5ycvDwyS1/9+vrXN75RGL09PX17ZlZ99/79+3+8jY3vVnD+bG9vd3fvpVbof/zj4cNHjw6ea6Uf7t27c+fu3bd61cePf/jxxydPftv0QG8yR2sR9vd3X6ilH39aifDo4CBSCj/8vFbh/tPf1apLEX5Yy2A+OMDV2d1LVXiweyELX/3BVfhTqXrvXqrC/aeKwf8SKvy9tTHfOJ4/4yrsn8vS10KFA1l49rNQ4RdZ+h+hwpPtjfqm8V+hwoP/ydKPP4EK2yTnWQAVtsue2BcUf+iNdV+QKih7NuwL18E585H2NVf1IVdB2bKFj3Rf9ZE8oQK4qt/Ai7UMu5+0Y9cFk+GVVvVtel441Qp/e5yK8G7zQ73JHH168ODk3Cj03rx+dPDnhVF6dnrn7ukvZtV/ljr8fW1PQmfYHhVtM2oPO/Z3osFwAAeZovg71A1pXKzRgIYurdvuUHoEu7hfWNXbziR0lrQK2W1EV23CmeWtJlq+QxbXNLjbgtdfGdQJGkUaNdbKoX72nW5r3R2Gh6EQ/tpqjtsu0qjtrhv1s0tSB6cqdK9tgLcCvwkqlM83qZB9B1Sw4MszdxRFNp/miyr4UWR1OrkKoyhFdpxRwY9sHdTs/d5I/CmmzsoH7bUXCGOMFsNepk6eCn487bsYu/1pnLEYU8HBDCJaGyqsRtDPHiwaiIaT2xIr3AmWBjmOe4fURWvjIJcuxnqdHBX8YYBJaurlAWBo6MBVEFDutBoqJMuK6Nj4yFrjeFVlel1fs9qMU68RhUixF2pNNZPaVRg7gWrksKkbMqOC47KFR1chXp8rkHF68NK+W5nncss8Pz8/yjyQ/ngQZxfRsw8fMsH/nKomjcC0VWow7WRrVaHdMtogqr+fUSFkk19XYZjWo7q9B2HapOB5/Zq5OFmFGP41kjAGCIcYG6tl9Hl9p2ro0FhXnV22sOao4KCmIoNNhSHNNqJDpUJWBX5M01VIT3cO0RefJH02aal+1MU6wLC/v6vJwKZfWFcLfRZfeKrJ0E6NdOnCmqeCgxK5KFlUGFhEWBptoIzAVCHgY9FViDBrqz64Xda95bSxRT494xFPZRijluXL1j6LKI9StceNhNWqFjQVUBAGhL9wpYBZFXpYtHHD0BWbinIrwVUIGa06l9XYnafpR7rqg1RPewwLnVCumwsZ8XwjS4d8dqlbmW+NeM5E1Z0vf5KiAgmmjXgwd7kOVOy2WRV2uN3xYhjHwwRnP46fF2KGXFsMFfi8J3IWjVh/5PKNbYPYo/91MeVastAed5ZVnS8/01IFOk2/cjTHptYZFTq8isP8/A5CpnRXPzszSbHcidkkIvMvjn3TfLMKYq46zSuqgOVEZ3uKtGhGhUN2tEjEXI36rOhQ9HLle6QYm6qz0eNy/VRfrkjK9mxVQVmRlO25sAratJsYU9FUgS8YruJHjVhHLS7M1VVgF+fSIRqkfaF6pul2ecmj//8qhVYVap959P++UlhYBaQe0zzemrU1VWDOfKCfD9KeQu4OFLhTZU0R9weYm4pz4qVbw9t/tvZU99XEYLsKXhr81z3VoioQPSTGLMhXBFMF5tXoe2dkPEAFVIj4lVP6bI3ZCpWUfovkvVytSSdadrZdhZq3SsK4e6odF4qqYNwyM0eX75emCgtkWzDS4aGEvSwSX5hrzir7nsVCexvi4uhIz5DPU2FppbMzw6UrqkKoRx99qtnBUIGt45qDv2TGnhD2sogK4vixWhdH6XrnoFLd1FxyVchSeEXSL0TZXRo3u6FCTgCUHWdc1lWhWBsb73pT4b7B5LIvWQ5VUSFC166C4qxWxE3NZYMqoJJV4M7qsozd7pXupuZxg1VQnNWquKl53GQVIn5u4QOy3HxUg5usAndWHfYnrIKbaqUqKvibUEHelacqVDb/YoMqBLpvfo3nhWbWnPZ8pEM18l1VN7W2URXsZ+fwW87Odn1X2FXoqA9DscTkTeKbsyhfhUzVoioY8/qyeyR2i60naqSFIn4cpx6nxdfJyc3rSxEq46bGO4gkQ82EeSrEC0KStla1eHxBs2iTGSPnTpW59PpFDysU2yq7/rYYNEcFJexHzeykkphTtMoSSlTj5KjAqi7UR7+wCq66EA8DfVrnxRfUmx7mOClrCZMSZ5JZclTwQ/EoJGaTcuApDuRQKbSr0GBVXTXd4itibXJis+sEuZhkYm2se7QQk8RfsCIZeOaxb2Jms+RlC3NnVcYoSkbaW7lNsargObaqxVVw6CQ1qTfjM13MyIwKXCeS8Ah+n8ed5cwf8TwQ0/fPU0EkjpBquKliPNraa1VB+tnqDPoKFRyXTOJxPEE8fUMaNJuDwWa+g+hOo9Np7FD+Wk10nIq53ZzFY+n15GbOs1G7tl9hlYA0req8WFXoiqqqYF+jwnIOhjgU+UhEbquWfCQxTVCAcSA+TctzjAK1Z5n7mqcCr1+Vn1opKigH1I2roIKacuu15Oa1sa0R1deejpbKGtpz85Q+jfBz2ZSvAnKVWW3LU51bZMDmibehyYCtOdsS7lRVxE0tXwXSVJcWa3BtlslUpdn1fECRfJ+bPUcFltlh5tCXx/ZVcBVrLffcun7vkG7Gxs/OY1fLB3aRLcu9m4hTgBOyTkfH2kv+nXlea0Xc1BJUaMYLSpjHT2hi2jNe2Y2YV/7RJOQ/PkFhMLEH6712k/3gR65XU+xklq8xz7F0quGm1kpQgXi17mRBMMUkmVjW5YFDcT1r5qhRd0KMw2a9kZ8w4cXzZNlzINcrbx5SzR31u3P+yJSbpq2xdRXSi7lo1BvlWNPLfSMajaw/DNVY9qynkPXkjO/UE0c4yMhyE14WJalQCu1jpOxJrao4SLVbpUJ07CjQ6qxHZewLpakwVs8ddHh5g+2xPRWYk04uXdk3RVceO0jJv+g02Z4K6cWnW96lgcccZIfQaUXujzjbU2F5unUJTkpMzB2HAXFD7Mwr989JtqhCrTecl/s/7Ebt+WzQrY6DKtimCkAeoEIVABWqAKhQBUCFKgAqVAF79P8QVNgqI2smzFSYlshCeyaMrFru/7b5vmmKWa/Efwfc4Op/dPJEVXpZVaAgA5a8oF3weE2UlUYkUwZqVZ/nylX1l5LfB7PWKgUYL7SD/chZ5V8RqsfHJ2nVHa1qj1Wt1i3ld8e4TvDC/HGXP0yoMzWnd6fu4oWZuRDN+tSZV+yWEgAAAAAAAAAAAAAAAAAAAAAAAAAAAAAAAPgO+T9pkO3AS11pswAAAABJRU5ErkJggg==;" vertex="1" parent="1">
          <mxGeometry x="510" y="430" width="208.07" height="69" as="geometry" />
        </mxCell>
        <mxCell id="YB9vVV8EXHGn8TmSXIP--15" style="edgeStyle=orthogonalEdgeStyle;orthogonalLoop=1;jettySize=auto;html=1;curved=1;endArrow=halfCircle;endFill=0;" edge="1" parent="1" source="N2VFOOgj81DTxY1rCRJI-6">
          <mxGeometry relative="1" as="geometry">
            <mxPoint x="866.5" y="459" as="targetPoint" />
          </mxGeometry>
        </mxCell>
        <mxCell id="N2VFOOgj81DTxY1rCRJI-6" value="" style="shape=image;verticalLabelPosition=bottom;labelBackgroundColor=default;verticalAlign=top;aspect=fixed;imageAspect=0;image=data:image/png,iVBORw0KGgoAAAANSUhEUgAAASwAAACoCAMAAABt9SM9AAAA/1BMVEX///8AQoEAKnYAKHUAN3wALXf3+PoAOHwAL3gAPn8AQIAAMnoANXu+xtUAOn0wh5qYpr7a3+f/cxFKW47/iQCKmrb/kBBwhKj/onb/dh3/cQXpGzL/j1T/okz/jgD+t5x6ja7nAA3oABeirsT0oKPoACP/plb/qmH63N1Bh50ofpa0vc9CVIpFZJRWZZQAJHTO3uOwy9Jil6rM0t5WmKfh6+5heaEuVYuvucx1qLX/gQDL3OHp7/IAHHGIkbBKaJYeTIb+4tT/nD0AdI7/tnr/lSX/1ML/2swxSYQAFW//kFj/pXukxMyCrrr/tpb+18r/gTr1q67rQlAAAGvvd38wcZh5AAAHHElEQVR4nO2ai1rbNgBG41t8jZOQhgzo1oDHNghJ2hmcdJjFXbcOtrZb177/s0yKr5HkYA+WQPuf7wPLtizJx5IsyWk0AAAAAAAAAAAAAAAAAAAAAAAAAAAAAAAAAAAAAAAAAAAAAAAAAOBz4uJi2yV4RJyebrsEj4h2e9sleERAVg0gqwaQVc6rV6/SYPiC0m4vN2F69AKvx4yfnvySBi9O24Tzc/r/9Hl69PXp6+2U7AHyZPfrNNi8fE5ot+n/y2Z69PQEY4mUgqwYts+CrBzIqgFk1QCyasDLYtw8MFnNRRAE28qckxWGq/sPTdbUdKebzvS7hN3d35LQr6sRfkw4OTlJg5suo4imLEnapjN98k3M7u5uEmJq2AnPpssoYiuyvk8gNSsJMTXrfCuyBqbkjNZF2IqsFK7PYqnRZwWDwV373oFu2V+GrCvXvbpjcQbuY6pZb968+X3lQA1ZiiQpdyzO45L1dH//q5UDkJXDydrZgawyIKsG1WV1u91b0vpcZZ23k9W9wkrpEk5WtlJ6ffbzLYl+9rIKa/BLOFmXl34cOJvcg6zWcBHNgk44upGvhoLzRJbq+f1gHC2GviiBNbL8/mI8Hnih+CxlPljMZoHXGF7JNy32nOd1sqbTITv5qUwWCycr4x5k+ZKhm5ZpqlpkSXpfEIPIklRbN0ksXYsEukpl+ZHmmqbpOtNhSe6eYbs0YceOJMlmZc1sdZoea96o6k1+aiuyvKklEaz4r1RWGkcypx4XoUxWZ2rSy+h1aiS8t0Cz0hiSQNbYzI/RTAp3Uirrj52dP8Vnziaiu6P9foohSUZhl43ZmpJCupoWaZourZFlObIbaQa9+SlXt0pkeQpNUbNVWSV5zAQpD20aQ9Yj2XCry7oghOft58ttGvX9/k7MHiEJ7j9LToYtn9CbDOiGzeRGM1LoE8t2NK6S0fNGQB2GfbtcljWe0wfZDUgcS60mK6TPQRmS22l2NJLLnIvhU5tyn96wH6hVZTWLXwffplGf7e9xZLL8sx5hMpnQzTWTiSaV4DIROw4pYipo5JTKUtO216cXsA1RLGtIqqqS3KrnkLbGxViQiqqk9TQwq8p6STlvv3z37t3b7FPq+/2EpaWETNb1GYHIohtW1lTNoIryPYOJSPp0c5zuVJHViMzCFYX74GVpxfcFqcEa2wc0lWJVriwr5pz5LPHXs4S/9/aepuHVGXVJn9XJIbZUL9/li5uXsJKsucO/MYSyfOJHnfutJf7Mkhy2HbZIm5azTqe2rP/Qwd/pbdgl7VXLiutVkbW8hKkjQlkkNTriSBC9aWnblLK9+5L1vw0d6LsyP+upYlnDoixaZqOKLFqnLbeAPWBiEFnmItsTyVo8Pll9nZFVqWYRWdZsWITpA5ay8u5PJKt4LNTEsg4PDleu4WRNzeTL01nvPpthmayVZmgUO5oYcTNUJVM0tsqh3Z+Z7Y3rybp8kck6WrmGl5Ve1hN38AXWj+DJ2bzf7VSRRRxU7+BZq3yM/FFVkcW+zCm3ylKqrySsl0VKaEXpDmlut8syyWCD/QIiHjrIluQO15aNDC7cLC0qi50bBIWcSZW2bEEim5PVIo/LTTvZKrLGZFois/dUPiiVC0s7/MobjWGkOZLBhcEmTEqU9WokbIma9eZkNWZkEO1K824Ydn3ybPMaVCyyS95aJErX90y3IDdDLKtpkPGCFvikb2letIYG+zIkh+lMw5ktc29ZAlndaTbB8DXB1IHCyWI/WNyfrFA16SzZ0DTNNqVSWZJJoxiqRdVy7+ySiXSXLmiYtqwosmbrOi+r4dMYlqPR3EmIk9UYkHGrE/XnnTFxZUaiO2BlcdyfrEY4M6x87mgIZdl5DEsb8+ObsiWarqrnSasCWQ0/no8laU/5lhqQns/UHfJILVu8ynOfsqamecsPXEYzxVZVXVdtTVmIlvS7gaY5y6mlrcxE68uli3/NIUmaLv/pjhKxr7qYvk7S1pe5O4HARouUznEcWzOZYdq3CccHxx/i0IfVCMkkj7y+s/mesAQFovE4ui3OxajT6fc7o/KPH91Rx/O8zkj8i/J1a/CtTjAeL4bz8t+idz2Sed9rlQ0zwtbcm/NlOzqOOTg4iANH/6xGkJxsKSEOOCabxjbYyqeww6MYIisOHDKyXEVeQtfMliiikcfG2YqsHxKODo7TIFOqmIYsyVn4AdD8KMsft5U528H719erL9UaHfxG2OZT42T1eg9b1jaBrBpAVg0gqwZFWbTrJLJaK50oZOUcHmcrpX36pas3mfToNlsVvdLv+jvRz4dPnz6lwX7yLZX+z2UNhqJZ6RdPSH+gMOr15nS7dpEWxHAdPCgHsmoAWTWArBpwE2lQTjMMH8RSDAAAAAAAAAAAAAAAAAAAAAAAAAAAAAAAAAAAAAAAAAAAAAAAAACAevwLT1PTGoI/NFgAAAAASUVORK5CYII=;" vertex="1" parent="1">
          <mxGeometry x="487.15" y="526" width="210.71" height="118" as="geometry" />
        </mxCell>
        <mxCell id="YB9vVV8EXHGn8TmSXIP--1" value="&lt;div style=&quot;text-align: left;&quot;&gt;&lt;font color=&quot;#ffffff&quot;&gt;&lt;span style=&quot;font-size: 17px;&quot;&gt;&lt;b&gt;Data Visualisations&lt;/b&gt;&lt;/span&gt;&lt;/font&gt;&lt;/div&gt;" style="rounded=1;whiteSpace=wrap;html=1;fillColor=#660066;gradientColor=#7ea6e0;strokeColor=#6c8ebf;glass=1;" vertex="1" parent="1">
          <mxGeometry x="220" y="420" width="200" height="72" as="geometry" />
        </mxCell>
        <mxCell id="YB9vVV8EXHGn8TmSXIP--2" value="&lt;div style=&quot;text-align: left;&quot;&gt;&lt;font color=&quot;#ffffff&quot;&gt;&lt;span style=&quot;font-size: 17px;&quot;&gt;&lt;b&gt;Create Models&amp;nbsp;&lt;/b&gt;&lt;/span&gt;&lt;/font&gt;&lt;/div&gt;" style="rounded=1;whiteSpace=wrap;html=1;fillColor=#660066;gradientColor=#7ea6e0;strokeColor=#6c8ebf;glass=1;" vertex="1" parent="1">
          <mxGeometry x="670" y="-10" width="280" height="62" as="geometry" />
        </mxCell>
        <mxCell id="YB9vVV8EXHGn8TmSXIP--3" value="&lt;div style=&quot;text-align: left;&quot;&gt;&lt;font color=&quot;#ffffff&quot;&gt;&lt;span style=&quot;font-size: 17px;&quot;&gt;&lt;b&gt;Data Querying / Manipulation&lt;/b&gt;&lt;/span&gt;&lt;/font&gt;&lt;/div&gt;" style="rounded=1;whiteSpace=wrap;html=1;fillColor=#660066;gradientColor=#7ea6e0;strokeColor=#6c8ebf;glass=1;" vertex="1" parent="1">
          <mxGeometry x="1020" y="-10" width="250" height="62" as="geometry" />
        </mxCell>
        <mxCell id="YB9vVV8EXHGn8TmSXIP--4" value="&lt;div style=&quot;text-align: left;&quot;&gt;&lt;font color=&quot;#ffffff&quot;&gt;&lt;span style=&quot;font-size: 17px;&quot;&gt;&lt;b&gt;Because - legacy&lt;/b&gt;&lt;/span&gt;&lt;/font&gt;&lt;/div&gt;" style="rounded=1;whiteSpace=wrap;html=1;fillColor=#660066;gradientColor=#7ea6e0;strokeColor=#6c8ebf;glass=1;" vertex="1" parent="1">
          <mxGeometry x="1250" y="358.5" width="250" height="62" as="geometry" />
        </mxCell>
        <mxCell id="YB9vVV8EXHGn8TmSXIP--17" value="&lt;div style=&quot;text-align: left;&quot;&gt;&lt;ul&gt;&lt;li&gt;&lt;b style=&quot;font-size: 17px; color: rgb(255, 255, 255); background-color: initial;&quot;&gt;Create Data Visualisations with different tools&lt;/b&gt;&lt;br&gt;&lt;/li&gt;&lt;li&gt;&lt;b style=&quot;font-size: 17px; color: rgb(255, 255, 255); background-color: initial;&quot;&gt;Create models for Conversion, Frequency &amp;amp; Severity&lt;/b&gt;&lt;/li&gt;&lt;li&gt;&lt;font color=&quot;#ffffff&quot;&gt;&lt;span style=&quot;font-size: 17px;&quot;&gt;&lt;b&gt;Query the data in SQL&lt;/b&gt;&lt;/span&gt;&lt;/font&gt;&lt;/li&gt;&lt;li&gt;&lt;font color=&quot;#ffffff&quot;&gt;&lt;span style=&quot;font-size: 17px;&quot;&gt;&lt;b&gt;Download &amp;amp; work on it in Excel&lt;/b&gt;&lt;/span&gt;&lt;/font&gt;&lt;/li&gt;&lt;/ul&gt;&lt;/div&gt;" style="rounded=1;whiteSpace=wrap;html=1;fillColor=#660066;gradientColor=#7ea6e0;strokeColor=#6c8ebf;glass=1;" vertex="1" parent="1">
          <mxGeometry x="40" y="-110" width="460" height="430" as="geometry" />
        </mxCell>
        <mxCell id="YB9vVV8EXHGn8TmSXIP--18" value="&lt;div style=&quot;text-align: left;&quot;&gt;&lt;font color=&quot;#ffffff&quot;&gt;&lt;span style=&quot;font-size: 17px;&quot;&gt;&lt;b&gt;From this Data Set We can then ...&amp;nbsp;&lt;/b&gt;&lt;/span&gt;&lt;/font&gt;&lt;/div&gt;" style="rounded=1;whiteSpace=wrap;html=1;fillColor=#660066;gradientColor=#7ea6e0;strokeColor=#6c8ebf;glass=1;" vertex="1" parent="1">
          <mxGeometry x="180" y="-240" width="200" height="72" as="geometry" />
        </mxCell>
        <mxCell id="kG1sMfPnU6x_lfFgmEMP-1" value="" style="aspect=fixed;perimeter=ellipsePerimeter;html=1;align=center;shadow=0;dashed=0;spacingTop=3;image;image=img/lib/active_directory/sql_server.svg;" vertex="1" parent="1">
          <mxGeometry x="780" y="249.99" width="220" height="285.71" as="geometry" />
        </mxCell>
      </root>
    </mxGraphModel>
  </diagram>
  <diagram id="ofZVQZidV8w8v9E9t61w" name="Page-3">
    <mxGraphModel dx="1434" dy="918" grid="1" gridSize="10" guides="1" tooltips="1" connect="1" arrows="1" fold="1" page="1" pageScale="1" pageWidth="827" pageHeight="1169" math="0" shadow="0">
      <root>
        <mxCell id="0" />
        <mxCell id="1" parent="0" />
      </root>
    </mxGraphModel>
  </diagram>
</mxfile>
